<svg width="14" height="5" viewBox="0 0 14 5" fill="none" xmlns="http://www.w3.org/2000/svg">
<mask id="path-1-inside-1" fill="white">
<path d="M0 0.262024L6.54545 4.88234L13.0909 0.262024"/>
</mask>
<path d="M-0.576683 1.07899C-1.02788 0.760499 -1.13546 0.13654 -0.816968 -0.314659C-0.498475 -0.765858 0.125484 -0.873437 0.576683 -0.554944L-0.576683 1.07899ZM6.54545 4.88234L7.12214 5.69931C6.77641 5.94335 6.3145 5.94335 5.96877 5.69931L6.54545 4.88234ZM12.5142 -0.554943C12.9654 -0.873437 13.5894 -0.765858 13.9079 -0.314659C14.2264 0.13654 14.1188 0.760499 13.6676 1.07899L12.5142 -0.554943ZM0.576683 -0.554944L7.12214 4.06537L5.96877 5.69931L-0.576683 1.07899L0.576683 -0.554944ZM5.96877 4.06538L12.5142 -0.554943L13.6676 1.07899L7.12214 5.69931L5.96877 4.06538Z" fill="black" mask="url(#path-1-inside-1)"/>
</svg>
