<svg width="224" height="148" viewBox="0 0 224 148" fill="none" xmlns="http://www.w3.org/2000/svg">
<path opacity="0.05" d="M112 148C173.856 148 224 145.09 224 141.5C224 137.91 173.856 135 112 135C50.1441 135 0 137.91 0 141.5C0 145.09 50.1441 148 112 148Z" fill="#1C127F"/>
<path d="M46.371 127.67L181.199 114.711L173.485 34.4465L38.6563 47.4056L46.371 127.67Z" fill="#4E37D3"/>
<path opacity="0.1" d="M110.267 84.6996L38.6426 47.3856L173.458 34.3892L110.267 84.6996Z" fill="#263238"/>
<path d="M93.9206 3.37109L38.6426 47.3855L173.458 34.4469L110.787 1.75376C105.357 -1.07657 98.7725 -0.441189 93.9206 3.37109Z" fill="#4E37D3"/>
<path opacity="0.2" d="M168.432 34.9088L108.88 3.89077C104.779 1.75359 99.8115 2.21568 96.1726 5.10377L43.6094 46.8655L168.432 34.9088Z" fill="#263238"/>
<path d="M143.538 33.9268L161.79 38.7787L162.252 43.3419L110.267 84.6993L51.3498 54.0278L50.4834 44.9015L143.538 33.9268Z" fill="white"/>
<path d="M143.537 33.9268L147.003 43.4574L161.79 38.7787" fill="#E0E0E0"/>
<path d="M143.537 33.9268L145.328 41.7824L161.79 38.7787" fill="#F0F0F0"/>
<path d="M121.011 76.0928L181.141 114.678L46.3252 127.616L98.0219 78.2878C104.26 72.3383 113.791 71.4141 121.011 76.0928Z" fill="#5647EA"/>
</svg>
