<svg width="284" height="179" viewBox="0 0 284 179" fill="none" xmlns="http://www.w3.org/2000/svg">
<path d="M283.979 177.143C283.979 177.214 224.641 177.356 151.489 177.356C78.2749 177.356 19 177.285 19 177.143C19 177.072 78.3377 176.93 151.489 176.93C224.641 177.001 283.979 177.072 283.979 177.143Z" fill="#263238"/>
<path d="M108.682 151.725L108.753 151.796L108.682 151.725Z" fill="#455A64"/>
<path d="M130.338 155.914C130.267 155.914 130.267 155.914 130.196 155.914C127.64 154.991 117.061 149.24 109.677 150.518C110.103 150.589 110.387 150.66 110.387 150.66L139.355 174.374L139.284 174.445L142.053 171.25C142.763 170.469 142.55 169.262 141.627 168.694C135.095 164.505 131.9 159.819 130.338 155.914Z" fill="#261B93"/>
<path d="M109.037 150.589C109.25 150.518 109.463 150.518 109.676 150.447C109.108 150.376 108.327 150.447 107.901 151.086L108.682 151.725C108.256 151.37 108.469 150.731 109.037 150.589Z" fill="#E0E0E0"/>
<path d="M135.024 174.658L108.754 151.796L137.296 176.646L139.284 174.374C138.219 175.652 136.302 175.794 135.024 174.658Z" fill="#E0E0E0"/>
<path d="M110.386 150.589C110.386 150.589 110.102 150.518 109.676 150.447C109.463 150.518 109.25 150.518 109.037 150.589C108.469 150.731 108.327 151.37 108.682 151.725L108.753 151.796L135.023 174.658C136.301 175.794 138.218 175.652 139.354 174.374L139.425 174.303L110.386 150.589Z" fill="#E0E0E0"/>
<path d="M153.837 154.14L142.051 143.348C141.838 143.135 141.412 143.135 141.27 143.419L135.093 151.442L130.976 156.767C130.834 156.909 130.621 156.98 130.479 156.98C131.899 160.814 135.094 165.571 141.767 169.476L148.725 161.169L153.979 154.921C154.121 154.708 154.121 154.353 153.837 154.14Z" fill="#FFBE9D"/>
<path opacity="0.3" d="M154.76 153.075L142.974 142.283C142.761 142.07 142.335 142.07 142.193 142.354L136.016 150.377L149.648 160.104L154.902 153.856C154.973 153.643 154.973 153.288 154.76 153.075Z" fill="#263238"/>
<path d="M113.298 156.199C113.227 156.199 113.227 156.199 113.156 156.199C110.6 155.276 100.021 149.525 92.6367 150.803C93.0627 150.874 93.3467 150.945 93.3467 150.945L122.315 174.659L122.244 174.73L125.013 171.535C125.723 170.754 125.51 169.547 124.587 168.979C118.055 164.861 114.86 160.104 113.298 156.199Z" fill="#261B93"/>
<path d="M91.9973 150.874C92.2103 150.803 92.4233 150.803 92.6363 150.732C92.0683 150.661 91.2873 150.732 90.8613 151.371L91.6423 152.01C91.2163 151.655 91.4293 151.016 91.9973 150.874Z" fill="#E0E0E0"/>
<path d="M117.984 174.943L91.7139 152.081L120.256 176.931L122.244 174.659C121.179 175.937 119.262 176.079 117.984 174.943Z" fill="#E0E0E0"/>
<path d="M93.3458 150.874C93.3458 150.874 93.0618 150.803 92.6358 150.732C92.4228 150.803 92.2098 150.803 91.9968 150.874C91.4288 151.016 91.2868 151.655 91.6418 152.01L91.7128 152.081L117.983 174.943C119.261 176.079 121.178 175.937 122.314 174.659L122.385 174.588L93.3458 150.874Z" fill="#E0E0E0"/>
<path d="M136.798 154.424L125.012 143.632C124.799 143.419 124.373 143.419 124.231 143.703L118.054 151.726L114.078 156.909C113.936 157.051 113.723 157.193 113.51 157.335C114.93 161.169 118.054 165.855 124.799 169.76L131.757 161.453L137.011 155.205C137.082 154.992 137.082 154.637 136.798 154.424Z" fill="#FFBE9D"/>
<path opacity="0.3" d="M136.797 154.424L125.011 143.632C124.798 143.419 124.372 143.419 124.23 143.703L118.053 151.726L131.685 161.453L136.939 155.205C137.081 154.992 137.081 154.637 136.797 154.424Z" fill="#263238"/>
<path d="M160.439 81.7904C160.439 81.7904 153.481 75.3295 152.203 74.9035C150.925 74.4775 140.701 74.6195 140.062 75.1875C139.423 75.6845 129.27 81.7194 130.974 82.5004C132.678 83.2814 139.707 79.0214 139.707 79.0214L140.914 79.1634C140.914 79.1634 134.808 82.7134 133.743 83.9914C132.749 85.1984 133.814 86.6184 134.95 85.9794C136.086 85.4114 141.34 82.1454 141.766 82.2164C142.192 82.2874 136.157 86.1214 135.66 86.7604C134.95 87.6834 135.447 89.3874 136.654 88.8194C137.364 88.5354 142.902 84.5594 142.902 84.5594C142.902 84.5594 138.784 88.3224 138.5 88.8904C138.003 89.8844 138.997 90.7364 139.991 90.0974C140.63 89.6714 143.47 86.6894 144.322 86.1214C144.322 86.1214 145.316 86.0504 146.807 87.5414C148.298 89.0324 159.729 94.1444 159.729 94.1444L160.439 81.7904Z" fill="#FFBE9D"/>
<path d="M157.953 82.8557C157.527 83.7077 156.391 83.9917 155.468 83.8497C154.545 83.7077 153.622 83.2107 152.699 82.9267C149.93 82.2167 146.877 83.7787 144.108 82.9267C143.753 82.7847 143.256 82.5717 143.327 82.1457C143.327 81.7907 143.753 81.5777 144.108 81.4357C147.09 80.3707 150.143 79.3057 153.125 78.2407" fill="#FFBE9D"/>
<path d="M153.125 78.3115C153.125 78.3115 152.77 78.3825 152.131 78.5245C151.492 78.7375 150.569 79.0215 149.433 79.3765C148.226 79.8025 146.948 80.2285 145.457 80.7255C145.102 80.8675 144.676 81.0095 144.321 81.1515C143.966 81.2935 143.469 81.3645 143.114 81.9325C142.972 82.2165 143.043 82.6425 143.256 82.7845C143.469 82.9975 143.682 83.1395 143.895 83.2105C144.321 83.3525 144.818 83.4235 145.244 83.4945C147.161 83.6365 148.865 83.1395 150.356 83.0685C151.137 82.9975 151.847 83.0685 152.486 83.2105C153.125 83.3525 153.764 83.6365 154.332 83.7785C155.468 84.2045 156.604 84.0625 157.172 83.7075C157.811 83.3525 157.882 82.8555 157.811 82.9265C157.74 82.9265 157.598 83.2815 157.03 83.5655C156.462 83.8495 155.468 83.9205 154.403 83.4945C153.835 83.2815 153.267 82.9975 152.557 82.7845C151.847 82.5715 151.066 82.5715 150.285 82.5715C148.652 82.6425 146.948 83.0685 145.244 82.9975C144.818 82.9975 144.392 82.8555 143.966 82.7845C143.611 82.6425 143.327 82.4295 143.469 82.2165C143.54 82.0035 143.966 81.8615 144.392 81.7195C144.747 81.5775 145.173 81.4355 145.528 81.2935C146.948 80.7255 148.297 80.2995 149.433 79.8735C150.569 79.4475 151.421 79.0925 152.06 78.8795C152.841 78.4535 153.125 78.3115 153.125 78.3115Z" fill="#EB996E"/>
<path d="M130.974 82.5717C130.974 82.6427 131.826 82.6427 133.175 82.3587C133.814 82.2167 134.595 81.9327 135.447 81.5777C136.228 81.1517 137.08 80.7257 138.003 80.2287C138.642 79.8737 139.281 79.5187 139.92 79.1637H139.778C142.831 79.0927 145.032 78.9507 145.032 78.8087C145.032 78.6667 142.831 78.5957 139.778 78.5957H139.707H139.636C139.068 78.9507 138.429 79.3057 137.719 79.6607C136.867 80.1577 136.015 80.5837 135.234 81.0807C134.453 81.4357 133.743 81.7197 133.104 81.9327C131.826 82.3587 130.974 82.5007 130.974 82.5717Z" fill="#EB996E"/>
<path d="M235.842 60.4199L189.195 79.8738H160.44V89.1038L198.141 94.7128L232.008 73.6259L235.842 60.4199Z" fill="#4E37D3"/>
<g opacity="0.3">
<path opacity="0.3" d="M235.77 60.4199L189.052 79.8738H160.297V89.1038L197.998 94.7128L231.865 73.6259L235.77 60.4199Z" fill="black"/>
</g>
<path d="M203.678 89.53C203.678 89.53 203.465 89.459 203.181 89.175C202.897 88.891 202.542 88.394 202.471 87.684C202.329 86.974 202.4 86.122 202.4 85.27C202.4 84.347 202.258 83.424 201.974 82.359C201.477 80.371 200.412 78.738 199.56 77.673C198.708 76.608 197.998 76.111 198.069 76.04C198.069 76.04 198.282 76.111 198.566 76.395C198.85 76.608 199.276 77.034 199.773 77.531C200.696 78.525 201.832 80.229 202.329 82.288C202.613 83.353 202.755 84.347 202.755 85.27C202.755 86.193 202.613 86.974 202.755 87.684C202.826 88.323 203.11 88.82 203.323 89.104C203.465 89.388 203.678 89.53 203.678 89.53Z" fill="#FAFAFA"/>
<path d="M220.789 79.448C220.789 79.519 220.079 79.235 219.156 78.738C218.162 78.1701 216.884 77.3181 215.677 76.0401C214.47 74.8331 213.618 73.4841 213.121 72.4901C212.624 71.4961 212.411 70.8571 212.482 70.7861C212.624 70.7151 213.618 73.3421 215.961 75.7561C218.304 78.17 220.86 79.306 220.789 79.448Z" fill="#FAFAFA"/>
<path d="M191.893 93.2929C191.822 93.2929 192.461 92.6539 192.532 91.3759C192.603 90.7369 192.532 90.0269 192.248 89.2459C191.964 88.4649 191.538 87.6129 191.041 86.8319C190.544 85.9799 190.047 85.1989 189.763 84.3469C189.479 83.5659 189.337 82.7849 189.337 82.0749C189.337 81.4359 189.479 80.8679 189.621 80.5839C189.763 80.2289 189.905 80.0869 189.905 80.0869C189.976 80.0869 189.479 80.7969 189.55 82.0749C189.55 82.7139 189.763 83.4239 190.047 84.2049C190.331 84.9859 190.828 85.7669 191.325 86.6189C191.822 87.4709 192.248 88.3229 192.532 89.1749C192.816 90.0269 192.816 90.8079 192.745 91.4469C192.674 92.0859 192.461 92.5829 192.248 92.9379C192.035 93.1509 191.893 93.2929 191.893 93.2929Z" fill="#FAFAFA"/>
<path d="M174.569 88.465C174.498 88.536 173.646 86.69 173.717 84.205C173.788 81.791 174.853 80.016 174.924 80.087C175.066 80.158 174.214 81.862 174.143 84.276C174.001 86.619 174.711 88.394 174.569 88.465Z" fill="#FAFAFA"/>
<path d="M206.518 10.6489C209.358 8.5189 213.76 10.2229 216.813 8.4479C218.659 7.3829 219.653 5.25291 221.073 3.61992C223.203 1.20593 226.895 -0.356069 230.09 0.0699297C233.285 0.495928 235.557 1.34792 236.977 4.25891C238.965 1.98692 244.148 3.61992 246.633 6.17591C249.118 8.6609 249.828 11.9269 250.112 15.4059C250.68 21.4409 250.041 27.5468 248.266 33.2978C248.124 33.7948 247.769 34.4338 247.272 34.3628C246.917 34.2918 246.633 33.9368 246.491 33.6528C245 30.8838 244.29 27.7598 243.509 24.7068C242.728 21.6538 241.805 18.5299 239.888 16.0449C237.971 13.5599 234.847 11.7139 231.723 12.2109C229.38 12.5659 227.392 14.0569 225.901 15.7609C224.339 17.5359 223.203 19.5239 221.783 21.3699C220.363 23.2158 218.659 24.9908 216.529 25.8428C214.328 26.6948 211.63 26.4818 209.997 24.8488C208.364 23.2158 208.435 20.0209 210.423 18.7429C208.364 19.2399 206.092 18.1749 205.169 16.2579C204.246 14.3409 204.885 11.8559 206.518 10.6489Z" fill="#263238"/>
<path d="M234.422 58.7863L232.505 52.3253C232.505 52.3253 223.559 53.6743 220.79 45.1544C219.441 41.0364 217.382 32.3744 215.678 24.4935C213.761 16.0445 218.731 7.52452 227.038 4.89753L227.89 4.61353C236.907 2.34154 243.865 8.80251 245.853 17.8905L255.651 52.6093C257.284 58.4313 253.947 64.5373 248.125 66.2413C242.303 67.9453 236.197 64.6083 234.422 58.7863Z" fill="#FFBE9D"/>
<path d="M232.505 52.3256C232.505 52.3256 238.043 51.1186 242.658 45.7227C242.658 45.7227 241.948 52.6806 233.144 54.5266L232.505 52.3256Z" fill="#EB996E"/>
<path d="M219.37 30.3862C219.512 31.0252 220.222 31.4512 220.932 31.2382C221.642 31.0962 221.997 30.3862 221.855 29.7472C221.713 29.1083 221.003 28.6823 220.293 28.8953C219.654 29.0373 219.228 29.6762 219.37 30.3862Z" fill="#263238"/>
<path d="M218.802 28.0433C219.015 28.1853 219.725 27.1913 221.003 26.7653C222.281 26.3393 223.488 26.6943 223.559 26.4813C223.63 26.4103 223.346 26.1263 222.849 25.9843C222.352 25.8423 221.571 25.7003 220.719 25.9843C219.938 26.2683 219.299 26.7653 219.015 27.1913C218.802 27.6883 218.731 27.9723 218.802 28.0433Z" fill="#263238"/>
<path d="M232.079 26.6939C232.221 27.3329 232.931 27.7589 233.641 27.5459C234.351 27.4039 234.706 26.6939 234.564 26.0549C234.422 25.4159 233.712 24.9899 233.002 25.2029C232.292 25.3449 231.866 25.9839 232.079 26.6939Z" fill="#263238"/>
<path d="M231.795 24.2801C232.008 24.4221 232.718 23.4281 233.996 23.0021C235.274 22.5761 236.481 22.9311 236.552 22.7181C236.623 22.6471 236.339 22.3631 235.842 22.2211C235.345 22.0791 234.564 21.9371 233.712 22.2211C232.931 22.5051 232.292 23.0021 232.008 23.4281C231.724 23.9251 231.724 24.2091 231.795 24.2801Z" fill="#263238"/>
<path d="M230.02 35.498C230.02 35.427 229.168 35.498 227.748 35.782C227.393 35.853 227.038 35.853 226.967 35.64C226.825 35.427 226.825 35.001 226.896 34.575C226.967 33.652 227.038 32.729 227.109 31.735C227.393 27.6881 227.464 24.3511 227.251 24.3511C227.109 24.3511 226.754 27.6171 226.47 31.664C226.399 32.658 226.399 33.581 226.328 34.504C226.328 34.93 226.257 35.427 226.541 35.853C226.683 36.066 227.038 36.208 227.251 36.137C227.464 36.137 227.677 36.066 227.819 36.066C229.239 35.853 230.091 35.569 230.02 35.498Z" fill="#263238"/>
<path d="M234.208 35.2145C233.995 35.2855 234.421 36.7055 233.498 38.0545C232.575 39.4745 231.013 39.7585 231.084 39.9715C231.084 40.0425 231.51 40.1135 232.149 39.9715C232.788 39.8295 233.64 39.3325 234.208 38.4805C234.776 37.6285 234.847 36.7055 234.705 36.1375C234.563 35.4985 234.279 35.1435 234.208 35.2145Z" fill="#263238"/>
<path d="M229.594 17.6061C229.807 17.8901 231.085 17.3221 232.718 17.0381C234.28 16.6832 235.7 16.7542 235.771 16.3992C235.842 16.1862 235.487 15.9732 234.919 15.7602C234.28 15.5472 233.428 15.4762 232.434 15.6892C231.511 15.9022 230.659 16.2572 230.162 16.6832C229.665 17.1091 229.452 17.4641 229.594 17.6061Z" fill="#263238"/>
<path d="M218.091 24.067C218.446 24.28 219.227 23.712 220.292 23.357C221.357 23.002 222.351 22.931 222.493 22.576C222.564 22.363 222.28 22.15 221.783 22.008C221.286 21.866 220.576 21.795 219.795 22.079C219.085 22.363 218.517 22.789 218.233 23.215C218.02 23.641 217.949 23.996 218.091 24.067Z" fill="#263238"/>
<path d="M247.061 24.4935C247.203 24.3515 252.386 20.9436 254.019 26.8365C255.652 32.7295 249.404 33.1555 249.333 33.0135C249.333 32.8005 247.061 24.4935 247.061 24.4935Z" fill="#FFBE9D"/>
<path d="M250.539 30.2449C250.539 30.2449 250.681 30.3159 250.823 30.3159C251.036 30.3159 251.32 30.3159 251.604 30.1029C252.172 29.6769 252.385 28.5409 252.172 27.4759C252.03 26.9079 251.817 26.4819 251.462 26.0559C251.178 25.7009 250.823 25.4169 250.468 25.4879C250.113 25.4879 249.971 25.7719 249.971 25.9139C249.971 26.1269 250.042 26.1979 249.971 26.1979C249.971 26.1979 249.829 26.1269 249.829 25.8429C249.829 25.7009 249.829 25.5589 249.971 25.4169C250.113 25.2749 250.255 25.1329 250.468 25.1329C250.965 25.0619 251.462 25.3459 251.817 25.7719C252.172 26.1979 252.456 26.6949 252.598 27.3339C252.882 28.5409 252.598 29.8189 251.817 30.3159C251.462 30.5289 251.036 30.5289 250.823 30.3869C250.61 30.3869 250.539 30.2449 250.539 30.2449Z" fill="#EB996E"/>
<path d="M213.335 23.2157C217.382 23.0737 221.358 20.8017 223.559 17.3227C225.121 14.9087 225.902 11.8558 228.245 10.2938C229.807 9.22877 231.866 9.01577 233.783 9.37077C235.629 9.72577 237.404 10.7198 238.966 11.8558C238.682 16.6837 241.238 21.2277 243.794 25.3457C244.078 25.7717 244.362 26.2687 244.859 26.4817C245.711 26.7657 246.634 26.0557 247.06 25.2747C247.699 23.9967 247.628 22.4347 247.486 20.9437C247.06 17.6067 246.137 14.3408 244.504 11.5008C242.871 8.58977 240.457 6.10478 237.475 4.61379C233.783 2.7678 229.31 2.5548 225.334 3.90379C221.358 5.18179 217.95 7.87978 215.536 11.2878C214.4 12.8498 213.477 14.6247 213.264 16.5417" fill="#263238"/>
<path d="M204.743 13.4177C204.743 13.4177 204.743 13.6307 204.956 13.9147C205.169 14.1987 205.524 14.6247 206.163 14.8377C206.802 15.1217 207.654 15.1217 208.577 14.9087C209.003 14.7667 209.5 14.6247 209.997 14.3407C210.494 14.0567 210.92 13.7017 211.275 13.2047C211.559 12.7077 211.772 11.9977 211.488 11.3587C211.204 10.7197 210.494 10.2937 209.784 10.2227C209.429 10.2227 209.074 10.2937 208.719 10.4357C208.364 10.5777 208.08 10.8617 207.867 11.2167C207.441 11.8557 207.37 12.7787 207.654 13.5597C207.867 14.3407 208.506 15.0507 209.216 15.4057C209.997 15.8317 210.849 15.9737 211.701 15.9737C213.476 15.9027 215.18 15.0507 216.529 13.9147C217.949 12.7077 219.014 11.3587 220.008 10.0097C221.002 8.66075 221.996 7.38276 223.132 6.31776C224.268 5.25277 225.546 4.47177 226.824 4.11677C228.173 3.76177 229.451 3.76177 230.587 3.90377C232.93 4.32977 234.563 5.39477 235.557 6.24676C236.054 6.67276 236.409 7.02776 236.693 7.24076C236.906 7.45376 237.048 7.59576 237.048 7.59576C237.048 7.59576 237.048 7.52476 236.977 7.45376C236.906 7.38276 236.835 7.31176 236.693 7.16976C236.48 6.88576 236.125 6.53076 235.628 6.10476C234.634 5.25277 233.001 4.11677 230.587 3.69077C229.451 3.47777 228.102 3.47777 226.682 3.83277C225.333 4.18777 223.984 5.03977 222.848 6.10476C221.712 7.16976 220.718 8.51875 219.653 9.86775C218.659 11.2167 217.523 12.6367 216.174 13.7727C214.825 14.9087 213.192 15.7607 211.559 15.8317C210.707 15.8317 209.926 15.6897 209.216 15.3347C208.506 14.9797 208.009 14.3407 207.725 13.6307C207.512 12.9207 207.512 12.1397 207.938 11.5717C208.293 10.9327 209.003 10.7197 209.642 10.7197C210.281 10.7197 210.92 11.0747 211.133 11.6427C211.346 12.2107 211.204 12.8497 210.92 13.3467C210.636 13.8437 210.21 14.1987 209.713 14.4117C209.287 14.6957 208.79 14.8377 208.364 14.9797C207.441 15.2637 206.66 15.1927 206.021 14.9797C205.382 14.7667 205.027 14.4117 204.814 14.1277C204.814 13.6307 204.743 13.4177 204.743 13.4177Z" fill="#455A64"/>
<path d="M249.259 10.8619C249.188 10.7909 248.691 11.4299 247.626 11.8559C247.058 12.0689 246.419 12.2819 245.638 12.2819C244.857 12.2819 244.005 12.1399 243.153 11.9269C241.378 11.4299 240.171 10.2229 239.461 9.2289C238.751 8.2349 238.538 7.5249 238.538 7.5249C238.538 7.5249 238.538 7.7379 238.68 8.0219C238.822 8.3769 238.964 8.8029 239.319 9.2999C239.958 10.2939 241.236 11.5719 243.082 12.1399C244.005 12.4239 244.857 12.5659 245.709 12.4949C246.561 12.4949 247.271 12.2819 247.839 11.9979C248.407 11.7139 248.762 11.4299 249.046 11.2169C249.117 11.0039 249.259 10.8619 249.259 10.8619Z" fill="#455A64"/>
<path d="M250.254 15.1928C250.254 15.1218 249.615 15.4768 248.479 15.7608C247.343 16.0448 245.71 16.1868 244.077 15.6898C242.373 15.1928 241.095 14.1988 240.314 13.3468C239.533 12.4948 239.178 11.8558 239.107 11.9268C239.107 11.9268 239.178 12.1398 239.32 12.4238C239.462 12.7078 239.746 13.1338 240.101 13.5598C240.882 14.4828 242.231 15.5478 243.935 16.0448C245.71 16.5418 247.414 16.3998 248.479 16.0448C249.047 15.9028 249.473 15.6898 249.757 15.5478C250.112 15.3348 250.325 15.1928 250.254 15.1928Z" fill="#455A64"/>
<path d="M124.655 76.5366L138.074 84.4886L143.612 86.1926L137.435 78.8796L126.643 72.9866C125.72 72.4896 124.513 72.7736 123.945 73.7676C123.377 74.7616 123.732 75.9686 124.655 76.5366Z" fill="#263238"/>
<path d="M175.704 87.542C175.136 87.613 157.599 88.465 157.102 87.613C156.605 86.761 156.534 84.205 153.055 83.637C149.576 83.069 146.026 82.288 146.026 82.288L136.796 77.6021C136.796 77.6021 134.524 78.667 136.938 80.939C138.5 82.43 139.92 83.353 141.34 84.347C142.192 84.915 141.127 85.696 141.127 85.696L128.063 78.596C128.063 78.596 128.56 81.507 131.187 84.276L133.104 86.335C133.104 86.335 132.323 89.033 134.95 91.021C137.648 92.938 142.121 98.263 146.239 97.979C150.357 97.695 153.197 97.624 153.197 97.624L174.639 100.322L175.704 87.542Z" fill="#FFBE9D"/>
<path d="M175.704 87.5416C175.704 87.5416 175.704 87.6126 175.704 87.7546C175.704 87.8966 175.704 88.1096 175.633 88.3936C175.562 88.9616 175.562 89.8136 175.491 90.8786C175.349 93.0796 175.136 96.2746 174.852 100.322V100.464H174.71C169.101 99.7536 161.788 98.9016 153.268 97.8366C151.351 97.9076 149.363 98.0496 147.304 98.1206C146.807 98.1206 146.31 98.1916 145.742 98.1916C145.174 98.1916 144.677 98.0496 144.18 97.9076C143.115 97.5526 142.192 97.0556 141.269 96.4166C139.423 95.2096 137.79 93.6476 136.086 92.1566C135.66 91.8016 135.234 91.4466 134.737 91.0916C134.24 90.7366 133.885 90.3106 133.53 89.8136C132.891 88.8196 132.607 87.5416 132.891 86.3346L132.962 86.5476C132.465 86.0506 131.968 85.5536 131.471 84.9856C130.974 84.4886 130.477 83.9206 130.051 83.3527C129.128 82.1457 128.489 80.7967 127.992 79.3057C127.921 79.0927 127.921 78.9507 127.85 78.7377L127.779 78.3827L128.134 78.5957C132.607 81.0097 137.009 83.4236 141.198 85.6956H140.985C141.127 85.5536 141.34 85.4116 141.411 85.1986C141.482 84.9856 141.482 84.8436 141.34 84.7016C140.985 84.4176 140.559 84.1336 140.204 83.8496C139.423 83.2816 138.642 82.7137 137.932 82.0747C137.222 81.4357 136.441 80.8677 135.944 80.0157C135.731 79.5897 135.589 79.0217 135.731 78.5247C135.873 78.0277 136.299 77.6727 136.725 77.4597L136.796 77.3887L136.867 77.4597C140.133 79.0927 143.186 80.6547 146.097 82.1457H146.026C148.369 82.5717 150.641 82.9977 152.771 83.4236C153.836 83.5656 154.972 83.9206 155.682 84.7016C156.037 85.0566 156.321 85.5536 156.534 85.9796C156.747 86.4766 156.889 86.9736 157.031 87.3996C157.102 87.5416 157.102 87.5416 157.244 87.5416C157.315 87.6126 157.457 87.6126 157.599 87.6126C157.812 87.6836 158.096 87.6836 158.309 87.6836C158.806 87.7546 159.232 87.7546 159.658 87.7546C160.581 87.7546 161.433 87.8256 162.285 87.8256C163.989 87.8256 165.48 87.8256 166.9 87.7546C169.669 87.6836 171.87 87.6126 173.361 87.5416C174.071 87.5416 174.639 87.4706 175.065 87.4706C175.278 87.4706 175.42 87.4706 175.491 87.4706C175.704 87.4706 175.775 87.4706 175.704 87.5416C175.704 87.5416 175.633 87.5416 175.562 87.5416C175.42 87.5416 175.278 87.5416 175.136 87.6126C174.71 87.6126 174.142 87.6836 173.432 87.7546C171.941 87.8256 169.74 87.9676 166.971 88.0386C165.551 88.1096 164.06 88.1096 162.356 88.1096C161.504 88.1096 160.652 88.1096 159.729 88.1096C159.303 88.1096 158.806 88.1096 158.309 88.0386C158.096 88.0386 157.812 87.9676 157.599 87.9676C157.457 87.9676 157.386 87.8966 157.244 87.8966C157.102 87.8966 156.96 87.6836 156.889 87.6126C156.676 87.1156 156.534 86.6896 156.392 86.1926C156.179 85.7666 155.895 85.3406 155.54 84.9856C154.83 84.2756 153.836 83.9206 152.771 83.7786C150.641 83.3526 148.369 82.9266 146.026 82.5007C143.115 81.0097 140.062 79.4477 136.796 77.8147H136.938C136.583 78.0277 136.228 78.3117 136.157 78.6667C136.015 79.0217 136.157 79.4477 136.37 79.8737C136.796 80.6547 137.577 81.2227 138.287 81.8617C138.997 82.5007 139.778 83.0686 140.559 83.5656C140.985 83.8496 141.34 84.0626 141.766 84.4176C141.837 84.5596 141.979 84.6306 141.979 84.8436C141.979 84.9856 141.979 85.1986 141.908 85.3406C141.766 85.6246 141.553 85.7666 141.34 85.9796L141.269 86.0506L141.198 85.9796C137.009 83.7076 132.607 81.2937 128.134 78.8797L128.418 78.6667C128.418 78.8087 128.489 79.0217 128.56 79.1637C128.986 80.5837 129.625 81.9327 130.548 83.0687C130.974 83.6366 131.471 84.2046 131.968 84.7016C132.465 85.1986 132.962 85.7666 133.459 86.2636L133.53 86.3346V86.4766C133.246 87.5416 133.459 88.7486 134.098 89.6716C134.382 90.0976 134.808 90.5236 135.234 90.8786C135.66 91.2336 136.157 91.5886 136.583 91.9436C138.287 93.4346 139.92 94.9256 141.695 96.1326C142.618 96.7006 143.541 97.2686 144.535 97.5526C145.032 97.6946 145.529 97.8366 146.026 97.8366C146.523 97.8366 147.02 97.8366 147.588 97.7656C149.647 97.6946 151.635 97.5526 153.552 97.4816C162.072 98.5466 169.456 99.5406 174.994 100.251L174.852 100.322C175.207 96.3456 175.42 93.1506 175.633 90.9496C175.704 89.8846 175.775 89.0326 175.846 88.4646C175.846 88.1806 175.917 87.9676 175.917 87.8256C175.704 87.6126 175.704 87.5416 175.704 87.5416Z" fill="#EB996E"/>
<path d="M136.024 87.305C134.175 86.1959 132.627 85.3785 132.566 85.4794C132.506 85.5803 133.956 86.5612 135.805 87.6704C137.655 88.7795 139.203 89.5969 139.264 89.496C139.324 89.3952 137.874 88.4142 136.024 87.305Z" fill="#EB996E"/>
<path d="M135.872 143.348C131.399 145.407 149.007 156.625 156.107 160.175L180.815 133.976L222.137 175.653L225.545 157.974L231.793 119.421L196.506 84.347C196.506 84.347 190.613 78.596 181.738 83.637C174.638 87.755 135.872 143.348 135.872 143.348Z" fill="#263238"/>
<path d="M115.637 147.395L157.669 93.2929C157.669 93.2929 168.887 82.7139 180.601 85.9799C187.559 87.8969 227.319 126.663 227.319 126.663L239.673 131.704L258.488 164.009C258.488 164.009 234.774 185.593 217.45 173.097C201.262 161.382 172.721 124.249 172.721 124.249L137.292 163.086L115.637 147.395Z" fill="#263238"/>
<path d="M200.056 156.696C200.056 156.696 199.985 156.625 199.914 156.554C199.772 156.412 199.63 156.27 199.488 156.128C199.133 155.702 198.565 155.134 197.855 154.353C196.435 152.791 194.447 150.448 191.962 147.537C187.063 141.715 180.247 133.621 172.65 124.391H172.934C171.869 125.598 170.733 126.876 169.526 128.225C160.793 138.023 152.628 146.756 146.735 153.075C143.824 156.199 141.623 158.755 139.919 160.53C139.067 161.382 138.428 162.021 138.002 162.517C137.789 162.73 137.647 162.873 137.505 163.015C137.363 163.157 137.292 163.157 137.292 163.157C137.292 163.157 137.363 163.086 137.434 162.944C137.576 162.802 137.718 162.66 137.931 162.447C138.357 161.95 138.996 161.311 139.848 160.459C141.552 158.4 143.682 156.128 146.593 153.004C152.415 146.685 160.509 137.81 169.242 128.012C170.378 126.734 171.514 125.456 172.65 124.178L172.792 124.036L172.934 124.178C180.531 133.408 187.276 141.573 192.175 147.395C194.589 150.306 196.577 152.649 197.926 154.282C198.636 155.063 199.133 155.702 199.488 156.128C199.63 156.341 199.772 156.483 199.914 156.625C200.056 156.625 200.056 156.696 200.056 156.696Z" fill="#455A64"/>
<path d="M239.034 157.334C239.034 157.334 238.679 157.263 238.111 156.979C237.543 156.695 236.762 156.269 235.839 155.559C234.064 154.21 231.934 151.583 231.082 148.175C230.301 144.696 231.082 141.501 232.076 139.442C232.573 138.448 233.07 137.667 233.496 137.17C233.922 136.673 234.135 136.46 234.135 136.46C234.206 136.531 233.212 137.525 232.289 139.584C231.366 141.572 230.656 144.767 231.437 148.104C232.218 151.441 234.277 153.997 235.981 155.346C237.756 156.766 239.105 157.263 239.034 157.334Z" fill="#455A64"/>
<path d="M215.592 115.695C209.451 109.525 204.406 104.59 204.322 104.673C204.239 104.756 209.149 109.825 215.29 115.995C221.43 122.166 226.476 127.1 226.559 127.017C226.643 126.934 221.732 121.865 215.592 115.695Z" fill="#455A64"/>
<path d="M273.826 73.6259C268.217 59.852 254.727 47.498 254.727 47.498C254.727 47.498 230.09 62.266 229.238 62.834C228.386 63.402 200.625 83.0689 200.625 83.0689C200.625 83.0689 167.113 84.2049 158.096 83.9919L154.12 101.458C154.12 101.458 196.365 106.641 201.903 105.292C204.743 104.582 232.362 96.4169 232.362 96.4169C232.362 96.4169 231.652 105.789 231.226 109.907C230.516 116.581 226.398 126.237 226.398 126.237C226.398 126.237 242.728 143.49 245.213 152.436C247.698 161.382 258.774 165.571 263.957 165.358C269.14 165.145 265.235 161.595 265.235 161.595C265.235 161.595 273.187 147.608 275.885 131.136C278.654 114.735 279.435 87.3999 273.826 73.6259Z" fill="#4E37D3"/>
<path d="M252.739 89.9556C252.739 89.9556 252.597 90.0266 252.242 90.1686C251.887 90.3106 251.39 90.4526 250.751 90.6656C249.473 91.0916 247.556 91.7306 245.213 92.5116C240.527 94.0736 234.066 96.0615 226.895 98.2625C219.724 100.393 213.193 102.31 208.507 103.588C206.164 104.227 204.247 104.724 202.898 105.079C202.259 105.221 201.762 105.363 201.336 105.434C200.981 105.505 200.768 105.576 200.768 105.505C200.768 105.505 200.91 105.434 201.265 105.363C201.62 105.221 202.117 105.079 202.756 104.937C204.105 104.511 206.022 104.014 208.365 103.304C213.051 101.955 219.582 100.038 226.753 97.9075C233.924 95.7775 240.385 93.7186 245.071 92.2986C247.414 91.5886 249.26 90.9496 250.609 90.5236C251.248 90.3106 251.745 90.1686 252.1 90.0976C252.526 89.9556 252.739 89.9556 252.739 89.9556Z" fill="#263238"/>
<path d="M260.052 82.7849C260.052 82.7849 260.123 82.3589 260.336 81.6489C260.549 80.9389 260.762 79.8739 260.904 78.5959C261.188 75.9689 261.046 72.2059 259.484 68.5139C257.922 64.7509 255.437 61.982 253.378 60.278C252.384 59.426 251.461 58.858 250.822 58.432C250.183 58.077 249.828 57.864 249.828 57.793C249.828 57.793 249.899 57.793 250.112 57.935C250.254 58.006 250.538 58.148 250.893 58.29C251.532 58.645 252.455 59.213 253.52 60.065C255.65 61.698 258.206 64.5379 259.768 68.3009C261.33 72.1349 261.472 75.9689 261.117 78.5959C260.975 79.9449 260.691 81.0099 260.478 81.7199C260.407 82.0749 260.265 82.3589 260.194 82.5009C260.123 82.7139 260.052 82.7849 260.052 82.7849Z" fill="#263238"/>
<path d="M252.314 155.347C252.314 155.347 252.243 155.205 252.101 154.992C251.959 154.708 251.817 154.353 251.675 153.927C251.32 153.004 250.752 151.726 249.971 150.093C249.261 148.46 248.267 146.614 247.202 144.555C246.066 142.496 244.788 140.295 243.368 138.023C241.877 135.751 240.386 133.692 239.037 131.846C237.617 130 236.268 128.367 235.132 127.018C233.996 125.669 233.002 124.604 232.363 123.894C232.079 123.539 231.795 123.255 231.582 123.042C231.44 122.829 231.298 122.758 231.298 122.758C231.298 122.758 231.44 122.829 231.582 123.042C231.795 123.255 232.079 123.539 232.434 123.823C233.144 124.533 234.138 125.527 235.345 126.876C236.552 128.154 237.901 129.787 239.321 131.633C240.741 133.479 242.232 135.538 243.723 137.81C245.214 140.082 246.492 142.283 247.557 144.342C248.622 146.401 249.545 148.318 250.255 149.951C250.965 151.584 251.533 152.862 251.817 153.856C251.959 154.282 252.101 154.637 252.172 154.921C252.314 155.205 252.314 155.347 252.314 155.347Z" fill="#263238"/>
<g opacity="0.3">
<g opacity="0.3">
<path opacity="0.3" d="M257.496 149.382C256.644 147.252 254.727 145.832 252.952 144.341C245.781 138.59 239.675 131.703 233.569 124.816L249.26 147.607C249.757 149.169 250.254 151.583 251.177 152.932C252.1 154.281 253.662 155.346 255.295 154.991C257.496 154.494 258.348 151.512 257.496 149.382Z" fill="black"/>
</g>
</g>
<g opacity="0.3">
<g opacity="0.3">
<path opacity="0.3" d="M232.149 97.2684C236.551 99.1854 241.592 100.108 246.278 98.9014C250.964 97.6944 255.153 94.0024 256.147 89.3164C248.124 91.5174 240.172 93.7894 232.149 95.9904" fill="black"/>
</g>
</g>
<path d="M172.368 103.161C172.297 103.161 172.439 102.877 172.368 102.38C172.297 101.883 171.942 101.173 171.303 100.534C170.664 99.8954 169.67 99.2564 169.031 98.1204C168.392 96.9844 168.108 95.5644 168.108 94.1444C168.108 92.7244 168.25 91.3044 168.179 90.0974C168.108 88.8904 167.895 87.7544 167.469 86.9735C167.043 86.1215 166.546 85.6245 166.12 85.2695C165.694 84.9855 165.41 84.8435 165.481 84.7725C165.481 84.7725 165.765 84.8435 166.262 85.1275C166.688 85.4115 167.327 85.9795 167.753 86.8315C168.25 87.6835 168.534 88.8194 168.605 90.0974C168.676 91.3754 168.534 92.7244 168.534 94.1444C168.534 95.5644 168.818 96.9134 169.386 97.9784C169.954 99.0434 170.948 99.6824 171.587 100.392C172.226 101.102 172.581 101.883 172.581 102.38C172.581 102.664 172.581 102.877 172.51 103.019C172.439 103.09 172.368 103.161 172.368 103.161Z" fill="#FAFAFA"/>
<path d="M191.822 82.998C191.822 82.998 191.893 83.069 191.964 83.211C192.035 83.353 192.106 83.708 191.964 83.992C191.822 84.347 191.538 84.702 191.041 84.915C190.615 85.128 190.047 85.27 189.479 85.554C188.414 86.051 187.136 86.903 186.071 88.11C185.006 89.317 184.083 90.808 183.586 92.654C183.089 94.429 183.302 96.204 183.302 97.837C183.302 98.689 183.302 99.47 183.16 100.18C183.018 100.89 182.734 101.529 182.379 102.097C181.669 103.162 180.746 103.73 180.107 103.872C179.752 103.943 179.468 103.943 179.326 103.943C179.113 103.943 179.042 103.872 179.042 103.872C179.042 103.801 179.468 103.872 180.107 103.73C180.746 103.517 181.598 102.949 182.237 101.955C182.521 101.458 182.805 100.819 182.947 100.109C183.089 99.399 183.089 98.618 183.089 97.837C183.018 96.275 182.876 94.429 183.373 92.512C183.87 90.666 184.793 89.033 185.929 87.826C187.065 86.619 188.343 85.767 189.479 85.27C190.047 85.057 190.615 84.844 191.041 84.702C191.467 84.489 191.751 84.205 191.893 83.921C192.035 83.637 192.035 83.353 191.964 83.211C191.893 83.14 191.822 83.069 191.822 82.998Z" fill="#FAFAFA"/>
<path d="M210.778 103.02C210.778 103.02 210.991 102.736 211.275 102.168C211.559 101.6 211.843 100.748 211.772 99.612C211.701 98.547 211.346 97.269 210.423 96.062C209.571 94.855 208.364 93.79 207.015 92.796C205.666 91.802 204.246 90.879 203.181 89.885C202.045 88.891 201.193 87.826 200.767 86.7611C200.27 85.7671 200.128 84.7731 200.128 84.2051C200.128 83.9211 200.128 83.6371 200.199 83.4951C200.199 83.3531 200.27 83.2111 200.27 83.2821C200.27 83.2821 200.27 83.6371 200.341 84.2761C200.412 84.9151 200.554 85.7671 201.122 86.7611C201.619 87.755 202.471 88.749 203.536 89.743C204.672 90.737 206.021 91.589 207.37 92.583C208.719 93.577 209.997 94.713 210.849 95.92C211.701 97.127 212.127 98.547 212.127 99.683C212.127 100.819 211.843 101.742 211.488 102.31C211.346 102.594 211.204 102.807 211.062 102.878C210.849 102.949 210.778 103.02 210.778 103.02Z" fill="#FAFAFA"/>
<path d="M237.971 92.7249C237.9 92.7249 238.184 92.2989 238.397 91.4469C238.61 90.5949 238.61 89.3169 238.113 87.8969C237.616 86.4769 236.551 84.9149 234.918 83.7079C233.285 82.5009 231.155 81.6489 228.954 81.0099C227.179 80.4419 225.404 80.0159 223.771 79.4479C222.138 78.8799 220.718 78.1699 219.511 77.3179C218.375 76.4659 217.452 75.5429 216.884 74.6909C216.316 73.8389 216.032 73.0579 215.89 72.4899L215.961 72.5609C215.322 72.7029 215.038 72.8449 215.038 72.7739C215.038 72.7739 215.322 72.6319 215.89 72.4189H215.961V72.4899C216.103 72.9869 216.458 73.7679 217.026 74.6199C217.594 75.4719 218.446 76.3239 219.653 77.1759C220.789 77.9569 222.209 78.6669 223.842 79.1639C225.475 79.7319 227.179 80.1579 229.025 80.6549C231.297 81.2939 233.427 82.2169 235.131 83.4239C236.835 84.6309 237.971 86.2639 238.397 87.7549C238.894 89.2459 238.823 90.5949 238.539 91.4469C238.397 91.8729 238.255 92.1569 238.184 92.3699C238.042 92.5829 237.971 92.7249 237.971 92.7249Z" fill="#FAFAFA"/>
<path d="M240.03 56.7275C240.03 56.7275 240.172 56.7275 240.456 56.7275C240.598 56.7275 240.74 56.7275 240.953 56.7275C241.166 56.7275 241.379 56.7985 241.663 56.7985C242.657 56.9405 244.148 57.2955 245.71 58.2895C247.272 59.2125 248.976 60.7745 249.97 63.0465C251.035 65.3185 251.106 68.0875 250.609 70.8565C250.112 73.6255 249.331 76.1105 248.834 78.5245C248.337 80.8674 248.266 83.0684 248.55 84.8434C248.834 86.6184 249.473 87.9674 250.041 88.8194C250.609 89.6714 251.106 90.0264 251.035 90.0264C251.035 90.0264 250.538 89.7424 249.899 88.8904C249.26 88.1094 248.55 86.6894 248.266 84.9144C247.911 83.0684 247.982 80.8674 248.479 78.5245C248.976 76.1815 249.757 73.6255 250.254 70.9275C250.751 68.2295 250.609 65.5315 249.615 63.3305C248.621 61.1295 246.988 59.6385 245.497 58.6445C244.006 57.6505 242.515 57.2955 241.521 57.0825C241.308 57.0115 241.024 57.0115 240.882 57.0115C240.669 57.0115 240.527 57.0115 240.385 56.9405C240.172 56.7275 240.03 56.7275 240.03 56.7275Z" fill="#FAFAFA"/>
<path d="M277.235 99.9668C277.164 100.038 276.809 99.3988 275.673 98.9018C274.608 98.4048 272.691 98.1208 270.632 98.7598C268.502 99.3278 266.372 101.032 264.1 102.807C262.964 103.73 261.686 104.582 260.195 105.292C258.704 106.002 257.142 106.499 255.438 106.712C252.03 107.209 248.693 106.57 246.066 105.363C243.368 104.156 241.096 102.878 238.966 102.239C236.836 101.6 235.061 101.6 233.854 101.813C232.647 102.026 232.008 102.381 232.008 102.381C232.008 102.381 232.576 101.955 233.783 101.671C234.99 101.387 236.836 101.387 239.037 102.026C241.238 102.594 243.51 103.943 246.208 105.079C248.835 106.286 252.101 106.854 255.438 106.357C257.071 106.144 258.704 105.647 260.124 105.008C261.544 104.369 262.822 103.446 263.958 102.594C266.23 100.819 268.431 99.1148 270.632 98.5468C272.833 97.9078 274.75 98.2628 275.815 98.8308C276.099 98.9728 276.312 99.1148 276.525 99.2568C276.738 99.3988 276.88 99.5408 277.022 99.6828C277.093 99.8248 277.235 99.9668 277.235 99.9668Z" fill="#FAFAFA"/>
<path d="M275.743 85.98C275.743 85.98 275.743 86.051 275.743 86.193C275.743 86.335 275.672 86.548 275.53 86.832C275.317 87.329 274.749 88.039 273.897 88.536C273.045 89.033 271.767 89.388 270.418 89.317C269.069 89.317 267.649 88.962 266.158 88.678C263.176 88.11 260.407 88.323 258.49 88.678C256.573 89.033 255.366 89.53 255.366 89.459C255.366 89.459 255.65 89.317 256.147 89.104C256.644 88.891 257.425 88.678 258.419 88.394C260.336 87.968 263.176 87.684 266.229 88.252C267.72 88.536 269.14 88.891 270.418 88.962C271.696 89.033 272.903 88.749 273.755 88.252C274.607 87.826 275.175 87.187 275.388 86.69C275.672 86.264 275.743 85.98 275.743 85.98Z" fill="#FAFAFA"/>
<path d="M271.483 69.9337C271.483 70.0047 270.773 69.9337 269.708 70.0757C268.643 70.1467 267.152 70.4307 265.661 71.0697C264.17 71.7087 262.892 72.5607 262.111 73.1997C261.259 73.9097 260.833 74.4067 260.833 74.3357C260.833 74.3357 261.188 73.7677 261.969 72.9867C262.75 72.2057 264.028 71.3537 265.519 70.6437C267.081 70.0047 268.572 69.7917 269.708 69.7207C270.844 69.7207 271.483 69.8627 271.483 69.9337Z" fill="#FAFAFA"/>
<path d="M260.976 54.3853C261.047 54.3853 260.905 54.8823 260.479 55.6633C260.124 56.4442 259.414 57.4382 258.491 58.3612C257.568 59.2842 256.574 59.9942 255.793 60.3492C255.012 60.7752 254.515 60.9172 254.515 60.8462C254.444 60.7752 256.432 59.9232 258.207 58.0772C260.053 56.3023 260.834 54.3853 260.976 54.3853Z" fill="#FAFAFA"/>
<path d="M274.891 130.639C274.891 130.639 274.82 130.497 274.749 130.142C274.749 129.929 274.678 129.787 274.607 129.503C274.536 129.29 274.465 129.006 274.394 128.651C274.039 127.444 273.329 125.669 271.838 123.894C270.347 122.119 268.146 120.344 265.235 119.492C263.815 119.066 262.182 118.853 260.549 119.066C258.916 119.208 257.212 119.634 255.508 120.06C253.804 120.486 252.1 120.983 250.467 121.196C248.763 121.409 247.13 121.409 245.639 121.267C242.586 120.912 239.888 119.918 237.829 118.782C235.77 117.646 234.35 116.439 233.427 115.516C232.93 115.09 232.646 114.664 232.433 114.451C232.22 114.167 232.078 114.025 232.078 114.025C232.078 114.025 232.22 114.167 232.433 114.38C232.646 114.593 233.001 115.019 233.498 115.445C234.421 116.297 235.912 117.504 237.971 118.569C240.03 119.634 242.657 120.557 245.639 120.912C247.13 121.054 248.763 121.054 250.396 120.841C252.029 120.628 253.733 120.202 255.437 119.705C257.141 119.279 258.845 118.853 260.549 118.711C262.253 118.569 263.886 118.711 265.377 119.208C268.359 120.131 270.631 121.977 272.051 123.752C273.542 125.598 274.252 127.373 274.536 128.651C274.607 128.935 274.678 129.219 274.749 129.503C274.749 129.716 274.82 129.929 274.82 130.142C274.891 130.426 274.891 130.639 274.891 130.639Z" fill="#FAFAFA"/>
<path d="M236.409 129.502C236.409 129.573 235.841 129.715 234.989 129.715C234.066 129.715 232.788 129.573 231.51 129.076C230.232 128.579 229.167 127.869 228.457 127.23C227.747 126.591 227.463 126.165 227.463 126.094C227.534 126.023 229.025 127.727 231.581 128.65C234.137 129.715 236.409 129.36 236.409 129.502Z" fill="#FAFAFA"/>
<path d="M270.063 151.016C270.063 151.016 269.921 151.087 269.708 151.158C269.495 151.229 269.14 151.3 268.643 151.371C267.72 151.513 266.371 151.371 264.809 150.732C263.318 150.093 261.685 148.886 260.265 147.253C258.845 145.62 257.638 143.561 256.147 141.573C255.437 140.579 254.656 139.656 253.804 138.804C252.952 138.023 252.1 137.313 251.177 136.816C249.331 135.751 247.485 135.183 245.852 134.899C242.657 134.402 240.598 135.041 240.598 134.899C240.598 134.899 240.74 134.828 240.953 134.828C241.166 134.757 241.521 134.686 242.018 134.615C242.941 134.473 244.29 134.402 245.923 134.615C247.556 134.828 249.473 135.396 251.319 136.532C252.242 137.1 253.165 137.739 254.017 138.591C254.869 139.443 255.65 140.366 256.36 141.36C257.851 143.419 259.058 145.407 260.407 147.04C261.756 148.673 263.389 149.809 264.809 150.519C266.3 151.158 267.578 151.3 268.501 151.229C269.637 151.158 270.063 150.945 270.063 151.016Z" fill="#FAFAFA"/>
<path d="M258.703 164.86C258.632 164.86 258.632 164.221 258.419 163.227C258.206 162.233 257.78 160.884 256.999 159.535C256.218 158.186 255.224 157.121 254.443 156.482C253.662 155.843 253.094 155.488 253.165 155.417C253.165 155.417 253.804 155.63 254.656 156.269C255.508 156.908 256.573 157.973 257.354 159.322C258.135 160.742 258.561 162.162 258.703 163.156C258.774 164.221 258.703 164.86 258.703 164.86Z" fill="#FAFAFA"/>
<path d="M37.0357 81.5419C30.4154 71.3356 31.3809 56.8537 39.3114 47.6128C41.7941 44.7854 45.2421 42.3028 48.9661 42.5786C52.8279 42.9234 55.9312 46.2336 57.1035 49.8885C58.2759 53.5435 57.8621 57.5433 57.1725 61.3362C56.207 66.6462 54.6209 72.0942 50.897 76.025C47.1731 80.0937 41.7251 84.1624 37.0357 81.5419Z" fill="#6053E5"/>
<path d="M40.6898 130.505C38.2072 124.643 40.0002 117.264 44.8965 113.264C46.4136 112.023 48.4135 111.058 50.3444 111.54C52.2754 112.092 53.5856 114.023 53.8615 116.023C54.1373 118.023 53.5856 120.023 52.896 121.954C51.9305 124.574 50.6203 127.264 48.3445 128.988C46.0688 130.643 42.8966 132.298 40.6898 130.505Z" fill="#6053E5"/>
<path d="M24.6221 126.987C26.4841 117.953 21.7257 108.023 13.5193 103.747C10.9677 102.437 7.86447 101.678 5.3129 102.92C2.69236 104.23 1.45105 107.402 1.65793 110.368C1.86482 113.264 3.24405 115.953 4.83016 118.436C6.96797 121.884 9.65747 125.263 13.3814 127.056C17.1053 128.849 22.0706 130.16 24.6221 126.987Z" fill="#6053E5"/>
<path d="M25.7942 102.644C28.9665 92.3689 23.5875 79.8869 14.5535 74.0252C11.7261 72.1632 8.20903 70.9219 5.10576 72.0942C1.93353 73.3355 0.0715662 76.8526 0.00260467 80.3007C-0.0663569 83.7487 1.24391 86.9899 2.76107 90.0932C4.89888 94.3688 7.58838 98.6444 11.6571 101.127C15.7258 103.541 22.4151 105.954 25.7942 102.644Z" fill="#6053E5"/>
<path d="M32.208 152.848C32.208 152.848 32.139 152.71 32.07 152.365C32.0011 152.021 31.9321 151.538 31.8632 150.917C31.7942 150.572 31.7942 150.228 31.7252 149.883C31.6563 149.538 31.5873 149.124 31.5183 148.641C31.3804 147.745 31.1735 146.779 30.8977 145.676C30.7598 145.124 30.6218 144.573 30.4839 143.952C30.277 143.331 30.1391 142.78 29.9322 142.09C29.5874 140.849 29.1047 139.47 28.622 138.09C27.5875 135.332 26.2773 132.298 24.6222 129.263C22.9671 126.229 21.2431 123.539 19.4501 121.126C18.5536 119.953 17.726 118.781 16.8295 117.816C16.4158 117.333 16.002 116.85 15.5882 116.367C15.1745 115.954 14.7607 115.471 14.4159 115.057C13.6573 114.23 12.8987 113.54 12.2781 112.919C11.9333 112.575 11.6574 112.299 11.3816 112.023C11.1057 111.747 10.8299 111.54 10.623 111.333C10.2092 110.919 9.79546 110.644 9.51961 110.368C9.24377 110.161 9.1748 110.023 9.1748 110.023C9.1748 110.023 9.31273 110.092 9.58857 110.299C9.86442 110.506 10.2782 110.85 10.692 111.195C10.9678 111.402 11.2437 111.609 11.5195 111.885C11.7953 112.161 12.1402 112.437 12.416 112.712C13.1056 113.333 13.8642 114.023 14.6228 114.85C15.0365 115.264 15.4503 115.678 15.8641 116.161C16.2778 116.643 16.6916 117.126 17.1054 117.609C18.0019 118.574 18.8294 119.747 19.7259 120.919C21.5189 123.333 23.3119 126.091 24.898 129.125C26.4842 132.16 27.7944 135.194 28.8288 138.021C29.3116 139.47 29.7943 140.78 30.1391 142.09C30.346 142.711 30.4839 143.331 30.6218 143.952C30.7598 144.573 30.8977 145.124 31.0356 145.676C31.3115 146.779 31.4494 147.814 31.5873 148.641C31.6563 149.055 31.7252 149.469 31.7942 149.883C31.8632 150.228 31.8632 150.641 31.9321 150.917C32.0011 151.538 32.0011 151.952 32.07 152.365C32.208 152.641 32.208 152.848 32.208 152.848Z" fill="#263238"/>
<path d="M31.9321 154.71C31.9321 154.71 31.9321 154.641 31.9321 154.503C31.9321 154.365 31.9321 154.158 32.0011 153.883C32.07 153.331 32.139 152.572 32.2079 151.607C32.2769 151.124 32.3459 150.572 32.3459 149.952C32.4148 149.331 32.4148 148.71 32.4148 147.952C32.4838 146.573 32.6217 144.918 32.5528 143.125C32.5528 142.228 32.5528 141.332 32.5528 140.366C32.5528 139.401 32.4838 138.366 32.4148 137.332C32.3459 135.263 32.07 133.056 31.7942 130.711C31.1735 126.091 30.1391 120.988 28.6219 115.747C27.0358 110.575 25.1049 105.747 23.105 101.472C22.0706 99.4029 21.1051 97.334 20.0018 95.541C19.4501 94.6445 19.0363 93.748 18.4846 92.9205C17.9329 92.093 17.4502 91.3344 16.9674 90.5758C16.0709 89.0587 15.0365 87.8174 14.209 86.645C13.7952 86.0933 13.4504 85.5416 13.0366 85.0589C12.6918 84.5762 12.347 84.1624 12.0022 83.7486C11.3816 82.99 10.8988 82.3694 10.554 81.9556C10.4161 81.7487 10.2782 81.6108 10.2092 81.4729C10.1403 81.335 10.0713 81.335 10.0713 81.335C10.0713 81.335 10.1403 81.4039 10.2092 81.4729C10.3471 81.6108 10.4161 81.7487 10.623 81.8867C10.9678 82.3004 11.4505 82.9211 12.1401 83.6107C12.4849 84.0245 12.8298 84.4382 13.1746 84.852C13.5194 85.3347 13.9331 85.8864 14.3469 86.4381C15.1744 87.6105 16.2089 88.8518 17.1054 90.3689C17.5881 91.1275 18.1398 91.8861 18.6225 92.7136C19.1742 93.5412 19.6569 94.4377 20.1397 95.3342C21.2431 97.1272 22.2085 99.127 23.3119 101.265C25.3118 105.54 27.3117 110.368 28.8978 115.54C30.4149 120.781 31.3804 125.884 32.0011 130.574C32.2769 132.918 32.4838 135.125 32.5528 137.263C32.6217 138.297 32.6907 139.332 32.6907 140.297C32.6907 141.263 32.6907 142.228 32.6907 143.125C32.6907 144.918 32.5528 146.504 32.4838 147.952C32.4148 148.641 32.4148 149.331 32.3459 149.952C32.2769 150.572 32.2079 151.124 32.139 151.607C32.0011 152.572 31.9321 153.331 31.8631 153.883C31.7942 154.089 31.7942 154.296 31.7942 154.503C32.0011 154.641 32.0011 154.71 31.9321 154.71Z" fill="#263238"/>
<path d="M49.3093 54.9229C49.3093 54.9229 49.3094 54.9918 49.2404 55.1297C49.1714 55.2677 49.1025 55.4745 48.9645 55.6814C48.6887 56.1642 48.2749 56.8538 47.8612 57.6813C47.5853 58.0951 47.3095 58.5778 47.0336 59.1295C46.7578 59.6812 46.4819 60.3019 46.1371 60.9225C45.7923 61.5432 45.4475 62.2328 45.1027 62.9914C44.7579 63.7499 44.4131 64.5085 44.0683 65.336C43.7235 66.1636 43.3097 66.9911 42.9649 67.9566C42.6201 68.8531 42.2753 69.8185 41.8615 70.853C41.6546 71.3357 41.4477 71.8184 41.3098 72.3701C41.1029 72.9218 40.965 73.4045 40.7581 73.9562C40.4133 75.0596 39.9995 76.163 39.6547 77.2664C38.2755 81.8179 36.8963 86.921 35.7929 92.3C34.6895 97.679 33.9309 102.92 33.3792 107.609C32.8965 112.368 32.5517 116.643 32.4138 120.229C32.3448 122.022 32.2758 123.678 32.2758 125.126C32.2758 126.574 32.2758 127.815 32.2758 128.781C32.2758 129.746 32.2758 130.574 32.2758 131.125C32.2758 131.401 32.2758 131.539 32.2758 131.746C32.2758 131.884 32.2758 131.953 32.2758 131.953C32.2758 131.953 32.2758 131.884 32.2758 131.746C32.2758 131.608 32.2758 131.401 32.2069 131.125C32.2069 130.574 32.1379 129.815 32.069 128.781C32 127.746 32 126.505 32 125.126C32 123.678 32 122.022 32.069 120.229C32.1379 116.643 32.4827 112.299 32.8965 107.541C33.4482 102.782 34.2068 97.6101 35.3102 92.1621C36.4135 86.7831 37.7928 81.6799 39.241 77.1285C39.6547 76.0251 39.9995 74.9217 40.3443 73.8183C40.5512 73.2666 40.6892 72.7839 40.896 72.2322C41.1029 71.7495 41.3098 71.1978 41.5167 70.715C41.9305 69.7496 42.2753 68.7841 42.6201 67.8187C42.9649 66.9222 43.3787 66.0257 43.7924 65.1981C44.1372 64.3706 44.482 63.612 44.8958 62.8534C45.2406 62.1638 45.6544 61.4742 45.9302 60.7846C46.275 60.1639 46.5509 59.5433 46.8267 58.9916C47.1026 58.4399 47.4474 57.9572 47.6543 57.5434C48.137 56.7158 48.5508 56.0262 48.8956 55.5435C49.0335 55.3366 49.1025 55.1987 49.2404 55.0608C49.2404 54.9228 49.2404 54.9229 49.3093 54.9229Z" fill="#263238"/>
<path d="M47.0341 117.333C47.0341 117.333 46.8273 117.816 46.3445 118.574C45.8618 119.333 45.1722 120.505 44.4136 121.953C43.655 123.402 42.7585 125.126 41.862 127.126C41.0345 129.125 40.138 131.332 39.4484 133.746C38.6898 136.16 38.1381 138.435 37.7243 140.573C37.3106 142.711 37.0347 144.642 36.8968 146.297C36.7589 147.952 36.6209 149.262 36.6209 150.159C36.552 151.055 36.552 151.607 36.483 151.607C36.483 151.607 36.4141 151.124 36.4141 150.159C36.4141 149.262 36.483 147.883 36.552 146.297C36.6899 144.642 36.8968 142.711 37.3106 140.573C37.7243 138.435 38.276 136.091 38.9656 133.677C39.7242 131.263 40.5518 129.056 41.4483 127.057C42.3448 125.057 43.2413 123.333 44.0688 121.884C44.8963 120.436 45.586 119.333 46.1376 118.574C46.6893 117.747 46.9652 117.333 47.0341 117.333Z" fill="#263238"/>
<path d="M19.1055 148.297H48.3452L44.8281 178.088H22.7604L19.1055 148.297Z" fill="#4E37D3"/>
<path d="M20.208 174.916L22.6906 178.088H44.8273L47.3789 174.985L20.208 174.916Z" fill="#261B93"/>
<path d="M33.6561 157.262C41.121 157.262 47.1726 157.169 47.1726 157.055C47.1726 156.941 41.121 156.848 33.6561 156.848C26.1912 156.848 20.1396 156.941 20.1396 157.055C20.1396 157.169 26.1912 157.262 33.6561 157.262Z" fill="#FAFAFA"/>
<path d="M33.6561 159.261C41.121 159.261 47.1726 159.169 47.1726 159.055C47.1726 158.94 41.121 158.848 33.6561 158.848C26.1912 158.848 20.1396 158.94 20.1396 159.055C20.1396 159.169 26.1912 159.261 33.6561 159.261Z" fill="#FAFAFA"/>
<path d="M33.7935 161.193C40.9918 161.193 46.8272 161.1 46.8272 160.986C46.8272 160.871 40.9918 160.779 33.7935 160.779C26.5952 160.779 20.7598 160.871 20.7598 160.986C20.7598 161.1 26.5952 161.193 33.7935 161.193Z" fill="#FAFAFA"/>
</svg>
