<svg width="375" height="59" viewBox="0 0 375 59" fill="none" xmlns="http://www.w3.org/2000/svg">
<g filter="url(#filter0_d)">
<path d="M372.882 5C364.066 5 357.075 12.1541 352.458 19.6649C346.544 29.2849 335.932 35.7 323.8 35.7C312.325 35.7 302.21 29.9612 296.144 21.1998C290.535 13.0985 282.738 5 272.885 5H0V59H375V5H372.882Z" fill="white"/>
<path d="M0 4.75C-0.138071 4.75 -0.25 4.86193 -0.25 5V59C-0.25 59.1381 -0.138071 59.25 0 59.25H375C375.138 59.25 375.25 59.1381 375.25 59V5C375.25 4.86193 375.138 4.75 375 4.75H372.882C363.926 4.75 356.871 12.0095 352.245 19.5339C346.375 29.0831 335.842 35.45 323.8 35.45C312.41 35.45 302.371 29.7544 296.35 21.0575C293.538 16.9965 290.17 12.924 286.26 9.86501C282.349 6.805 277.884 4.75 272.885 4.75H0Z" stroke="#B9B9B9" stroke-opacity="0.2" stroke-width="0.5" stroke-linejoin="round"/>
</g>
<defs>
<filter id="filter0_d" x="-6.5" y="0.5" width="384" height="63" filterUnits="userSpaceOnUse" color-interpolation-filters="sRGB">
<feFlood flood-opacity="0" result="BackgroundImageFix"/>
<feColorMatrix in="SourceAlpha" type="matrix" values="0 0 0 0 0 0 0 0 0 0 0 0 0 0 0 0 0 0 127 0"/>
<feOffset dx="-2"/>
<feGaussianBlur stdDeviation="2"/>
<feColorMatrix type="matrix" values="0 0 0 0 0 0 0 0 0 0 0 0 0 0 0 0 0 0 0.1 0"/>
<feBlend mode="normal" in2="BackgroundImageFix" result="effect1_dropShadow"/>
<feBlend mode="normal" in="SourceGraphic" in2="effect1_dropShadow" result="shape"/>
</filter>
</defs>
</svg>
