<svg width="17" height="17" viewBox="0 0 17 17" fill="none" xmlns="http://www.w3.org/2000/svg">
<path d="M1.51752 9.73935L1.29444 11.8732L3.25616 12.7459L4.1297 14.7084L6.26459 14.4854L8.00146 15.745L9.73935 14.4854L11.8732 14.7084L12.7459 12.7466L14.7084 11.8732L14.4853 9.73834L15.745 8.00146L14.4853 6.26358L14.7084 4.1297L12.7466 3.25704L11.8732 1.29456L9.73834 1.51752L8.00146 0.257935L6.26358 1.51752L4.1297 1.29456L3.25691 3.25616L1.29444 4.1297L1.51752 6.26459L0.257935 8.00146L1.51752 9.73935ZM4.99177 8.17955L6.45276 9.63789L10.8329 5.2577L11.5634 5.98807L6.45276 11.0989L4.26128 8.9074L4.99177 8.17955Z" fill="#00B5DE"/>
<path d="M11.5635 5.98836L10.833 5.258L6.45286 9.63818L4.99188 8.17984L4.26138 8.90768L6.45286 11.0992L11.5635 5.98836Z" fill="white"/>
</svg>
