<svg width="17" height="20" viewBox="0 0 17 20" fill="none" xmlns="http://www.w3.org/2000/svg">
<path d="M5.80164 10.0937L4.83885 9.23407C4.18818 8.65322 4.5371 7.62085 5.43097 7.50186L5.80164 10.0937ZM5.80164 10.0937C5.85753 10.1436 5.88242 10.2103 5.86999 10.2767L5.80164 10.0937ZM4.7889 9.29002C4.0851 8.66174 4.47079 7.55402 5.42108 7.42751L5.42108 7.42751L6.75163 7.25045C6.75163 7.25045 6.75164 7.25045 6.75164 7.25045C6.8208 7.24123 6.87285 7.20472 6.89665 7.16058C6.89665 7.16058 6.89666 7.16057 6.89666 7.16057L7.4917 6.05626L7.4917 6.05625C7.91838 5.26448 9.12214 5.26445 9.54882 6.05626L10.1439 7.16058C10.1677 7.20474 10.2197 7.24125 10.2889 7.25045L10.2889 7.25045L11.6194 7.42751C12.5704 7.55408 12.9549 8.66217 12.2517 9.29002L11.2889 10.1496C11.2889 10.1496 11.2889 10.1496 11.2889 10.1496C11.25 10.1843 11.2373 10.2254 11.2443 10.2629L11.2443 10.2629L11.4716 11.4767L11.4716 11.4767C11.6379 12.3654 10.6526 13.0374 9.81019 12.6316L8.62014 12.0586L4.7889 9.29002ZM4.7889 9.29002L5.75169 10.1496L5.7517 10.1496C5.79051 10.1843 5.80328 10.2255 5.79627 10.2629L5.56899 11.4767C5.44 12.1655 6.01674 12.7526 6.7028 12.7526C6.78924 12.7526 6.86255 12.7478 6.94389 12.7298C7.02453 12.7119 7.11017 12.6816 7.22229 12.6333C7.36561 12.5715 7.55851 12.4774 7.84769 12.3365C8.00685 12.2589 8.19517 12.1671 8.42044 12.0586L4.7889 9.29002ZM6.35132 9.51172L5.3885 8.65209M6.35132 9.51172C6.61311 9.74544 6.73206 10.0843 6.66951 10.4182L6.44223 11.632L5.3885 8.65209M6.35132 9.51172L6.40127 9.45577M6.35132 9.51172L6.74323 10.4321M5.3885 8.65209C5.23988 8.51943 5.33611 8.312 5.5412 8.28468M5.3885 8.65209L5.5412 8.28468M6.74323 10.4321L6.51595 11.6458C6.50635 11.6971 6.53266 11.7482 6.59187 11.7818C6.65107 11.8154 6.73231 11.8233 6.80458 11.7885L6.8046 11.7885L7.99471 11.2154L8.02724 11.283L7.99471 11.2154C8.32395 11.0569 8.71654 11.0569 9.04584 11.2154L9.04585 11.2154L10.2359 11.7885C10.2359 11.7885 10.2359 11.7885 10.2359 11.7885C10.3104 11.8243 10.3912 11.8154 10.4494 11.7814C10.5082 11.7472 10.5339 11.6954 10.5246 11.6458L10.5246 11.6458L10.2973 10.4321L10.2973 10.432C10.2298 10.0713 10.3587 9.70627 10.6393 9.4558L11.6021 8.5962C11.6021 8.5962 11.6021 8.5962 11.6021 8.5962C11.6528 8.55096 11.6576 8.50033 11.6395 8.45868C11.6201 8.41382 11.5691 8.36964 11.4895 8.35903C11.4895 8.35903 11.4895 8.35903 11.4895 8.35903L10.1589 8.18196L10.1589 8.18196C9.78755 8.13252 9.46283 7.91552 9.29197 7.59843L8.69692 6.49411C8.69692 6.49411 8.69692 6.49411 8.69692 6.49411C8.6661 6.43692 8.59815 6.40217 8.52027 6.40217C8.44239 6.40218 8.37444 6.43695 8.34363 6.49411C8.34363 6.49411 8.34363 6.49411 8.34363 6.49411L7.74858 7.59843C7.57772 7.91552 7.253 8.13252 6.88169 8.18196L6.88168 8.18196L5.5511 8.35903C5.5511 8.35903 5.5511 8.35903 5.55109 8.35903C5.47144 8.36964 5.42046 8.41382 5.40103 8.45868C5.38299 8.50034 5.38782 8.55095 5.43844 8.59614L5.43845 8.59614L6.40126 9.45577C6.40127 9.45577 6.40127 9.45577 6.40127 9.45577M6.74323 10.4321C6.74323 10.4321 6.74323 10.4321 6.74323 10.4321M6.74323 10.4321L6.74323 10.4321M6.40127 9.45577C6.68186 9.70627 6.8108 10.0713 6.74323 10.4321M6.40127 9.45577L6.74323 10.4321M5.5412 8.28468L6.87179 8.10762C7.2207 8.06116 7.52378 7.85752 7.68256 7.56286L8.27761 6.45853L5.5412 8.28468Z" fill="black" stroke="black" stroke-width="0.15"/>
<path d="M16.0499 0.270081H1.32708C0.803182 0.270081 0.376953 0.696309 0.376953 1.22017V18.3973C0.376953 18.8472 0.601602 19.2631 0.97793 19.5097C1.35506 19.7569 1.82605 19.7961 2.23777 19.617L8.61276 16.8436C8.66095 16.8225 8.71618 16.8225 8.76433 16.8436L15.1393 19.617C16.0179 19.9991 17.0001 19.3545 17.0001 18.3973V1.22017C17.0001 0.696309 16.5738 0.270081 16.0499 0.270081V0.270081ZM15.8599 18.3973C15.8599 18.5345 15.72 18.6263 15.5941 18.5715L9.21914 15.7981C8.88188 15.6514 8.4951 15.6514 8.15788 15.7981L1.78288 18.5715C1.65708 18.6263 1.51707 18.5346 1.51707 18.3973V1.4102H15.8599V18.3973H15.8599Z" fill="black"/>
</svg>
