<svg width="16" height="16" viewBox="0 0 16 16" fill="none" xmlns="http://www.w3.org/2000/svg">
<path d="M8.00009 7.46706C6.25965 7.46706 4.82861 6.00781 4.82861 4.23304C4.82861 2.45827 6.25965 0.999023 8.00009 0.999023C9.74054 0.999023 11.1716 2.45827 11.1716 4.23304C11.1716 6.00781 9.74054 7.46706 8.00009 7.46706ZM8.00009 1.39342C6.45303 1.39342 5.21538 2.65547 5.21538 4.23304C5.21538 5.81061 6.45303 7.07266 8.00009 7.07266C9.54716 7.07266 10.7848 5.81061 10.7848 4.23304C10.7848 2.65547 9.54716 1.39342 8.00009 1.39342Z" fill="#828282" stroke="#828282" stroke-width="0.5" stroke-miterlimit="10"/>
<path d="M15.0009 15.0014H1V12.7928C1 10.3871 2.89515 8.45453 5.25442 8.45453H10.7465C13.1058 8.45453 15.0009 10.3871 15.0009 12.7928V15.0014ZM1.38677 14.6071H14.6142V12.7928C14.6142 10.6237 12.8737 8.84892 10.7465 8.84892H5.25442C3.12721 8.84892 1.38677 10.6237 1.38677 12.7928V14.6071Z" fill="#828282" stroke="#828282" stroke-width="0.5" stroke-miterlimit="10"/>
</svg>
