<svg width="23" height="21" viewBox="0 0 23 21" fill="none" xmlns="http://www.w3.org/2000/svg">
<path d="M17.887 11.8272C17.1284 11.8272 16.5111 12.4445 16.5111 13.2031C16.5111 13.9617 17.1284 14.579 17.887 14.579C18.6456 14.579 19.263 13.9617 19.263 13.2031C19.263 12.4445 18.6456 11.8272 17.887 11.8272ZM17.887 13.6618C17.6348 13.6618 17.4284 13.4563 17.4284 13.2031C17.4284 12.9499 17.6348 12.7444 17.887 12.7444C18.1393 12.7444 18.3457 12.9499 18.3457 13.2031C18.3457 13.4563 18.1393 13.6618 17.887 13.6618Z" fill="black"/>
<path d="M21.5561 9.99261H17.887C16.1167 9.99261 14.6765 11.4327 14.6765 13.2031C14.6765 14.9735 16.1166 16.4136 17.887 16.4136H21.5561C21.8093 16.4136 22.0148 16.2081 22.0148 15.955V10.4513C22.0148 10.1981 21.8093 9.99261 21.5561 9.99261ZM21.0975 15.4963H17.887C16.6221 15.4963 15.5938 14.4671 15.5938 13.2031C15.5938 11.9391 16.6221 10.9099 17.887 10.9099H21.0975V15.4963Z" fill="black"/>
<path d="M16.9157 1.97922C16.7946 1.75542 16.5157 1.67286 16.2937 1.79209L9.47926 5.46121C9.25636 5.58139 9.1729 5.85932 9.29304 6.08222C9.37559 6.23633 9.53335 6.32348 9.69666 6.32348C9.77006 6.32348 9.84526 6.30607 9.91496 6.26935L16.7294 2.60023C16.9523 2.48006 17.0358 2.20212 16.9157 1.97922Z" fill="black"/>
<path d="M8.25555 2.65439H5.04504C2.26387 2.65439 0 4.91731 0 7.69943V8.6167C0 8.86987 0.205486 9.07536 0.458656 9.07536C0.711826 9.07536 0.917312 8.86987 0.917312 8.6167V7.69943C0.917312 5.42365 2.76931 3.57166 5.04509 3.57166H8.25555C8.50872 3.57166 8.71421 3.36617 8.71421 3.113C8.71421 2.85983 8.50872 2.65439 8.25555 2.65439Z" fill="black"/>
<path d="M16.9698 2.65439C16.7166 2.65439 16.5111 2.85987 16.5111 3.11304C16.5111 3.36621 16.7166 3.5717 16.9698 3.5717C19.2455 3.5717 21.0975 5.4237 21.0975 7.69948V8.61675C21.0975 8.86992 21.303 9.0754 21.5562 9.0754C21.8094 9.0754 22.0149 8.86992 22.0149 8.61675V7.69948C22.0148 4.91731 19.7509 2.65439 16.9698 2.65439Z" fill="black"/>
<path d="M18.7557 5.65939L16.8138 1.77558C16.4221 0.992208 15.7461 0.415265 14.9114 0.151088C14.0767 -0.112187 13.1924 -0.0296317 12.4201 0.384995L2.99312 5.46126C2.77022 5.58049 2.68676 5.85937 2.80689 6.08227C2.92707 6.30517 3.20591 6.38863 3.42791 6.2685L12.8567 1.19404C13.407 0.896839 14.0409 0.837201 14.6353 1.02618C15.2315 1.2142 15.714 1.62698 15.9938 2.18655L17.9357 6.07032C18.0164 6.23083 18.1778 6.32349 18.3457 6.32349C18.4145 6.32349 18.4842 6.30788 18.5502 6.27486C18.7768 6.16113 18.8685 5.88594 18.7557 5.65939Z" fill="black"/>
<path d="M18.8043 5.40622H3.21051C1.44012 5.40622 0 6.84634 0 8.61668V17.7895C0 19.5598 1.44012 21 3.21051 21H18.8043C20.5747 21 22.0148 19.5599 22.0148 17.7895V8.61668C22.0148 6.84634 20.5747 5.40622 18.8043 5.40622ZM21.0975 17.7895C21.0975 19.0535 20.0692 20.0827 18.8043 20.0827H3.21051C1.94556 20.0827 0.917312 19.0535 0.917312 17.7895V8.61668C0.917312 7.35268 1.9456 6.32349 3.21051 6.32349H18.8043C20.0693 6.32349 21.0975 7.35268 21.0975 8.61668V17.7895Z" fill="black"/>
</svg>
