<svg width="96" height="97" viewBox="0 0 96 97" fill="none" xmlns="http://www.w3.org/2000/svg">
<rect x="1" y="1" width="94" height="95" rx="20" stroke="#222222" stroke-width="1.5"/>
<path d="M71.1493 52.0176H24.7998V57.5579C24.7998 59.487 26.3636 61.0507 28.2927 61.0507H67.6567C69.5858 61.0507 71.1496 59.487 71.1496 57.5579L71.1493 52.0176Z" fill="#C4C4C4"/>
<path d="M47.9746 61.0507H67.6565C69.5856 61.0507 71.1493 59.487 71.1493 57.5579V52.0176H47.9746V61.0507Z" fill="#C4C4C4"/>
<path d="M67.656 61.7227H28.292C25.9956 61.7227 24.127 59.8544 24.127 57.5577V52.0174C24.127 51.6463 24.4281 51.3452 24.7991 51.3452H71.1486C71.5196 51.3452 71.8207 51.6463 71.8207 52.0174V57.5577C71.8211 59.8544 69.9525 61.7227 67.656 61.7227ZM25.4716 52.6899V57.558C25.4716 59.1134 26.737 60.3787 28.2923 60.3787H67.6564C69.2117 60.3787 70.4771 59.1134 70.4771 57.558V52.6899H25.4716Z" fill="#222222"/>
<path d="M28.96 28.7012H67.0839V61.0509H28.96V28.7012Z" fill="#C4C4C4"/>
<path d="M63.7236 28.7012H67.0844V61.0509H63.7236V28.7012Z" fill="#C4C4C4"/>
<path d="M28.96 28.7012H32.3208V61.0509H28.96V28.7012Z" fill="#C4C4C4"/>
<path d="M67.0842 61.7225H28.9602C28.5892 61.7225 28.2881 61.4214 28.2881 61.0503V28.701C28.2881 28.3299 28.5892 28.0288 28.9602 28.0288H67.0842C67.4552 28.0288 67.7563 28.3299 67.7563 28.701V61.0503C67.7563 61.4217 67.4555 61.7225 67.0842 61.7225ZM29.6324 60.3782H66.412V29.3731H29.6324V60.3782Z" fill="#222222"/>
<path d="M65.7906 65.2154H60.9148H55.5207C55.5287 65.0752 55.5207 64.9364 55.5207 64.7943V51.0718H40.4787V64.7943C40.4787 64.9364 40.4707 65.0752 40.4787 65.2154H35.0847H30.2088C24.9418 65.2154 20.6719 69.4853 20.6719 74.7523V96.0198H75.3276V74.7523C75.3276 69.4853 71.0577 65.2154 65.7906 65.2154Z" fill="white"/>
<path d="M65.791 65.2153H62.4453C67.7124 65.2153 71.9823 69.4852 71.9823 74.7523V96.0198H75.3279V74.7523C75.3279 69.4852 71.058 65.2153 65.791 65.2153Z" fill="white"/>
<path d="M30.2088 65.2153H33.5545C28.2874 65.2153 24.0176 69.4852 24.0176 74.7523V96.0198H20.6719V74.7523C20.6719 69.4852 24.9418 65.2153 30.2088 65.2153Z" fill="white"/>
<path d="M75.3275 96.6922H20.6722C20.3011 96.6922 20 96.3911 20 96.0201V74.7526C20 69.1233 24.5798 64.5435 30.2091 64.5435H39.8069V51.0721C39.8069 50.701 40.108 50.3999 40.479 50.3999H55.521C55.892 50.3999 56.1931 50.701 56.1931 51.0721V64.5435H65.7909C71.4202 64.5435 76 69.1233 76 74.7526V96.0201C75.9997 96.3911 75.6989 96.6922 75.3275 96.6922ZM21.3443 95.3479H74.6553V74.7526C74.6553 69.8646 70.6785 65.8878 65.7906 65.8878H55.5206C55.3354 65.8878 55.1587 65.8115 55.0316 65.6768C54.9046 65.5423 54.8391 65.3612 54.8498 65.1763C54.8542 65.1004 54.8518 65.0251 54.8505 64.9495L54.8485 64.7945V51.7442H41.1512L41.1492 64.9491C41.1478 65.0254 41.1458 65.101 41.1498 65.177C41.1606 65.3618 41.0944 65.5427 40.9677 65.6771C40.8407 65.8115 40.6639 65.8878 40.479 65.8878H30.2091C25.3212 65.8878 21.3443 69.8646 21.3443 74.7526V95.3479Z" fill="#222222"/>
<path d="M55.5206 65.2154V51.0718H40.4787V65.2154H33.5215V78.1346C33.5215 82.7749 37.2832 86.5366 41.9235 86.5366H54.0251C58.6653 86.5366 62.4271 82.7749 62.4271 78.1346V65.2154H55.5206Z" fill="white"/>
<path d="M54.0253 87.2091H41.9238C36.9202 87.2091 32.8496 83.1385 32.8496 78.1349V65.2156C32.8496 64.8446 33.1507 64.5435 33.5218 64.5435H39.8068V51.0721C39.8068 50.701 40.1079 50.3999 40.479 50.3999H55.5209C55.8919 50.3999 56.1931 50.701 56.1931 51.0721V64.5435H62.4273C62.7984 64.5435 63.0995 64.8446 63.0995 65.2156V78.1349C63.0995 83.1385 59.0286 87.2091 54.0253 87.2091ZM34.1939 65.8878V78.1349C34.1939 82.3971 37.6616 85.8647 41.9238 85.8647H54.0253C58.2878 85.8647 61.7552 82.3971 61.7552 78.1349V65.8878H55.5209C55.1499 65.8878 54.8487 65.5867 54.8487 65.2156V51.7442H41.1511V65.2156C41.1511 65.5867 40.85 65.8878 40.479 65.8878H34.1939Z" fill="#222222"/>
<path d="M47.9748 61.0505C39.5432 61.0505 32.708 54.1266 32.708 45.5855V34.8786C32.708 26.3375 39.5432 19.4136 47.9748 19.4136C56.4064 19.4136 63.2415 26.3375 63.2415 34.8786V45.5851C63.2415 54.1266 56.4064 61.0505 47.9748 61.0505Z" fill="white"/>
<path d="M47.9751 19.4136C47.3879 19.4136 46.8099 19.4505 46.2402 19.5157C53.8545 20.3885 59.7722 26.932 59.7722 34.8786V45.5851C59.7722 53.5317 53.8545 60.0752 46.2402 60.948C46.8099 61.0132 47.3879 61.0502 47.9751 61.0502C56.4067 61.0502 63.2418 54.1263 63.2418 45.5851V34.8786C63.2418 26.3375 56.4067 19.4136 47.9751 19.4136Z" fill="white"/>
<path d="M47.9751 19.4136C48.5619 19.4136 49.1403 19.4505 49.71 19.5157C42.0954 20.3889 36.1777 26.932 36.1777 34.8786V45.5851C36.1777 53.5317 42.0954 60.0752 49.7096 60.948C49.14 61.0132 48.5616 61.0502 47.9748 61.0502C39.5432 61.0502 32.708 54.1263 32.708 45.5851V34.8786C32.708 26.3375 39.5432 19.4136 47.9751 19.4136Z" fill="white"/>
<path d="M47.9751 61.7225C39.1862 61.7225 32.0361 54.4833 32.0361 45.5849V34.8784C32.0361 25.9804 39.1862 18.7412 47.9751 18.7412C56.7639 18.7412 63.9143 25.9804 63.9143 34.8784V45.5849C63.914 54.4833 56.7639 61.7225 47.9751 61.7225ZM47.9751 20.0855C39.9276 20.0855 33.3805 26.7218 33.3805 34.8784V45.5849C33.3805 53.7419 39.9276 60.3782 47.9751 60.3782C56.0225 60.3782 62.57 53.7419 62.57 45.5849V34.8784C62.5697 26.7218 56.0225 20.0855 47.9751 20.0855Z" fill="#222222"/>
<path d="M55.1386 12.6724C53.727 12.6724 52.5326 13.5962 52.1233 14.8717C51.7139 13.5962 50.5195 12.6724 49.108 12.6724H40.9053C34.308 12.6724 28.96 18.0204 28.96 24.6177V33.5759H42.1733C46.9026 33.5759 50.8714 30.3256 51.9714 25.9374V34.3428C51.9714 41.1299 57.4733 46.6319 64.2605 46.6319H67.0839V24.6177C67.0839 18.0204 61.7355 12.6724 55.1386 12.6724Z" fill="#C4C4C4"/>
<path d="M44.2661 12.6724H40.9053C34.308 12.6724 28.96 18.0204 28.96 24.6177V33.5759H32.3208V24.6177C32.3208 18.0204 37.6688 12.6724 44.2661 12.6724Z" fill="#C4C4C4"/>
<path d="M55.1384 12.6724C54.7392 12.6724 54.3587 12.7483 54.0068 12.8834C59.538 13.928 63.7226 18.783 63.7226 24.6177V46.6185C63.901 46.6262 64.0798 46.6319 64.26 46.6319H67.0834V24.6177C67.0837 18.0204 61.7353 12.6724 55.1384 12.6724Z" fill="#C4C4C4"/>
<path d="M67.0842 47.3039H64.2607C57.1137 47.3039 51.2995 41.4893 51.2995 34.3426V29.211C49.3711 32.2844 45.9639 34.2478 42.1736 34.2478H28.9602C28.5892 34.2478 28.2881 33.9467 28.2881 33.5757V24.6175C28.2881 17.6603 33.948 12 40.9052 12H49.1082C50.3131 12 51.4114 12.5545 52.1236 13.4596C52.8357 12.5545 53.934 12 55.1389 12C62.0961 12 67.7563 17.6603 67.7563 24.6175V46.6317C67.7563 47.0027 67.4555 47.3039 67.0842 47.3039ZM51.971 25.2654C51.9985 25.2654 52.0261 25.2671 52.054 25.2705C52.3907 25.3121 52.6438 25.5981 52.6438 25.9376V34.3426C52.6438 40.7483 57.8551 45.9595 64.2607 45.9595H66.412V24.6175C66.412 18.4013 61.355 13.3443 55.1389 13.3443C54.0506 13.3443 53.0958 14.0403 52.7635 15.0768C52.6741 15.3548 52.4156 15.5436 52.1236 15.5436C51.8315 15.5436 51.5727 15.3548 51.4837 15.0768C51.1509 14.0403 50.1965 13.3443 49.1082 13.3443H40.9052C34.6894 13.3443 29.6324 18.4013 29.6324 24.6175V32.9035H42.1736C46.5063 32.9035 50.2674 29.9715 51.3196 25.7739C51.3953 25.4721 51.6665 25.2654 51.971 25.2654Z" fill="#222222"/>
<path d="M47.9996 73.4737C43.482 73.4737 39.8066 69.7979 39.8066 65.2804V63.199C39.8066 62.828 40.1078 62.5269 40.4788 62.5269C40.8498 62.5269 41.151 62.828 41.151 63.199V65.2804C41.151 69.0569 44.2234 72.1293 47.9996 72.1293C51.7758 72.1293 54.8482 69.0569 54.8482 65.2804V63.199C54.8482 62.828 55.1494 62.5269 55.5204 62.5269C55.8914 62.5269 56.1926 62.828 56.1926 63.199V65.2804C56.1929 69.7983 52.5175 73.4737 47.9996 73.4737Z" fill="#222222"/>
<path d="M48.369 80.9445L45.6688 82.402L46.1845 79.3449L44 77.1989L47.0189 76.7569L48.369 74L49.7191 76.7569L52.7381 77.1989L50.5535 79.3449L51.0692 82.402L48.369 80.9445Z" fill="#FCC24C"/>
</svg>
