<svg width="18" height="18" viewBox="0 0 18 18" fill="none" xmlns="http://www.w3.org/2000/svg">
<path d="M17.9918 0.276876C17.9767 0.125214 17.8502 0.00906448 17.6978 0.00688511C17.244 0.000347013 15.0218 -0.00465481 14.615 0.00699229C12.9273 0.0555814 11.9597 1.85109 13.1083 2.99966C13.3846 3.27597 13.745 3.41999 14.1273 3.44878L4.97431 12.6017H2.09977C2.02024 12.6017 1.94396 12.6332 1.88772 12.6895L0.0884426 14.4887C-0.100485 14.6777 0.0333148 15.0006 0.300486 15.0006H2.99939V17.6995C2.99939 17.9667 3.3224 18.1005 3.5113 17.9116L5.31058 16.1123C5.36681 16.0561 5.3984 15.9798 5.3984 15.9003V13.0257L14.5604 3.86379C14.5918 4.25776 14.7413 4.63257 15.0218 4.9131C16.1677 6.05902 17.9829 5.06169 17.9933 3.39969C18.0008 2.22144 18.0041 0.39935 17.9918 0.276876ZM2.22396 13.2014H4.37455L3.17503 14.4009H1.02447L2.22396 13.2014ZM4.79867 15.7761L3.59915 16.9756V14.825L4.79867 13.6255V15.7761ZM17.3936 3.39594C17.3863 4.56455 16.1827 5.22586 15.4459 4.48906C15.1364 4.17962 15.0771 3.63935 15.2518 3.1724L15.8063 2.61791C15.9234 2.50079 15.9234 2.31094 15.8063 2.19383C15.6892 2.07671 15.4994 2.07671 15.3822 2.19383L14.8275 2.7486C14.3518 2.9287 13.837 2.88015 13.5324 2.57554C12.789 1.83216 13.4309 0.641045 14.6322 0.606461C14.9712 0.596743 16.6458 0.59903 17.399 0.603924C17.4022 1.18192 17.3989 2.55317 17.3936 3.39594Z" fill="#3A3847"/>
</svg>
