<svg width="22" height="22" viewBox="0 0 22 22" fill="none" xmlns="http://www.w3.org/2000/svg">
<circle cx="11" cy="11" r="11" fill="white"/>
<g clip-path="url(#clip0)">
<path d="M5.43242 13.086L4.73625 15.6849L2.19176 15.7388C1.43133 14.3283 1 12.7146 1 10.9998C1 9.34154 1.40328 7.77779 2.11813 6.40088H2.11867L4.38398 6.81619L5.37633 9.06791C5.16863 9.67342 5.05543 10.3234 5.05543 10.9998C5.05551 11.7338 5.18848 12.4372 5.43242 13.086Z" fill="#FBBB00"/>
<path d="M20.8252 9.13184C20.94 9.73676 20.9999 10.3615 20.9999 11C20.9999 11.7159 20.9246 12.4143 20.7812 13.0879C20.2944 15.3802 19.0224 17.3818 17.2604 18.7983L17.2598 18.7978L14.4065 18.6522L14.0027 16.1313C15.1719 15.4456 16.0857 14.3725 16.567 13.0879H11.2197V9.13184H16.645H20.8252Z" fill="#518EF8"/>
<path d="M17.2595 18.798L17.2601 18.7985C15.5464 20.176 13.3694 21.0001 10.9996 21.0001C7.19141 21.0001 3.88043 18.8716 2.19141 15.7392L5.43207 13.0864C6.27656 15.3403 8.45074 16.9447 10.9996 16.9447C12.0952 16.9447 13.1216 16.6485 14.0024 16.1315L17.2595 18.798Z" fill="#28B446"/>
<path d="M17.383 3.30219L14.1434 5.95438C13.2319 5.38461 12.1544 5.05547 11 5.05547C8.39344 5.05547 6.17859 6.73348 5.37641 9.06813L2.11871 6.40109H2.11816C3.78246 3.19231 7.1352 1 11 1C13.4264 1 15.6511 1.8643 17.383 3.30219Z" fill="#F14336"/>
</g>
<defs>
<clipPath id="clip0">
<rect width="20" height="20" fill="white" transform="translate(1 1)"/>
</clipPath>
</defs>
</svg>
