<svg width="21" height="20" viewBox="0 0 21 20" fill="none" xmlns="http://www.w3.org/2000/svg">
<path d="M2.62741 18.8918L4.00169 14.0942C2.12109 12.6513 1.03613 10.6673 1.03613 8.61122C1.03613 4.42685 5.37597 1 10.6923 1C16.0086 1 20.3484 4.42685 20.3484 8.61122C20.3484 12.7956 16.0086 16.2224 10.6923 16.2224C10.0775 16.2224 9.42649 16.1864 8.81168 16.0782L2.62741 18.8918ZM10.6923 1.43287C5.59296 1.43287 1.47012 4.64329 1.47012 8.57515C1.47012 10.5591 2.51891 12.4349 4.39951 13.8056L4.508 13.9138L3.31455 18.0982L8.77551 15.6092H8.84784C9.46266 15.7174 10.0775 15.7535 10.7284 15.7535C15.8278 15.7535 19.9506 12.5431 19.9506 8.61122C19.9506 4.67936 15.7916 1.43287 10.6923 1.43287Z" fill="#3A3847" stroke="#3A3847" stroke-width="0.22" stroke-miterlimit="10"/>
<path d="M10.6923 10.487C9.86048 10.487 9.17334 9.8016 9.17334 8.97194C9.17334 8.14228 9.86048 7.45691 10.6923 7.45691C11.5241 7.45691 12.2112 8.14228 12.2112 8.97194C12.2112 9.8016 11.5241 10.487 10.6923 10.487ZM10.6923 7.88977C10.1136 7.88977 9.64349 8.35871 9.64349 8.97194C9.64349 9.58517 10.1136 10.0541 10.6923 10.0541C11.2709 10.0541 11.7411 9.58517 11.7411 8.97194C11.7411 8.35871 11.2709 7.88977 10.6923 7.88977Z" fill="#3A3847" stroke="#3A3847" stroke-width="0.22" stroke-miterlimit="10"/>
<path d="M6.42477 10.487C5.59296 10.487 4.90582 9.8016 4.90582 8.97194C4.90582 8.14228 5.59296 7.45691 6.42477 7.45691C7.25657 7.45691 7.94371 8.14228 7.94371 8.97194C7.94371 9.8016 7.2204 10.487 6.42477 10.487ZM6.42477 7.88977C5.84612 7.88977 5.37597 8.35871 5.37597 8.97194C5.37597 9.58517 5.84612 10.0541 6.42477 10.0541C7.00341 10.0541 7.47356 9.58517 7.47356 8.97194C7.47356 8.35871 7.00341 7.88977 6.42477 7.88977Z" fill="#3A3847" stroke="#3A3847" stroke-width="0.22" stroke-miterlimit="10"/>
<path d="M14.9959 10.487C14.1641 10.487 13.477 9.8016 13.477 8.97194C13.477 8.14228 14.1641 7.45691 14.9959 7.45691C15.8277 7.45691 16.5149 8.14228 16.5149 8.97194C16.5149 9.8016 15.8277 10.487 14.9959 10.487ZM14.9959 7.88977C14.4173 7.88977 13.9471 8.35871 13.9471 8.97194C13.9471 9.58517 14.4173 10.0541 14.9959 10.0541C15.5746 10.0541 16.0447 9.58517 16.0447 8.97194C16.0447 8.35871 15.5746 7.88977 14.9959 7.88977Z" fill="#3A3847" stroke="#3A3847" stroke-width="0.22" stroke-miterlimit="10"/>
</svg>
