<svg width="16" height="18" viewBox="0 0 16 18" fill="none" xmlns="http://www.w3.org/2000/svg">
<path d="M8.03997 11.0738C7.84008 11.0738 7.68017 11.2337 7.60022 11.3937C7.52026 11.5536 7.48027 11.7135 7.44029 11.8734C7.28038 12.553 7.16044 13.2726 7.04051 13.9523C6.8806 14.8318 6.72069 15.7513 6.56078 16.6308C6.48082 17.1106 6.04106 17.3904 5.56132 17.3104C5.12156 17.2305 4.80172 16.7907 4.8417 16.311C4.96164 15.5914 5.08158 14.8718 5.20152 14.1522C5.48136 12.593 5.76121 11.0738 6.00108 9.51467C6.08104 8.95497 6.16099 8.3553 6.16099 7.7956C6.16099 7.11597 5.84117 6.79614 5.16153 6.79614C4.08212 6.79614 3.0027 6.79614 1.92329 6.79614C1.84333 6.79614 1.76337 6.79614 1.68341 6.79614C1.24365 6.6762 0.96381 6.27642 1.00379 5.83666C1.04377 5.3969 1.44354 5.07707 1.8833 5.07707C3.9222 5.07707 5.9611 5.07707 8 5.07707C10.0389 5.07707 12.0778 5.07707 14.1167 5.07707C14.5564 5.07707 14.9562 5.3969 14.9962 5.83666C15.0362 6.27642 14.7563 6.71618 14.3166 6.79614C14.2366 6.79614 14.1567 6.79614 14.0767 6.79614C12.9973 6.79614 11.9179 6.79614 10.8385 6.79614C10.1588 6.79614 9.79902 7.11597 9.83899 7.7956C9.83899 8.3553 9.91896 8.95497 9.99892 9.51467C10.2388 11.0738 10.5586 12.593 10.7985 14.1522C10.9184 14.8718 11.0384 15.5914 11.1583 16.311C11.2382 16.7907 10.9184 17.2305 10.4387 17.3104C9.95893 17.3904 9.51917 17.1106 9.43921 16.6308C9.2793 15.7513 9.11939 14.8318 8.95948 13.9523C8.83954 13.2726 8.71961 12.553 8.55969 11.8734C8.51972 11.7135 8.47974 11.5536 8.39978 11.3937C8.39978 11.2337 8.23986 11.0738 8.03997 11.0738Z" stroke="#4E37D3" stroke-width="0.85" stroke-miterlimit="10" stroke-linecap="round" stroke-linejoin="round"/>
<path d="M7.99947 1C8.95895 1 9.75851 1.75959 9.75851 2.71907C9.75851 3.71853 8.99893 4.47812 7.99947 4.47812C7.03999 4.47812 6.24041 3.71853 6.24041 2.75905C6.28039 1.75959 7.03999 1 7.99947 1Z" stroke="#4E37D3" stroke-width="0.85" stroke-miterlimit="10" stroke-linecap="round" stroke-linejoin="round"/>
</svg>
