<svg width="20" height="20" viewBox="0 0 20 20" fill="none" xmlns="http://www.w3.org/2000/svg">
<path d="M0.20784 9.66906L0.207819 9.66909C0.064106 9.86554 0.0640659 10.1325 0.207811 10.3292C0.29476 10.448 1.39816 11.9369 3.15553 13.3951C4.91469 14.8548 7.31584 16.2727 10.0001 16.2727C12.6844 16.2727 15.0856 14.8548 16.8447 13.3951C18.602 11.9369 19.7054 10.4481 19.7923 10.3291C19.9359 10.1324 19.9359 9.86552 19.7923 9.66876C19.7052 9.54955 18.6018 8.06096 16.8447 6.60301C15.0856 5.14333 12.6844 3.72543 10.0001 3.72543C7.31584 3.72543 4.91469 5.14333 3.15553 6.60304C1.39815 8.06126 0.29476 9.55016 0.20784 9.66906ZM18.578 9.93507L18.6303 9.99867L18.5779 10.0622C18.0618 10.6883 16.932 11.9589 15.4268 13.0737C13.9229 14.1876 12.0335 15.154 10.0001 15.154C7.96247 15.154 6.07271 14.1881 4.56968 13.0746C3.06531 11.96 1.93766 10.6896 1.42219 10.063L1.36987 9.99944L1.42225 9.93589C1.9386 9.30952 3.06843 8.03891 4.57365 6.92413C6.07749 5.81035 7.96683 4.8441 10.0001 4.8441C12.0377 4.8441 13.9275 5.80998 15.4305 6.92353C16.9349 8.03806 18.0625 9.30847 18.578 9.93507Z" fill="#828282" stroke="white" stroke-width="0.2"/>
<path d="M9.99987 7C11.6541 7 13 8.34589 13 10.0001C13 11.6544 11.6541 13.0003 9.99987 13.0003C8.34564 13.0003 6.99975 11.6544 6.99975 10.0001C6.99975 8.34589 8.34564 7 9.99987 7ZM9.99987 12.0002C11.1028 12.0002 11.9999 11.103 11.9999 10.0001C11.9999 8.89727 11.1027 8.00006 9.99987 8.00006C8.89702 8.00006 7.99981 8.89727 7.99981 10.0001C7.99981 11.103 8.89699 12.0002 9.99987 12.0002Z" fill="#828282"/>
</svg>
