<svg width="27" height="13" viewBox="0 0 27 13" fill="none" xmlns="http://www.w3.org/2000/svg">
<path d="M8.42789 2.79675C8.92815 2.79675 9.33369 2.39453 9.33369 1.89837C9.33369 1.40222 8.92815 1 8.42789 1C7.92763 1 7.52209 1.40222 7.52209 1.89837C7.52209 2.39453 7.92763 2.79675 8.42789 2.79675Z" stroke="#3A3847"/>
<path d="M1.9058 4.77319C2.40606 4.77319 2.8116 4.37097 2.8116 3.87481C2.8116 3.37866 2.40606 2.97644 1.9058 2.97644C1.40554 2.97644 1 3.37866 1 3.87481C1 4.37097 1.40554 4.77319 1.9058 4.77319Z" stroke="#3A3847"/>
<path d="M18.4822 2.79675C18.9825 2.79675 19.388 2.39453 19.388 1.89837C19.388 1.40222 18.9825 1 18.4822 1C17.982 1 17.5764 1.40222 17.5764 1.89837C17.5764 2.39453 17.982 2.79675 18.4822 2.79675Z" stroke="#3A3847"/>
<path d="M25.0943 4.77319C25.5945 4.77319 26.0001 4.37097 26.0001 3.87481C26.0001 3.37866 25.5945 2.97644 25.0943 2.97644C24.594 2.97644 24.1885 3.37866 24.1885 3.87481C24.1885 4.37097 24.594 4.77319 25.0943 4.77319Z" stroke="#3A3847"/>
<path d="M13.5002 10.7923C17.1234 10.7923 20.4749 11.1516 23.6451 11.7805C23.6451 9.80406 23.9169 7.10894 24.8227 4.68334C24.6415 4.5935 24.5509 4.5935 24.4604 4.50366C23.1922 5.58171 22.7393 7.10894 21.743 8.27683C20.4749 9.71423 19.0256 7.64797 18.3009 2.88659C18.2104 2.88659 18.2104 2.88659 18.1198 2.88659C17.4857 4.05448 14.7683 8.99553 13.4096 8.99553C12.0509 8.99553 9.33354 4.05448 8.69948 2.79675C8.6089 2.79675 8.6089 2.79675 8.51832 2.79675C7.88426 7.64797 6.43498 9.71423 5.16687 8.27683C4.17049 7.10894 3.80817 5.67155 2.44947 4.50366C2.35889 4.5935 2.26831 4.5935 2.17773 4.68334C3.08353 7.10894 3.35527 9.80406 3.35527 11.7805C6.52556 11.1516 9.87702 10.7923 13.5002 10.7923Z" stroke="#3A3847" stroke-miterlimit="10"/>
</svg>
