<svg width="15" height="11" viewBox="0 0 15 11" fill="none" xmlns="http://www.w3.org/2000/svg">
<path d="M13.8443 8.55488L7.42143 4.37189V3.40036C8.23104 3.26543 8.85174 2.56376 8.85174 1.70018C8.85174 0.755636 8.0961 0 7.15156 0C6.20701 0 5.45137 0.755636 5.45137 1.70018C5.45137 1.8621 5.55932 1.97005 5.72124 1.97005C5.88317 1.97005 5.99111 1.8621 5.99111 1.70018C5.99111 1.05249 6.50387 0.53974 7.15156 0.53974C7.79924 0.53974 8.312 1.05249 8.312 1.70018C8.312 2.34787 7.79924 2.86062 7.15156 2.86062C6.98963 2.86062 6.88169 2.96857 6.88169 3.13049V4.37189L0.431792 8.58186C0.161922 8.77077 0 9.06763 0 9.39148C0 9.90423 0.377818 10.309 0.863584 10.336H13.4125C13.8983 10.309 14.3031 9.90423 14.3031 9.39148C14.3031 9.04064 14.1142 8.74379 13.8443 8.55488ZM13.3316 9.82327H0.971532C0.728649 9.82327 0.53974 9.63436 0.53974 9.39148C0.53974 9.25654 0.620701 9.1216 0.728649 9.04064L7.15156 4.83067L13.5475 8.98667C13.6824 9.06763 13.7904 9.20257 13.7904 9.36449C13.7634 9.63436 13.5745 9.82327 13.3316 9.82327Z" fill="black"/>
</svg>
