<svg width="13" height="13" viewBox="0 0 13 13" fill="none" xmlns="http://www.w3.org/2000/svg">
<path d="M4.7547 2.20587H12.2618" stroke="black" stroke-width="0.85" stroke-miterlimit="10" stroke-linecap="round"/>
<path d="M1 2.20587H2.60866" stroke="black" stroke-width="0.85" stroke-miterlimit="10" stroke-linecap="round"/>
<path d="M3.6809 3.41299C4.27319 3.41299 4.75334 2.87283 4.75334 2.2065C4.75334 1.54017 4.27319 1 3.6809 1C3.08861 1 2.60846 1.54017 2.60846 2.2065C2.60846 2.87283 3.08861 3.41299 3.6809 3.41299Z" stroke="black" stroke-width="0.85" stroke-miterlimit="10" stroke-linecap="round"/>
<path d="M11.1879 6.73083H12.2603" stroke="black" stroke-width="0.85" stroke-miterlimit="10" stroke-linecap="round"/>
<path d="M1 6.73157H9.04331" stroke="black" stroke-width="0.85" stroke-miterlimit="10" stroke-linecap="round"/>
<path d="M10.1165 7.93796C10.7088 7.93796 11.189 7.39779 11.189 6.73146C11.189 6.06513 10.7088 5.52496 10.1165 5.52496C9.52422 5.52496 9.04407 6.06513 9.04407 6.73146C9.04407 7.39779 9.52422 7.93796 10.1165 7.93796Z" stroke="black" stroke-width="0.85" stroke-miterlimit="10" stroke-linecap="round"/>
<path d="M6.89856 11.2559H12.2608" stroke="black" stroke-width="0.85" stroke-miterlimit="10" stroke-linecap="round"/>
<path d="M1 11.2559H4.75354" stroke="black" stroke-width="0.85" stroke-miterlimit="10" stroke-linecap="round"/>
<path d="M5.82714 12.46C6.41943 12.46 6.89958 11.9198 6.89958 11.2535C6.89958 10.5872 6.41943 10.047 5.82714 10.047C5.23485 10.047 4.7547 10.5872 4.7547 11.2535C4.7547 11.9198 5.23485 12.46 5.82714 12.46Z" stroke="black" stroke-width="0.85" stroke-miterlimit="10" stroke-linecap="round"/>
</svg>
