<svg width="21" height="20" viewBox="0 0 21 20" fill="none" xmlns="http://www.w3.org/2000/svg">
<path d="M10.2803 1C5.17341 1 1 4.54462 1 8.92C1 11.0246 1.98844 12.9631 3.58092 14.4031C3.80058 14.5692 3.85549 14.8462 3.80058 15.1231L2.70231 18.6123L7.53468 16.6185C7.69942 16.5631 7.86416 16.5631 8.0289 16.5631C8.74277 16.7292 9.51156 16.84 10.3353 16.84C15.4422 16.84 19.6156 13.2954 19.6156 8.97538C19.5607 4.54462 15.3873 1 10.2803 1Z" stroke="#414042" stroke-width="1.25" stroke-miterlimit="10" stroke-linecap="round" stroke-linejoin="round"/>
<path d="M8.96428 10.8596L6.65792 5.09961L4.35156 10.8596" stroke="#414042" stroke-width="1.25" stroke-miterlimit="10" stroke-linecap="round" stroke-linejoin="round"/>
<path d="M8.14058 8.75517H5.17526" stroke="#414042" stroke-width="1.25" stroke-miterlimit="10" stroke-linecap="round" stroke-linejoin="round"/>
<path d="M10.8861 8.6996H16.2127" stroke="#414042" stroke-width="1.25" stroke-miterlimit="10" stroke-linecap="round" stroke-linejoin="round"/>
<path d="M15.1147 8.6996C15.1147 8.6996 14.4009 11.9673 10.9963 13.2411" stroke="#414042" stroke-width="1.25" stroke-miterlimit="10" stroke-linecap="round" stroke-linejoin="round"/>
<path d="M11.9292 9.9731C11.9292 9.9731 13.1373 12.2993 15.4437 13.1854" stroke="#414042" stroke-width="1.25" stroke-miterlimit="10" stroke-linecap="round" stroke-linejoin="round"/>
<path d="M13.5766 7.25943V8.69943" stroke="#414042" stroke-width="1.25" stroke-miterlimit="10" stroke-linecap="round" stroke-linejoin="round"/>
</svg>
