<svg width="13" height="15" viewBox="0 0 13 15" fill="none" xmlns="http://www.w3.org/2000/svg">
<path d="M6.39588 8.74028C6.22246 8.74028 6.08373 8.87902 6.01436 9.01776C5.94499 9.1565 5.91029 9.29524 5.87561 9.43398C5.73687 10.0236 5.63282 10.6479 5.52876 11.2376C5.39002 12.0006 5.25129 12.7984 5.11255 13.5615C5.04318 13.9777 4.66165 14.2205 4.24543 14.1511C3.8639 14.0817 3.58642 13.7002 3.6211 13.284C3.72515 12.6597 3.82922 12.0353 3.93327 11.411C4.17606 10.0583 4.41886 8.74028 4.62697 7.38757C4.69634 6.90199 4.7657 6.38172 4.7657 5.89613C4.7657 5.30649 4.48822 5.02901 3.89858 5.02901C2.9621 5.02901 2.02561 5.02901 1.08912 5.02901C1.01975 5.02901 0.950376 5.02901 0.881007 5.02901C0.499475 4.92496 0.256688 4.57811 0.291372 4.19658C0.326057 3.81505 0.672898 3.53757 1.05443 3.53757C2.82335 3.53757 4.59228 3.53757 6.3612 3.53757C8.13013 3.53757 9.89904 3.53757 11.668 3.53757C12.0495 3.53757 12.3963 3.81505 12.431 4.19658C12.4657 4.57811 12.2229 4.95964 11.8414 5.02901C11.772 5.02901 11.7026 5.02901 11.6333 5.02901C10.6968 5.02901 9.7603 5.02901 8.82381 5.02901C8.23417 5.02901 7.92201 5.30649 7.95669 5.89613C7.95669 6.38172 8.02607 6.90199 8.09544 7.38757C8.30355 8.74028 8.58103 10.0583 8.78914 11.411C8.89319 12.0353 8.99724 12.6597 9.1013 13.284C9.17067 13.7002 8.89318 14.0817 8.47696 14.1511C8.06075 14.2205 7.67922 13.9777 7.60985 13.5615C7.47111 12.7984 7.33237 12.0006 7.19363 11.2376C7.08958 10.6479 6.98553 10.0236 6.84679 9.43398C6.8121 9.29524 6.77742 9.1565 6.70805 9.01776C6.70805 8.87902 6.5693 8.74028 6.39588 8.74028Z" fill="white"/>
<path d="M6.36153 0C7.19396 0 7.88765 0.659011 7.88765 1.49145C7.88765 2.35856 7.22864 3.01757 6.36153 3.01757C5.52909 3.01757 4.83539 2.35856 4.83539 1.52613C4.87007 0.659011 5.52909 0 6.36153 0Z" fill="white"/>
</svg>
