<svg width="12" height="12" viewBox="0 0 12 12" fill="none" xmlns="http://www.w3.org/2000/svg">
<path d="M6 0C2.6915 0 0 2.69171 0 6.00025C0.000278479 9.30846 2.69189 12 6 12C9.30839 12 12 9.30852 12 6.0002C11.9999 2.69171 9.30839 0 6 0ZM6 0.835449C7.22648 0.835449 8.35421 1.26548 9.24105 1.98235L1.98238 9.24107C1.26563 8.35427 0.835549 7.22658 0.835437 6.0002C0.835437 3.15237 3.15227 0.835449 6 0.835449ZM6 11.1646C4.67901 11.1646 3.47247 10.6657 2.55817 9.84688L9.8468 2.55815C10.6657 3.47246 11.1645 4.67913 11.1645 6.00025C11.1645 8.84785 8.84767 11.1646 6 11.1646Z" fill="black"/>
</svg>
