<svg width="96" height="97" viewBox="0 0 96 97" fill="none" xmlns="http://www.w3.org/2000/svg">
<rect x="1" y="1" width="94" height="95" rx="20" fill="#4E37D3" stroke="#2A2B2F" stroke-width="1.5"/>
<path d="M68.4341 68.9485L63.894 68.9428L55.7731 68.9323C55.7809 68.8017 55.7728 68.6725 55.7731 68.5402V55.7446H41.7506V68.5223C41.7502 68.6549 41.7431 68.7841 41.7506 68.9143L33.6124 68.9038L29.0723 68.898C24.168 68.8916 20.1867 72.8626 20.1806 77.767L20.1572 96.0349H77.28L77.3034 77.8402C77.3095 72.9359 73.3388 68.9546 68.4341 68.9485Z" fill="#00FFB9"/>
<path d="M41.084 56.4873H55.1065V69.9683C55.1065 73.8407 51.9673 76.9795 48.0953 76.9795C44.2229 76.9795 41.084 73.8403 41.084 69.9683V56.4873Z" fill="#FF9F70"/>
<path d="M48.0958 77.6578C43.8558 77.6578 40.4062 74.2083 40.4062 69.9683V56.4873C40.4062 56.1129 40.7101 55.8091 41.0845 55.8091H55.107C55.4814 55.8091 55.7853 56.1129 55.7853 56.4873V69.9683C55.7853 74.2083 52.3357 77.6578 48.0958 77.6578ZM41.7627 57.1656V69.9683C41.7627 73.4602 44.6039 76.3013 48.0958 76.3013C51.5877 76.3013 54.4288 73.4605 54.4288 69.9683V57.1656H41.7627Z" fill="#2A2B2F"/>
<path d="M61.3405 24.2058V23.6567C61.3405 21.3555 59.9413 19.3808 57.9473 18.5374C55.6741 17.576 53.4658 16.4688 51.4477 15.0482L48.0864 12.6822V12.6768L48.0823 12.6798L48.0779 12.6768V12.6825L44.7165 15.0486C42.6985 16.4691 40.4898 17.5763 38.217 18.5377C36.223 19.3811 34.8238 21.3555 34.8238 23.6571V24.2061C31.5842 24.2061 29.0313 26.9669 29.285 30.197L30.2311 42.2492H48.0779H48.086H65.9328L66.8789 30.197C67.1326 26.9665 64.5801 24.2058 61.3405 24.2058Z" fill="#FCC24C"/>
<path d="M61.3402 24.2054V23.6564C61.3402 21.3551 59.941 19.3804 57.947 18.537C55.6738 17.5756 53.4655 16.4684 51.4474 15.0478L48.0908 12.6855C49.4002 15.3707 52.6089 17.577 54.8789 18.537C56.873 19.3804 58.2722 21.3548 58.2722 23.6564C58.2722 23.9555 58.5011 24.202 58.7988 24.2298C61.7837 24.5096 64.0507 27.1432 63.811 30.1959L62.8648 42.2482H65.9325L66.8786 30.1959C67.1323 26.9662 64.5798 24.2054 61.3402 24.2054Z" fill="#DEA42E"/>
<path d="M34.8235 24.2054V23.6564C34.8235 21.3551 36.2227 19.3804 38.2167 18.537C40.4898 17.5756 42.6981 16.4684 44.7162 15.0478L48.0728 12.6855C46.7635 15.3707 43.5547 17.577 41.2847 18.537C39.2907 19.3804 37.8915 21.3548 37.8915 23.6564C37.8915 23.9555 37.6626 24.202 37.3651 24.2298C34.3802 24.5096 32.1132 27.1432 32.353 30.1959L33.2991 42.2482H30.2311L29.285 30.1959C29.0313 26.9662 31.5839 24.2054 34.8235 24.2054Z" fill="#FCE06A"/>
<path d="M67.7675 68.6916L64.6523 68.6875C69.557 68.6939 73.5277 72.6749 73.5213 77.5792L73.4982 95.778H76.6134L76.6368 77.5832C76.6429 72.6789 72.6722 68.6977 67.7675 68.6916Z" fill="#00F1A5"/>
<path d="M28.4063 68.6411L31.5214 68.6452C26.6171 68.6387 22.6362 72.6098 22.6298 77.5141L22.6064 95.778H19.4912L19.5146 77.5101C19.5207 72.6058 23.5016 68.635 28.4063 68.6411Z" fill="#00F1A5"/>
<path d="M76.6132 96.4562H19.4907C19.3107 96.4562 19.1381 96.3846 19.0109 96.2571C18.8837 96.13 18.8125 95.957 18.8125 95.7769L18.8359 77.509C18.839 74.9558 19.8363 72.5565 21.6441 70.7537C23.4489 68.9537 25.8455 67.9628 28.3939 67.9628H28.4065L40.4058 67.9781V55.4873C40.4058 55.1129 40.7097 54.8091 41.0841 54.8091H55.1066C55.481 54.8091 55.7849 55.1129 55.7849 55.4873V67.9977L67.7686 68.013C70.3218 68.0164 72.7211 69.0137 74.5238 70.8212C76.3269 72.6287 77.3182 75.0304 77.3148 77.5836L77.2914 95.7783C77.2911 96.153 76.9875 96.4562 76.6132 96.4562ZM20.17 95.0997H75.9359L75.9583 77.5822C75.961 75.3915 75.1105 73.3304 73.5635 71.7796C72.0164 70.2284 69.9576 69.3725 67.7669 69.3698L55.1059 69.3535C54.9191 69.3535 54.7407 69.2759 54.6129 69.1402C54.485 69.0046 54.4186 68.8214 54.4297 68.6349C54.4338 68.5671 54.4318 68.4996 54.4304 68.4315L54.4287 68.2826V56.1662H41.7623L41.7606 68.4077C41.7593 68.4786 41.7572 68.5488 41.7613 68.6193C41.7722 68.8058 41.7054 68.9883 41.5772 69.1239C41.449 69.2596 41.2709 69.3362 41.0844 69.3362C41.0841 69.3362 41.0841 69.3362 41.0837 69.3362L28.4055 69.3199C28.4021 69.3199 28.398 69.3199 28.3946 69.3199C26.2077 69.3199 24.1512 70.1701 22.6025 71.7148C21.0514 73.2619 20.1958 75.3206 20.1931 77.5113L20.17 95.0997Z" fill="#2A2B2F"/>
<path d="M65.9332 42.9269H30.2315C29.8774 42.9269 29.5831 42.6546 29.5553 42.3019L28.6088 30.2497C28.4732 28.5222 29.07 26.8018 30.2461 25.5295C31.2682 24.4243 32.6616 23.7281 34.1459 23.565C34.1819 21.0911 35.6682 18.8794 37.9529 17.9129C40.5434 16.8172 42.5686 15.7306 44.3263 14.4935L47.6445 12.158C47.6801 12.1282 47.7188 12.1021 47.7608 12.08C47.8809 12.0166 48.0155 11.9905 48.1447 12.0031C48.2312 12.0105 48.3163 12.0346 48.3957 12.0756C48.4418 12.0994 48.4842 12.1279 48.5228 12.1604L51.8381 14.4935C53.5957 15.7306 55.6209 16.8172 58.2115 17.9129C60.4958 18.879 61.9818 21.0907 62.0181 23.5646C63.5024 23.7281 64.8962 24.4239 65.9179 25.5295C67.094 26.8015 67.6912 28.5222 67.5552 30.2493L66.6087 42.3016C66.5816 42.6546 66.2872 42.9269 65.9332 42.9269ZM30.8585 41.5704H65.3061L66.2034 30.1432C66.311 28.7718 65.8562 27.4604 64.9223 26.4502C63.9883 25.4399 62.7163 24.8838 61.3405 24.8838C60.9661 24.8838 60.6623 24.5799 60.6623 24.2056V23.6565C60.6623 21.6917 59.493 19.9272 57.6831 19.1622C55.001 18.0278 52.8958 16.8969 51.0574 15.6028L48.082 13.5087L45.1069 15.6028C43.2685 16.8965 41.1633 18.0275 38.4812 19.1618C36.6713 19.9272 35.5017 21.6913 35.5017 23.6565V24.2056C35.5017 24.5799 35.1979 24.8838 34.8235 24.8838C33.4477 24.8838 32.176 25.4403 31.2421 26.4502C30.3085 27.4604 29.8534 28.7718 29.9609 30.1432L30.8585 41.5704Z" fill="#222222"/>
<path d="M32.937 39.8125H31.8559C29.0612 39.8125 26.7959 42.0778 26.7959 44.8725C26.7959 47.6672 29.0612 49.9325 31.8559 49.9325H32.937V39.8125Z" fill="#FFBD8E"/>
<path d="M64.2999 39.8125H63.2188V49.9321H64.2999C67.0942 49.9321 69.3595 47.6668 69.3595 44.8721C69.3595 42.0782 67.0945 39.8125 64.2999 39.8125Z" fill="#E18152"/>
<path d="M48.0775 65.5341C39.7152 65.5341 32.9365 58.6673 32.9365 50.1965V39.5784C32.9365 31.1075 39.7152 24.2407 48.0775 24.2407C56.4398 24.2407 63.2184 31.1075 63.2184 39.5784V50.1965C63.2184 58.6673 56.4398 65.5341 48.0775 65.5341Z" fill="#FF9F70"/>
<path d="M48.0778 24.2407C47.4955 24.2407 46.9224 24.2773 46.3574 24.3421C53.9089 25.2079 59.7777 31.6973 59.7777 39.5784V50.1965C59.7777 58.0776 53.9089 64.567 46.3574 65.4327C46.9224 65.4975 47.4958 65.5341 48.0778 65.5341C56.4401 65.5341 63.2187 58.6673 63.2187 50.1965V39.5784C63.2187 31.1075 56.4401 24.2407 48.0778 24.2407Z" fill="#E18152"/>
<path d="M48.0775 24.2407C48.6597 24.2407 49.2332 24.2773 49.7982 24.3421C42.2467 25.2079 36.3779 31.6973 36.3779 39.5784V50.1965C36.3779 58.0776 42.2467 64.567 49.7982 65.4327C49.2332 65.4975 48.6597 65.5341 48.0775 65.5341C39.7152 65.5341 32.9365 58.6673 32.9365 50.1965V39.5784C32.9365 31.1075 39.7155 24.2407 48.0775 24.2407Z" fill="#FFBD8E"/>
<path d="M48.078 66.2124C39.3552 66.2124 32.2588 59.0278 32.2588 50.1965V39.5784C32.2588 30.7471 39.3552 23.5625 48.078 23.5625C56.8008 23.5625 63.8972 30.7474 63.8972 39.5784V50.1968C63.8972 59.0278 56.8008 66.2124 48.078 66.2124ZM48.078 24.919C40.1029 24.919 33.6153 31.4952 33.6153 39.5784V50.1968C33.6153 58.2801 40.1033 64.8562 48.078 64.8562C56.0527 64.8562 62.5407 58.2801 62.5407 50.1968V39.5784C62.5407 31.4952 56.053 24.919 48.078 24.919Z" fill="#222222"/>
<path d="M32.9372 50.6105H31.856C28.6921 50.6105 26.1182 48.0366 26.1182 44.8726C26.1182 41.7087 28.6921 39.1348 31.856 39.1348H32.9372C33.3115 39.1348 33.6154 39.4386 33.6154 39.813V49.9326C33.6154 50.307 33.3119 50.6105 32.9372 50.6105ZM31.8564 40.4912C29.4402 40.4912 27.475 42.4568 27.475 44.8726C27.475 47.2885 29.4405 49.2541 31.8564 49.2541H32.2593V40.4912H31.8564Z" fill="#222222"/>
<path d="M64.2994 50.6105H63.2183C62.8439 50.6105 62.54 50.3067 62.54 49.9323V39.813C62.54 39.4386 62.8439 39.1348 63.2183 39.1348H64.2994C67.4634 39.1348 70.0373 41.7087 70.0373 44.8726C70.0373 48.0366 67.4634 50.6105 64.2994 50.6105ZM63.8965 49.2541H64.2994C66.7153 49.2541 68.6808 47.2885 68.6808 44.8726C68.6808 42.4568 66.7153 40.4912 64.2994 40.4912H63.8965V49.2541Z" fill="#222222"/>
<path d="M64.4999 88.0974L61.7189 89.5594L62.2499 86.4626L60 84.2694L63.1094 83.8175L64.4999 81L65.8906 83.8175L69 84.2694L66.7501 86.4626L67.2811 89.5594L64.4999 88.0974Z" fill="#FCC24C"/>
</svg>
