<svg width="23" height="19" viewBox="0 0 23 19" fill="none" xmlns="http://www.w3.org/2000/svg">
<path d="M14.687 8.87305H7.81723" stroke="black" stroke-width="1.25" stroke-miterlimit="10" stroke-linecap="round" stroke-linejoin="round"/>
<path d="M4.85763 8.8727H1.63413C1.31707 8.8727 1 8.60848 1 8.23857V3.64112C1 3.32405 1.26422 3.00699 1.63413 3.00699H20.8694C21.1865 3.00699 21.5036 3.27121 21.5036 3.64112V8.23857C21.5036 8.55564 21.2393 8.8727 20.8694 8.8727H17.6459" stroke="black" stroke-width="1.25" stroke-miterlimit="10" stroke-linecap="round" stroke-linejoin="round"/>
<path d="M14.687 8.87305H7.81723" stroke="black" stroke-width="1.25" stroke-miterlimit="10" stroke-linecap="round" stroke-linejoin="round"/>
<path d="M4.85887 8.87305H1.74106V16.9582C1.74106 17.381 2.05812 17.698 2.48088 17.698H19.9723C20.3951 17.698 20.7121 17.381 20.7121 16.9582V8.87305H17.5943" stroke="black" stroke-width="1.25" stroke-miterlimit="10" stroke-linecap="round" stroke-linejoin="round"/>
<path d="M7.23624 10.9323H5.43953C5.12247 10.9323 4.85825 10.6681 4.85825 10.351V7.44457C4.85825 7.1275 5.12247 6.86328 5.43953 6.86328H7.23624C7.5533 6.86328 7.81752 7.1275 7.81752 7.44457V10.351C7.81752 10.7209 7.5533 10.9323 7.23624 10.9323Z" stroke="black" stroke-width="1.25" stroke-miterlimit="10" stroke-linecap="round" stroke-linejoin="round"/>
<path d="M17.5946 8.87516V10.4076C17.5946 10.7247 17.3303 10.9889 17.0133 10.9889H15.2166C14.8995 10.9889 14.6353 10.7247 14.6353 10.4076V7.50121C14.6353 7.18414 14.8995 6.91992 15.2166 6.91992H17.0133C17.3303 6.91992 17.5946 7.18414 17.5946 7.50121V8.87516Z" stroke="black" stroke-width="1.25" stroke-miterlimit="10" stroke-linecap="round" stroke-linejoin="round"/>
<path d="M14.5281 3.06093V2.42679C14.5281 1.63413 13.894 1 13.1013 1H9.40223C8.60956 1 7.97543 1.63413 7.97543 2.42679V3.00808H14.5281V3.06093Z" stroke="black" stroke-width="1.25" stroke-miterlimit="10" stroke-linecap="round" stroke-linejoin="round"/>
</svg>
