<svg width="25" height="25" viewBox="0 0 25 25" fill="none" xmlns="http://www.w3.org/2000/svg">
<path d="M22.1843 12.7754C21.6517 7.86394 17.4504 4.01764 12.3614 4.01764C7.27245 4.01764 3.13027 7.86394 2.53852 12.7754C1.71009 12.7754 1 13.4855 1 14.3139C1 15.2015 1.71009 15.8524 2.53852 15.8524C2.5977 15.8524 2.5977 15.8524 2.65687 15.8524C3.54448 20.3497 7.56832 23.7818 12.3614 23.7818C17.1545 23.7818 21.1192 20.4088 22.066 15.8524C22.1251 15.8524 22.1251 15.8524 22.1843 15.8524C23.0719 15.8524 23.7228 15.1424 23.7228 14.3139C23.7228 13.4855 23.0719 12.7754 22.1843 12.7754Z" stroke="black" stroke-width="1.25" stroke-miterlimit="10" stroke-linecap="round" stroke-linejoin="round"/>
<path d="M9.28425 13.3084C10.1719 13.3084 10.1719 11.8882 9.28425 11.8882C8.33746 11.8882 8.33746 13.3084 9.28425 13.3084Z" fill="black"/>
<path d="M15.4976 13.3084C16.3853 13.3084 16.3853 11.8882 15.4976 11.8882C14.61 11.8882 14.61 13.3084 15.4976 13.3084Z" fill="black"/>
<path d="M13.9591 1C15.3793 1.59174 16.4444 3.0711 16.4444 4.72797C16.4444 6.97659 14.61 8.7518 12.4206 8.7518C10.2311 8.7518 8.45593 7.03575 8.39675 4.90549" stroke="black" stroke-width="1.25" stroke-miterlimit="10" stroke-linecap="round" stroke-linejoin="round"/>
<path d="M9.40283 16.8585C9.9354 17.9828 11.1189 18.7521 12.4207 18.7521C13.7225 18.7521 14.906 17.9828 15.4386 16.8585" stroke="black" stroke-width="1.25" stroke-miterlimit="10" stroke-linecap="round" stroke-linejoin="round"/>
</svg>
