<svg width="18" height="23" viewBox="0 0 18 23" fill="none" xmlns="http://www.w3.org/2000/svg">
<path d="M17.6322 22.2548H16.2C14.5226 20.8044 12.0605 19.95 9.36785 19.8755V17.675L11.0599 15.9612C11.3689 16.0208 11.6828 16.0506 11.9967 16.0506C13.4436 16.0506 14.9003 15.4446 15.9842 14.3469C17.3526 12.961 17.951 10.9691 17.539 9.15601C17.5095 9.01693 17.4016 8.90764 17.2643 8.87784C15.4692 8.46059 13.5074 9.0666 12.139 10.4525C10.8196 11.7887 10.2213 13.6812 10.545 15.4397L9.36785 16.6219V9.75209L10.4714 8.63444C10.6872 8.66921 10.903 8.68908 11.1188 8.68908C12.1978 8.68908 13.2817 8.23706 14.0861 7.42242C15.1063 6.38921 15.5477 4.90895 15.2436 3.55288C15.2142 3.41379 15.1063 3.30451 14.9689 3.27471C13.63 2.96673 12.1684 3.41379 11.1482 4.44699C10.182 5.42556 9.73079 6.81144 9.9515 8.11287L9.36785 8.69902V7.97876C9.36785 6.82634 8.93134 5.74843 8.13188 4.92882C8.35259 3.63235 7.90136 2.24647 6.93515 1.26791C5.91499 0.234708 4.45341 -0.21235 3.11935 0.0956234C2.98202 0.125427 2.87411 0.234708 2.84469 0.373793C2.5406 1.72987 2.98202 3.21013 4.00218 4.24333C4.80163 5.06294 5.88556 5.51497 6.96458 5.51497C7.18038 5.51497 7.39618 5.4951 7.61199 5.46033C8.26921 6.13588 8.63215 7.03 8.63215 7.98372V13.4478L7.45995 12.2606C7.78365 10.5022 7.18038 8.6096 5.86594 7.2734C4.49755 5.88751 2.53079 5.2815 0.740599 5.69876C0.60327 5.72856 0.495368 5.83784 0.46594 5.97693C0.053951 7.79497 0.652316 9.78189 2.02071 11.1678C3.10463 12.2656 4.56131 12.8716 6.00817 12.8716C6.32207 12.8716 6.63597 12.8418 6.94496 12.7822L8.63706 14.4959V19.8755C5.94441 19.945 3.48229 20.8044 1.8049 22.2548H0.367847C0.166758 22.2548 0 22.4237 0 22.6274C0 22.831 0.166758 22.9999 0.367847 22.9999H17.6322C17.8332 22.9999 18 22.831 18 22.6274C18 22.4237 17.8332 22.2548 17.6322 22.2548ZM12.6589 10.974C13.7918 9.8266 15.3858 9.2951 16.8719 9.5534C17.127 11.0585 16.6022 12.6729 15.4692 13.8203C14.454 14.8486 13.0708 15.3801 11.7221 15.2956L15.1553 11.8185C15.2975 11.6744 15.2975 11.436 15.1553 11.292C15.0131 11.1479 14.7777 11.1479 14.6354 11.292L11.2022 14.7691C11.1139 13.4031 11.6436 12.0023 12.6589 10.974ZM11.6681 4.97353C12.448 4.18373 13.5417 3.80621 14.5717 3.95523C14.7237 4.9934 14.351 6.10111 13.5662 6.89588C12.909 7.5615 12.0262 7.93405 11.1531 7.94398L13.267 5.80307C13.4093 5.65902 13.4093 5.42059 13.267 5.27654C13.1248 5.13248 12.8894 5.13248 12.7471 5.27654L10.6283 7.42242C10.6381 6.53327 11.006 5.63915 11.6681 4.97353ZM3.51172 0.781113C4.53678 0.627126 5.63052 1.00464 6.41526 1.79941C7.07248 2.46503 7.44033 3.35915 7.45014 4.24333L5.33624 2.10242C5.19401 1.95837 4.95858 1.95837 4.81635 2.10242C4.67411 2.24647 4.67411 2.4849 4.81635 2.62896L6.93515 4.76987C6.05722 4.75993 5.17929 4.38739 4.51717 3.72177C3.73242 2.92699 3.36458 1.81928 3.51172 0.781113ZM2.53569 10.6412C1.40272 9.49379 0.877929 7.87941 1.13297 6.37431C2.61907 6.11601 4.21308 6.64751 5.34605 7.79496C6.36131 8.8232 6.8861 10.224 6.80272 11.59L3.36948 8.11287C3.22725 7.96882 2.99183 7.96882 2.84959 8.11287C2.70736 8.25693 2.70736 8.49536 2.84959 8.63941L6.28283 12.1165C4.93406 12.201 3.55095 11.6695 2.53569 10.6412ZM9 20.6156C11.2414 20.6156 13.3896 21.2167 14.9689 22.2548H3.03106C4.61035 21.2167 6.75858 20.6156 9 20.6156Z" fill="black"/>
</svg>
