<svg width="21" height="15" viewBox="0 0 21 15" fill="none" xmlns="http://www.w3.org/2000/svg">
<path d="M10.5 4.63641C8.9202 4.63641 7.63635 5.92026 7.63635 7.50004C7.63635 9.07983 8.9202 10.3637 10.5 10.3637C12.0798 10.3637 13.3636 9.07983 13.3636 7.50004C13.3636 5.92026 12.0797 4.63641 10.5 4.63641Z" fill="white"/>
<path d="M10.5 0.340942C5.72728 0.340942 1.65138 3.30955 0 7.50004C1.65138 11.6905 5.72728 14.6591 10.5 14.6591C15.2775 14.6591 19.3487 11.6905 21 7.50004C19.3487 3.30955 15.2775 0.340942 10.5 0.340942ZM10.5 12.2727C7.86548 12.2727 5.72728 10.1345 5.72728 7.49999C5.72728 4.86545 7.86548 2.72729 10.5 2.72729C13.1346 2.72729 15.2728 4.86549 15.2728 7.50004C15.2728 10.1346 13.1346 12.2727 10.5 12.2727Z" fill="white"/>
</svg>
