<svg width="25" height="24" viewBox="0 0 25 24" fill="none" xmlns="http://www.w3.org/2000/svg">
<path d="M22.1894 2.12096H19.9561V0.438535C19.9561 0.196322 19.7598 -6.10352e-05 19.5175 -6.10352e-05C19.2753 -6.10352e-05 19.0789 0.196322 19.0789 0.438535V2.12096H6.19518V0.438535C6.19518 0.196322 5.99879 -6.10352e-05 5.75658 -6.10352e-05C5.51437 -6.10352e-05 5.31798 0.196322 5.31798 0.438535V2.12096H2.81062C1.26011 2.12054 0.00235575 3.37615 0 4.92644V20.9496C0 22.4992 1.26096 23.7767 2.81062 23.7767H22.1894C23.739 23.7767 25 22.4992 25 20.9496V4.92644C24.9976 3.37615 23.7399 2.12054 22.1894 2.12096ZM24.1228 20.9496C24.1228 22.0152 23.255 22.8995 22.1894 22.8995H2.81062C1.74496 22.8995 0.877193 22.0152 0.877193 20.9496V7.98719H24.1228V20.9496ZM0.877193 7.11V4.92644C0.87912 3.86036 1.74432 2.9973 2.81062 2.99816H5.31798V4.67202C5.31798 4.91423 5.51437 5.11062 5.75658 5.11062C5.99879 5.11062 6.19518 4.91423 6.19518 4.67202V2.99816H19.0789V4.67202C19.0789 4.91423 19.2753 5.11062 19.5175 5.11062C19.7598 5.11062 19.9561 4.91423 19.9561 4.67202V2.99816H22.1894C23.2557 2.9973 24.1209 3.86036 24.1228 4.92644V7.11H0.877193Z" fill="black"/>
<path d="M9.49165 18.9691H10.9832V19.255C10.9832 20.1262 11.6627 20.8327 12.5008 20.8327C13.3388 20.8327 14.0184 20.1262 14.0184 19.255V18.9691H15.5099C16.0829 18.975 16.572 18.5401 16.6552 17.9508C16.7384 17.3615 16.39 16.7989 15.8395 16.6334V14.3289C15.8405 12.9944 14.8629 11.8794 13.5848 11.7565V11.5221C13.5848 10.9122 13.0875 10.416 12.5008 10.416C11.9141 10.416 11.4168 10.9122 11.4168 11.5221V11.7565C10.1387 11.8794 9.16103 12.9944 9.16205 14.3289V16.6334C8.61158 16.7989 8.26318 17.3615 8.34634 17.9508C8.4295 18.5401 8.91866 18.975 9.49165 18.9691ZM13.3246 19.255C13.3246 19.728 12.9557 20.1114 12.5008 20.1114C12.0458 20.1114 11.6769 19.728 11.6769 19.255V18.9691H13.3246V19.255ZM12.5008 11.1374C12.7049 11.1374 12.891 11.3099 12.891 11.5223V11.757H12.1105V11.5223C12.1105 11.3099 12.2967 11.1374 12.5008 11.1374ZM11.6502 12.4782H13.3514C14.3385 12.474 15.142 13.3028 15.1457 14.3289V16.5801H9.85581V14.3289C9.85954 13.3028 10.6631 12.474 11.6502 12.4782ZM9.49165 17.3013H15.5099C15.7614 17.3013 15.9652 17.5131 15.9652 17.7746C15.9652 18.0359 15.7614 18.2479 15.5099 18.2479H9.49165C9.24013 18.2479 9.03637 18.0359 9.03637 17.7746C9.03637 17.5131 9.24013 17.3013 9.49165 17.3013Z" fill="black"/>
</svg>
