<svg width="16" height="16" viewBox="0 0 16 16" fill="none" xmlns="http://www.w3.org/2000/svg">
<path d="M15.9998 7.31662C15.9998 6.19259 15.1835 5.25953 14.1115 5.07712C14.0128 5.06034 13.9351 4.98366 13.9168 4.88525C13.6854 3.64203 12.4745 2.82266 11.2285 3.07769C11.1356 3.09669 11.0397 3.05925 10.9856 2.98144C9.93363 1.46975 7.69801 1.46297 6.63979 2.97703C6.58648 3.05331 6.49263 3.09144 6.40129 3.07362C5.14973 2.82956 3.96048 3.66047 3.73241 4.88528C3.7141 4.98369 3.63641 5.06037 3.53776 5.07716C2.4657 5.25956 1.64941 6.19266 1.64941 7.31666C1.64941 8.44069 2.4657 9.37378 3.53776 9.55619C3.63641 9.57297 3.7141 9.64966 3.73241 9.74806C3.96032 10.9721 5.14888 11.804 6.40129 11.5597C6.49266 11.5419 6.58651 11.58 6.63979 11.6563C7.11835 12.341 7.91232 12.789 8.81107 12.789C9.71179 12.789 10.5074 12.3392 10.9856 11.6519C11.0397 11.5741 11.1356 11.5367 11.2285 11.5557C12.4724 11.8102 13.685 10.9933 13.9168 9.74809C13.9351 9.64969 14.0128 9.573 14.1115 9.55622C15.1835 9.37375 15.9998 8.44069 15.9998 7.31662Z" fill="white"/>
<path d="M10.421 11.7693C9.52225 11.7693 8.72828 11.3213 8.24972 10.6366C8.19641 10.5603 8.10257 10.5222 8.01122 10.54C6.75878 10.7843 5.57025 9.95241 5.34235 8.72838C5.32403 8.63 5.24635 8.55329 5.14769 8.5365C4.07566 8.35407 3.25938 7.421 3.25938 6.29697C3.25938 5.82591 3.40316 5.38866 3.64863 5.02588C3.61728 5.05157 3.57972 5.06988 3.53791 5.07697C2.46588 5.25938 1.6496 6.19247 1.6496 7.31647C1.6496 8.4405 2.46588 9.3736 3.53791 9.556C3.63657 9.57278 3.71425 9.64947 3.73257 9.74788C3.96047 10.9719 5.14903 11.8038 6.40144 11.5595C6.49282 11.5417 6.58663 11.5798 6.63994 11.6561C7.1185 12.3408 7.91247 12.7888 8.81122 12.7888C9.68232 12.7888 10.4551 12.368 10.9375 11.7186C10.7705 11.7518 10.5978 11.7693 10.421 11.7693Z" fill="white"/>
<path d="M3.40986 14.1548C4.06732 14.1548 4.6003 13.6218 4.6003 12.9644C4.6003 12.3069 4.06732 11.7739 3.40986 11.7739C2.7524 11.7739 2.21942 12.3069 2.21942 12.9644C2.21942 13.6218 2.7524 14.1548 3.40986 14.1548Z" fill="white"/>
<path d="M3.41051 12.9645C3.1902 12.5829 3.20545 12.1303 3.41061 11.7741C3.20823 11.7739 3.00314 11.825 2.81526 11.9335C2.24583 12.2622 2.05073 12.9903 2.37948 13.5598C2.70826 14.1292 3.43636 14.3243 4.0058 13.9955C4.19367 13.8871 4.34048 13.735 4.44145 13.5596C4.03042 13.5592 3.6308 13.3461 3.41051 12.9645Z" fill="white"/>
<path d="M0.595219 13.6017C0.923949 13.6017 1.19044 13.3352 1.19044 13.0064C1.19044 12.6777 0.923949 12.4112 0.595219 12.4112C0.266489 12.4112 0 12.6777 0 13.0064C0 13.3352 0.266489 13.6017 0.595219 13.6017Z" fill="white"/>
</svg>
