<svg width="18" height="20" viewBox="0 0 18 20" fill="none" xmlns="http://www.w3.org/2000/svg">
<g filter="url(#filter0_d)">
<path d="M9 0C6.51825 0 4.5 2.01825 4.5 4.5C4.5 7.61925 8.562 11.7172 8.7345 11.8905C8.808 11.9633 8.904 12 9 12C9.096 12 9.192 11.9633 9.2655 11.8905C9.438 11.7172 13.5 7.61925 13.5 4.5C13.5 2.01825 11.4818 0 9 0ZM9 6.75C7.7595 6.75 6.75 5.7405 6.75 4.5C6.75 3.2595 7.7595 2.25 9 2.25C10.2405 2.25 11.25 3.2595 11.25 4.5C11.25 5.7405 10.2405 6.75 9 6.75Z" fill="black"/>
<path d="M5 4.5C5 2.29439 6.79439 0.5 9 0.5C11.2056 0.5 13 2.29439 13 4.5C13 5.17821 12.7771 5.94372 12.4092 6.73568C12.0435 7.52288 11.5494 8.30482 11.0421 9.00727C10.1716 10.2126 9.28429 11.154 9 11.4472C8.71571 11.154 7.82837 10.2126 6.95791 9.00727C6.45064 8.30482 5.95654 7.52288 5.59084 6.73568C5.22293 5.94372 5 5.17821 5 4.5ZM6.25 4.5C6.25 6.01664 7.48336 7.25 9 7.25C10.5166 7.25 11.75 6.01664 11.75 4.5C11.75 2.98336 10.5166 1.75 9 1.75C7.48336 1.75 6.25 2.98336 6.25 4.5Z" stroke="black"/>
</g>
<defs>
<filter id="filter0_d" x="0.5" y="0" width="17" height="20" filterUnits="userSpaceOnUse" color-interpolation-filters="sRGB">
<feFlood flood-opacity="0" result="BackgroundImageFix"/>
<feColorMatrix in="SourceAlpha" type="matrix" values="0 0 0 0 0 0 0 0 0 0 0 0 0 0 0 0 0 0 127 0"/>
<feOffset dy="4"/>
<feGaussianBlur stdDeviation="2"/>
<feColorMatrix type="matrix" values="0 0 0 0 0 0 0 0 0 0 0 0 0 0 0 0 0 0 0.25 0"/>
<feBlend mode="normal" in2="BackgroundImageFix" result="effect1_dropShadow"/>
<feBlend mode="normal" in="SourceGraphic" in2="effect1_dropShadow" result="shape"/>
</filter>
</defs>
</svg>
