<svg width="13" height="13" viewBox="0 0 13 13" fill="none" xmlns="http://www.w3.org/2000/svg">
<path d="M2.26537 9.82835C2.26901 9.81694 2.27202 9.80535 2.27438 9.79361C2.32655 9.53408 2.28747 9.19941 2.00969 8.98295C0.960195 8.04289 0.325 6.79478 0.325 5.45618C0.325 2.67199 3.03881 0.325 6.48083 0.325C9.91892 0.325 12.6382 2.66929 12.675 5.49637C12.6737 8.2402 9.96193 10.5874 6.51917 10.5874C5.97295 10.5874 5.4608 10.5149 4.98129 10.4048C4.95743 10.3994 4.93303 10.3966 4.90856 10.3966C4.90425 10.3966 4.89984 10.3966 4.89535 10.3966C4.78744 10.3965 4.62675 10.3963 4.46111 10.4513C4.45429 10.4535 4.44755 10.456 4.4409 10.4587L1.70952 11.5705L2.26537 9.82835Z" stroke="black" stroke-width="0.65" stroke-miterlimit="10" stroke-linecap="round" stroke-linejoin="round"/>
</svg>
