<svg width="25" height="19" viewBox="0 0 25 19" fill="none" xmlns="http://www.w3.org/2000/svg">
<path d="M22.9489 17.4982H1.55645C1.24731 17.4982 1 17.2472 1 16.9336V1.56458C1 1.25092 1.24731 1 1.55645 1H23.0108C23.3199 1 23.5672 1.25092 23.5672 1.56458V16.9336C23.5054 17.2472 23.2581 17.4982 22.9489 17.4982Z" stroke="black" stroke-width="1.25" stroke-miterlimit="10" stroke-linecap="round" stroke-linejoin="round"/>
<path d="M23.5054 3.82288H1V8.21402H23.5054V3.82288Z" fill="black"/>
<path d="M20.1667 14.8004H18.4355C18.0027 14.8004 17.6936 14.4241 17.6936 14.0477V12.2912C17.6936 11.8521 18.0645 11.5385 18.4355 11.5385H20.1667C20.5995 11.5385 20.9086 11.9148 20.9086 12.2912V14.0477C20.9086 14.4868 20.5995 14.8004 20.1667 14.8004Z" stroke="black" stroke-width="1.25" stroke-miterlimit="10" stroke-linecap="round" stroke-linejoin="round"/>
</svg>
