<svg width="12" height="15" viewBox="0 0 12 15" fill="none" xmlns="http://www.w3.org/2000/svg">
<path d="M5.77462 14.5457C5.88459 14.4376 6.03088 14.292 6.20461 14.1154C6.60683 13.7064 7.15532 13.1316 7.7404 12.4679C8.91088 11.1403 10.1967 9.49165 10.7759 8.11417C10.7815 8.09306 10.7899 8.06824 10.8029 8.04192C10.8171 8.01306 10.8383 7.9797 10.8691 7.94807C10.9243 7.80383 10.9595 7.70024 10.9926 7.60029V7.60026V7.60019V7.60012V7.60005V7.59998V7.59991V7.59984V7.59976V7.59969V7.59962V7.59955V7.59947V7.5994V7.59932V7.59925V7.59917V7.59909V7.59901V7.59894V7.59886V7.59878V7.5987V7.59862V7.59854V7.59846V7.59837V7.59829V7.59821V7.59812V7.59804V7.59795V7.59787V7.59778V7.59769V7.59761V7.59752V7.59743V7.59734V7.59725V7.59716V7.59707V7.59698V7.59689V7.59679V7.5967V7.5966V7.59651V7.59641V7.59632V7.59622V7.59612V7.59603V7.59593V7.59583V7.59573V7.59563V7.59553V7.59542V7.59532V7.59522V7.59511V7.59501V7.59491V7.5948V7.59469V7.59459V7.59448V7.59437V7.59426V7.59415V7.59404V7.59393V7.59382V7.5937V7.59359V7.59348V7.59336V7.59325V7.59313V7.59301V7.5929V7.59278V7.59266V7.59254V7.59242V7.5923V7.59218V7.59206V7.59193V7.59181V7.59168V7.59156V7.59143V7.59131V7.59118V7.59105V7.59092V7.59079V7.59066V7.59053V7.5904V7.59027V7.59013V7.59V7.58987V7.58973V7.58959V7.58946V7.58932V7.58918V7.58904V7.5889V7.58876V7.58862V7.58848V7.58833V7.58819V7.58805V7.5879V7.58775V7.58761V7.58746V7.58731V7.58716V7.58701V7.58686V7.58671V7.58656V7.5864V7.58625V7.58609V7.58594V7.58578V7.58562V7.58547V7.58531V7.58515V7.58499V7.58483V7.58466V7.5845V7.58434V7.58417V7.58401V7.58384V7.58367V7.58351V7.58334V7.58317V7.583V7.58283V7.58265V7.58248V7.58231V7.58213V7.58196V7.58178V7.5816V7.58143V7.58125V7.58107V7.58089V7.5807V7.58052V7.58034V7.58015V7.57997V7.57978V7.5796V7.57941V7.57922V7.57903V7.57884V7.57865V7.57846V7.57826V7.57807V7.57788V7.57768V7.57748V7.57729V7.57709V7.57689V7.57669V7.57649V7.57628V7.57608V7.57588V7.57567V7.57547V7.57526V7.57505V7.57484V7.57463V7.57442V7.57421V7.574V7.57379V7.57357V7.57336V7.57314V7.57293V7.57271V7.57249V7.57227V7.57205V7.57183V7.5716V7.57138V7.57116V7.57093V7.5707V7.57048V7.57025V7.57002V7.56979V7.56956V7.56932V7.56909V7.56886V7.56862V7.56838V7.56815V7.56791V7.56767V7.56743V7.56719V7.56694V7.5667V7.56646V7.56621V7.56596V7.56572V7.56547V7.56522V7.56497V7.56472V7.56447V7.56421V7.56396V7.5637V7.56345V7.56319V7.56293V7.56267V7.56241V7.56215V7.56188V7.56162V7.56136V7.56109V7.56082V7.56055V7.56029V7.56002V7.55974V7.50761L11.0089 7.45809C11.1767 6.94852 11.2217 6.43113 11.2217 5.84373C11.2217 2.77467 8.75344 0.325 5.77336 0.325C2.7508 0.325 0.325 2.81767 0.325 5.84373C0.325 6.41269 0.411296 6.94202 0.54462 7.48181L0.229102 7.55974L0.510761 7.55975M5.77462 14.5457L0.510761 7.55975M5.77462 14.5457C5.66587 14.4376 5.52137 14.2922 5.34976 14.1159C4.95108 13.7062 4.4068 13.1298 3.82448 12.4632C2.65185 11.1209 1.35412 9.44508 0.757482 8.03595L0.673527 7.83767H0.632794L5.77462 14.5457ZM0.510761 7.55975L0.510764 7.55974L0.510761 7.55975ZM0.554102 7.60122C0.549814 7.58777 0.545363 7.57395 0.540715 7.55974H0.554102V7.55975V7.55975V7.55976V7.55976V7.55977V7.55977V7.55977V7.55978V7.55978V7.55979V7.55979V7.5598V7.5598V7.55981V7.55982V7.55982V7.55983V7.55983V7.55983V7.55984V7.55984V7.55985V7.55985V7.55986V7.55986V7.55987V7.55987V7.55988V7.55988V7.55989V7.5599V7.5599V7.55991V7.55991V7.55992V7.55993V7.55993V7.55994V7.55995V7.55996V7.55996V7.55997V7.55998V7.55999V7.56V7.56V7.56001V7.56002V7.56003V7.56004V7.56005V7.56006V7.56007V7.56008V7.56009V7.5601V7.56011V7.56012V7.56013V7.56014V7.56016V7.56017V7.56018V7.56019V7.5602V7.56022V7.56023V7.56024V7.56026V7.56027V7.56028V7.5603V7.56031V7.56033V7.56034V7.56036V7.56037V7.56039V7.5604V7.56042V7.56043V7.56045V7.56047V7.56049V7.5605V7.56052V7.56054V7.56056V7.56058V7.56059V7.56061V7.56063V7.56065V7.56067V7.56069V7.56071V7.56073V7.56075V7.56078V7.5608V7.56082V7.56084V7.56086V7.56089V7.56091V7.56093V7.56096V7.56098V7.56101V7.56103V7.56106V7.56108V7.56111V7.56113V7.56116V7.56119V7.56121V7.56124V7.56127V7.5613V7.56132V7.56135V7.56138V7.56141V7.56144V7.56147V7.5615V7.56153V7.56156V7.5616V7.56163V7.56166V7.56169V7.56173V7.56176V7.56179V7.56183V7.56186V7.5619V7.56193V7.56197V7.562V7.56204V7.56208V7.56211V7.56215V7.56219V7.56223V7.56227V7.56231V7.56235V7.56239V7.56243V7.56247V7.56251V7.56255V7.56259V7.56263V7.56268V7.56272V7.56276V7.56281V7.56285V7.5629V7.56294V7.56299V7.56304V7.56308V7.56313V7.56318V7.56323V7.56327V7.56332V7.56337V7.56342V7.56347V7.56352V7.56358V7.56363V7.56368V7.56373V7.56379V7.56384V7.56389V7.56395V7.564V7.56406V7.56411V7.56417V7.56423V7.56429V7.56434V7.5644V7.56446V7.56452V7.56458V7.56464V7.5647V7.56476V7.56483V7.56489V7.56495V7.56501V7.56508V7.56514V7.56521V7.56527V7.56534V7.56541V7.56547V7.56554V7.56561V7.56568V7.56575V7.56582V7.56589V7.56596V7.56603V7.5661V7.56617V7.56625V7.56632V7.56639V7.56647V7.56655V7.56662V7.5667V7.56677V7.56685V7.56693V7.56701V7.56709V7.56717V7.56725V7.56733V7.56741V7.56749V7.56758V7.56766V7.56774V7.56783V7.56791V7.568V7.56808V7.56817V7.56826V7.56835V7.56844V7.56852V7.56861V7.56871V7.5688V7.56889V7.56898V7.56907V7.56917V7.56926V7.56936V7.56945V7.56955V7.56964V7.56974V7.56984V7.56994V7.57004V7.57014V7.57024V7.57034V7.57044V7.57054V7.57065V7.57075V7.57086V7.57096V7.57107V7.57117V7.57128V7.57139V7.5715V7.57161V7.57172V7.57183V7.57194V7.57205V7.57216V7.57227V7.57239V7.5725V7.57262V7.57273V7.57285V7.57297V7.57309V7.57321V7.57333V7.57345V7.57357V7.57369V7.57381V7.57393V7.57406V7.57418V7.57431V7.57443V7.57456V7.57469V7.57481V7.57494V7.57507V7.5752V7.57533V7.57547V7.5756V7.57573V7.57587V7.576V7.57614V7.57627V7.57641V7.57655V7.57668V7.57682V7.57696V7.57711V7.57725V7.57739V7.57753V7.57768V7.57782V7.57797V7.57811V7.57826V7.57841V7.57856V7.5787V7.57885V7.57901V7.57916V7.57931V7.57946V7.57962V7.57977V7.57993V7.58008V7.58024V7.5804V7.58056V7.58072V7.58088V7.58104V7.5812V7.58136V7.58153V7.58169V7.58186V7.58202V7.58219V7.58236V7.58253V7.5827V7.58287V7.58304V7.58321V7.58338V7.58356V7.58373V7.58391V7.58409V7.58426V7.58444V7.58462V7.5848V7.58498V7.58516V7.58534V7.58553V7.58571V7.5859V7.58608V7.58627V7.58646V7.58665V7.58684V7.58703V7.58722V7.58741V7.5876V7.5878V7.58799V7.58819V7.58838V7.58858V7.58878V7.58898V7.58918V7.58938V7.58958V7.58978V7.58999V7.59019V7.5904V7.59061V7.59081V7.59102V7.59123V7.59144V7.59165V7.59187V7.59208V7.59229V7.59251V7.59272V7.59294V7.59316V7.59338V7.5936V7.59382V7.59404V7.59426V7.59449V7.59471V7.59494V7.59516V7.59539V7.59562V7.59585V7.59608V7.59631V7.59654V7.59678V7.59701V7.59725V7.59748V7.59772V7.59796V7.5982V7.59844V7.59868V7.59892V7.59916V7.59941V7.59965V7.5999V7.60015V7.6004V7.60065V7.6009V7.60115V7.60122Z" fill="#434A54" stroke="white" stroke-width="0.65" stroke-miterlimit="10"/>
<path d="M8.10591 5.89017C8.10591 7.17442 7.0784 8.20876 5.81916 8.20876C4.55991 8.20876 3.5324 7.17442 3.5324 5.89017C3.5324 4.60593 4.55991 3.57158 5.81916 3.57158C7.0784 3.57158 8.10591 4.60593 8.10591 5.89017Z" fill="white" stroke="white" stroke-width="0.65" stroke-miterlimit="10"/>
</svg>
