<svg width="21" height="20" viewBox="0 0 21 20" fill="none" xmlns="http://www.w3.org/2000/svg">
<path d="M2.62741 18.8918L4.00169 14.0942C2.12109 12.6513 1.03613 10.6673 1.03613 8.61122C1.03613 4.42685 5.37597 1 10.6923 1C16.0086 1 20.3484 4.42685 20.3484 8.61122C20.3484 12.7956 16.0086 16.2224 10.6923 16.2224C10.0775 16.2224 9.42649 16.1864 8.81168 16.0782L2.62741 18.8918ZM10.6923 1.43287C5.59296 1.43287 1.47012 4.64329 1.47012 8.57515C1.47012 10.5591 2.51891 12.4349 4.39951 13.8056L4.508 13.9138L3.31455 18.0982L8.77551 15.6092H8.84784C9.46266 15.7174 10.0775 15.7535 10.7284 15.7535C15.8278 15.7535 19.9506 12.5431 19.9506 8.61122C19.9506 4.67936 15.7916 1.43287 10.6923 1.43287Z" fill="#4E37D3" stroke="#4E37D3" stroke-width="0.22" stroke-miterlimit="10"/>
<path d="M10.6918 10.4868C9.85999 10.4868 9.17285 9.80148 9.17285 8.97182C9.17285 8.14216 9.85999 7.45679 10.6918 7.45679C11.5236 7.45679 12.2107 8.14216 12.2107 8.97182C12.2107 9.80148 11.5236 10.4868 10.6918 10.4868ZM10.6918 7.88965C10.1131 7.88965 9.643 8.35859 9.643 8.97182C9.643 9.58504 10.1131 10.054 10.6918 10.054C11.2704 10.054 11.7406 9.58504 11.7406 8.97182C11.7406 8.35859 11.2704 7.88965 10.6918 7.88965Z" fill="#4E37D3" stroke="#4E37D3" stroke-width="0.22" stroke-miterlimit="10"/>
<path d="M6.42519 10.4868C5.59339 10.4868 4.90625 9.80148 4.90625 8.97182C4.90625 8.14216 5.59339 7.45679 6.42519 7.45679C7.257 7.45679 7.94414 8.14216 7.94414 8.97182C7.94414 9.80148 7.22083 10.4868 6.42519 10.4868ZM6.42519 7.88965C5.84655 7.88965 5.3764 8.35859 5.3764 8.97182C5.3764 9.58504 5.84655 10.054 6.42519 10.054C7.00384 10.054 7.47399 9.58504 7.47399 8.97182C7.47399 8.35859 7.00384 7.88965 6.42519 7.88965Z" fill="#4E37D3" stroke="#4E37D3" stroke-width="0.22" stroke-miterlimit="10"/>
<path d="M14.9955 10.4868C14.1637 10.4868 13.4766 9.80148 13.4766 8.97182C13.4766 8.14216 14.1637 7.45679 14.9955 7.45679C15.8273 7.45679 16.5145 8.14216 16.5145 8.97182C16.5145 9.80148 15.8273 10.4868 14.9955 10.4868ZM14.9955 7.88965C14.4169 7.88965 13.9467 8.35859 13.9467 8.97182C13.9467 9.58504 14.4169 10.054 14.9955 10.054C15.5742 10.054 16.0443 9.58504 16.0443 8.97182C16.0443 8.35859 15.5742 7.88965 14.9955 7.88965Z" fill="#4E37D3" stroke="#4E37D3" stroke-width="0.22" stroke-miterlimit="10"/>
</svg>
