<svg width="22" height="10" viewBox="0 0 22 10" fill="none" xmlns="http://www.w3.org/2000/svg">
<path d="M6.50752 1.5873C6.94584 1.5873 7.30117 1.23197 7.30117 0.793651C7.30117 0.35533 6.94584 0 6.50752 0C6.0692 0 5.71387 0.35533 5.71387 0.793651C5.71387 1.23197 6.0692 1.5873 6.50752 1.5873Z" fill="url(#paint0_linear)"/>
<path d="M0.793651 3.3334C1.23197 3.3334 1.5873 2.97807 1.5873 2.53974C1.5873 2.10142 1.23197 1.74609 0.793651 1.74609C0.35533 1.74609 0 2.10142 0 2.53974C0 2.97807 0.35533 3.3334 0.793651 3.3334Z" fill="url(#paint1_linear)"/>
<path d="M15.3171 1.5873C15.7554 1.5873 16.1107 1.23197 16.1107 0.793651C16.1107 0.35533 15.7554 0 15.3171 0C14.8788 0 14.5234 0.35533 14.5234 0.793651C14.5234 1.23197 14.8788 1.5873 15.3171 1.5873Z" fill="url(#paint2_linear)"/>
<path d="M21.111 3.3334C21.5494 3.3334 21.9047 2.97807 21.9047 2.53974C21.9047 2.10142 21.5494 1.74609 21.111 1.74609C20.6727 1.74609 20.3174 2.10142 20.3174 2.53974C20.3174 2.97807 20.6727 3.3334 21.111 3.3334Z" fill="url(#paint3_linear)"/>
<path d="M10.9529 8.65041C14.1275 8.65041 17.064 8.96787 19.8418 9.52342C19.8418 7.77739 20.0798 5.39644 20.8735 3.25358C20.7148 3.17422 20.6354 3.17422 20.556 3.09485C19.4449 4.04723 19.0481 5.39644 18.1751 6.42818C17.064 7.69803 15.7941 5.87263 15.1592 1.66628C15.0798 1.66628 15.0798 1.66628 15.0005 1.66628C14.4449 2.69803 12.064 7.0631 10.8735 7.0631C9.68302 7.0631 7.30207 2.69803 6.74651 1.58691C6.66715 1.58691 6.66715 1.58691 6.58778 1.58691C6.03223 5.87263 4.76239 7.69803 3.65127 6.42818C2.77826 5.39644 2.4608 4.1266 1.27032 3.09485C1.19096 3.17422 1.11159 3.17422 1.03223 3.25358C1.82588 5.39644 2.06397 7.77739 2.06397 9.52342C4.84175 8.96787 7.77826 8.65041 10.9529 8.65041Z" fill="url(#paint4_linear)"/>
<defs>
<linearGradient id="paint0_linear" x1="6.50752" y1="0" x2="6.50752" y2="1.5873" gradientUnits="userSpaceOnUse">
<stop stop-color="#E3A71D"/>
<stop offset="1" stop-color="#FFD16B"/>
</linearGradient>
<linearGradient id="paint1_linear" x1="0.793651" y1="1.74609" x2="0.793651" y2="3.3334" gradientUnits="userSpaceOnUse">
<stop stop-color="#E3A71D"/>
<stop offset="1" stop-color="#FFD16B"/>
</linearGradient>
<linearGradient id="paint2_linear" x1="15.3171" y1="0" x2="15.3171" y2="1.5873" gradientUnits="userSpaceOnUse">
<stop stop-color="#E3A71D"/>
<stop offset="1" stop-color="#FFD16B"/>
</linearGradient>
<linearGradient id="paint3_linear" x1="21.111" y1="1.74609" x2="21.111" y2="3.3334" gradientUnits="userSpaceOnUse">
<stop stop-color="#E3A71D"/>
<stop offset="1" stop-color="#FFD16B"/>
</linearGradient>
<linearGradient id="paint4_linear" x1="10.9529" y1="1.58691" x2="10.9529" y2="9.52342" gradientUnits="userSpaceOnUse">
<stop stop-color="#E3A71D"/>
<stop offset="1" stop-color="#FFD16B"/>
</linearGradient>
</defs>
</svg>
