<svg width="20" height="16" viewBox="0 0 20 16" fill="none" xmlns="http://www.w3.org/2000/svg">
<path d="M4.50796 13.7722C4.83366 13.7722 5.1496 13.7042 5.39963 13.5738C5.6291 13.454 5.91594 13.2142 5.91594 12.8343C5.91594 12.4545 5.6291 12.2146 5.39963 12.0949C5.1496 11.9644 4.83366 11.8965 4.50796 11.8965C4.18227 11.8965 3.86633 11.9644 3.6163 12.0949C3.38683 12.2146 3.09999 12.4545 3.09999 12.8343C3.09999 13.2142 3.38683 13.454 3.6163 13.5738C3.86633 13.7042 4.18227 13.7722 4.50796 13.7722Z" stroke="#4E37D3" stroke-width="0.85" stroke-miterlimit="10"/>
<path d="M6.45979 14.9687C6.71559 14.9687 6.96825 14.9148 7.17239 14.8067C7.35751 14.7087 7.61134 14.5003 7.61134 14.1591C7.61134 13.8179 7.35751 13.6095 7.17239 13.5115C6.96825 13.4034 6.71559 13.3495 6.45979 13.3495C6.20399 13.3495 5.95132 13.4034 5.74719 13.5115C5.56207 13.6095 5.30824 13.8179 5.30824 14.1591C5.30824 14.5003 5.56207 14.7087 5.74719 14.8067C5.95132 14.9148 6.20399 14.9687 6.45979 14.9687Z" stroke="#4E37D3" stroke-width="0.85" stroke-miterlimit="10"/>
<mask id="path-3-outside-1" maskUnits="userSpaceOnUse" x="7.05531" y="0" width="10" height="6" fill="black">
<rect fill="white" x="7.05531" width="10" height="6"/>
<path d="M15.6627 4.3863C15.7482 4.21535 15.7909 4.08713 15.7909 3.91618C15.8764 2.42034 14.0814 1.1382 11.7735 1.00998C10.235 0.924506 8.8246 1.39463 8.05531 2.16391"/>
</mask>
<path d="M14.9024 4.00617C14.6925 4.42605 14.8627 4.93662 15.2826 5.14656C15.7025 5.3565 16.213 5.18631 16.423 4.76643L14.9024 4.00617ZM15.7909 3.91618L14.9423 3.86769L14.9409 3.89191V3.91618H15.7909ZM11.7735 1.00998L11.7264 1.85867L11.7735 1.00998ZM7.45427 1.56287C7.12233 1.89482 7.12233 2.43301 7.45427 2.76495C7.78622 3.0969 8.32441 3.0969 8.65635 2.76495L7.45427 1.56287ZM16.423 4.76643C16.5409 4.5306 16.6409 4.26786 16.6409 3.91618H14.9409C14.9409 3.92298 14.9405 3.92411 14.9409 3.92158C14.9413 3.91887 14.9418 3.91706 14.9416 3.91773C14.9406 3.92129 14.9338 3.94345 14.9024 4.00617L16.423 4.76643ZM16.6395 3.96467C16.7043 2.83155 16.0493 1.88944 15.1767 1.26061C14.2979 0.627396 13.1094 0.232885 11.8207 0.161291L11.7264 1.85867C12.7456 1.91529 13.6085 2.22596 14.1828 2.63983C14.7633 3.0581 14.963 3.50497 14.9423 3.86769L16.6395 3.96467ZM11.8207 0.161291C10.1176 0.0666728 8.44235 0.574795 7.45427 1.56287L8.65635 2.76495C9.20685 2.21446 10.3524 1.78234 11.7264 1.85867L11.8207 0.161291Z" fill="#4E37D3" mask="url(#path-3-outside-1)"/>
<mask id="path-5-outside-2" maskUnits="userSpaceOnUse" x="1.11006" y="0.811836" width="8" height="6" fill="black">
<rect fill="white" x="1.11006" y="0.811836" width="8" height="6"/>
<path d="M8.0553 2.12108C7.58518 1.95013 7.02958 1.86465 6.47398 1.82191C4.16612 1.6937 2.20016 2.80489 2.11469 4.25799C2.07195 4.81359 2.32838 5.32644 2.75576 5.79656"/>
</mask>
<path d="M7.76482 2.9199C8.20599 3.08033 8.69369 2.85274 8.85412 2.41156C9.01455 1.97038 8.78696 1.48268 8.34578 1.32225L7.76482 2.9199ZM6.47398 1.82191L6.53918 0.974415L6.53016 0.973722L6.52113 0.97322L6.47398 1.82191ZM2.11469 4.25799L2.96218 4.32318L2.96277 4.31555L2.96322 4.3079L2.11469 4.25799ZM2.12681 6.36834C2.44259 6.71569 2.98017 6.74129 3.32753 6.42551C3.67489 6.10973 3.70049 5.57215 3.38471 5.22479L2.12681 6.36834ZM8.34578 1.32225C7.77057 1.11309 7.12718 1.01965 6.53918 0.974415L6.40879 2.66941C6.93199 2.70965 7.39978 2.78716 7.76482 2.9199L8.34578 1.32225ZM6.52113 0.97322C5.22721 0.901335 3.99437 1.17326 3.04517 1.70558C2.11079 2.22959 1.33213 3.08655 1.26616 4.20808L2.96322 4.3079C2.98273 3.97633 3.22978 3.55114 3.87671 3.18833C4.50883 2.83383 5.4129 2.61427 6.42683 2.6706L6.52113 0.97322ZM1.26719 4.1928C1.1995 5.07285 1.61636 5.80684 2.12681 6.36834L3.38471 5.22479C3.0404 4.84605 2.94441 4.55432 2.96218 4.32318L1.26719 4.1928Z" fill="#4E37D3" mask="url(#path-5-outside-2)"/>
<mask id="path-7-outside-3" maskUnits="userSpaceOnUse" x="5.68795" y="8.643" width="11" height="4" fill="black">
<rect fill="white" x="5.68795" y="8.643" width="11" height="4"/>
<path d="M6.68795 10.1986C7.62819 11.0534 9.03855 11.6517 10.6626 11.7372C12.9277 11.8654 14.8937 10.9679 15.7484 9.643"/>
</mask>
<path d="M7.25972 9.56964C6.91236 9.25386 6.37478 9.27946 6.059 9.62682C5.74322 9.97418 5.76882 10.5118 6.11618 10.8275L7.25972 9.56964ZM10.6626 11.7372L10.7106 10.8885L10.7073 10.8883L10.6626 11.7372ZM16.4627 10.1038C16.7172 9.70934 16.6037 9.18324 16.2093 8.92875C15.8148 8.67425 15.2887 8.78772 15.0342 9.18219L16.4627 10.1038ZM6.11618 10.8275C7.21664 11.828 8.81953 12.4913 10.6179 12.586L10.7073 10.8883C9.25757 10.812 8.03974 10.2788 7.25972 9.56964L6.11618 10.8275ZM10.6146 12.5858C13.0888 12.7259 15.3958 11.7576 16.4627 10.1038L15.0342 9.18219C14.3916 10.1782 12.7666 11.0049 10.7106 10.8885L10.6146 12.5858Z" fill="#4E37D3" mask="url(#path-7-outside-3)"/>
<mask id="path-9-outside-4" maskUnits="userSpaceOnUse" x="14.6628" y="3.38659" width="6" height="8" fill="black">
<rect fill="white" x="14.6628" y="3.38659" width="6" height="8"/>
<path d="M15.7483 9.64339C17.5433 9.4297 18.9109 8.48946 18.9964 7.25005C19.0819 5.92516 17.6288 4.72849 15.6628 4.38659"/>
</mask>
<path d="M15.6478 8.79935C15.1816 8.85484 14.8487 9.27772 14.9042 9.74387C14.9597 10.21 15.3826 10.5429 15.8488 10.4874L15.6478 8.79935ZM18.9964 7.25005L19.8444 7.30853L19.8446 7.30477L18.9964 7.25005ZM15.8084 3.54916C15.3459 3.46872 14.9058 3.77845 14.8254 4.24095C14.7449 4.70345 15.0547 5.14358 15.5172 5.22402L15.8084 3.54916ZM15.8488 10.4874C16.8575 10.3673 17.7933 10.0388 18.5111 9.52044C19.2309 9.00056 19.7796 8.24722 19.8444 7.30853L18.1484 7.19157C18.1276 7.49228 17.9498 7.82877 17.5157 8.14228C17.0795 8.45731 16.434 8.70575 15.6478 8.79935L15.8488 10.4874ZM19.8446 7.30477C19.91 6.29155 19.3796 5.42147 18.6487 4.80148C17.9149 4.17903 16.9124 3.74115 15.8084 3.54916L15.5172 5.22402C16.3792 5.37393 17.0862 5.70534 17.549 6.09792C18.0148 6.49296 18.1682 6.88366 18.1481 7.19532L19.8446 7.30477Z" fill="#4E37D3" mask="url(#path-9-outside-4)"/>
<mask id="path-11-outside-5" maskUnits="userSpaceOnUse" x="0" y="4.7968" width="8" height="7" fill="black">
<rect fill="white" y="4.7968" width="8" height="7"/>
<path d="M2.75585 5.7968C1.77287 6.22418 1.08906 7.03621 1.00359 7.97645C0.91811 9.47228 2.37121 10.7544 4.20895 10.8399C5.14919 10.8826 6.04669 10.6262 6.68777 10.1561"/>
</mask>
<path d="M3.09477 6.57631C3.52528 6.38913 3.72254 5.88839 3.53536 5.45788C3.34818 5.02737 2.84745 4.83011 2.41694 5.01729L3.09477 6.57631ZM1.00359 7.97645L0.157077 7.89949L0.155785 7.9137L0.154971 7.92795L1.00359 7.97645ZM4.20895 10.8399L4.16946 11.689L4.17035 11.689L4.20895 10.8399ZM7.19043 10.8415C7.56899 10.5639 7.65082 10.032 7.37321 9.65344C7.0956 9.27487 6.56367 9.19304 6.18511 9.47065L7.19043 10.8415ZM2.41694 5.01729C1.2222 5.53674 0.277222 6.5779 0.157077 7.89949L1.8501 8.0534C1.9009 7.49451 2.32355 6.91162 3.09477 6.57631L2.41694 5.01729ZM0.154971 7.92795C0.032973 10.0629 2.04553 11.5902 4.16946 11.689L4.24844 9.99082C2.69689 9.91866 1.80325 8.88165 1.8522 8.02494L0.154971 7.92795ZM4.17035 11.689C5.27709 11.7393 6.37219 11.4416 7.19043 10.8415L6.18511 9.47065C5.7212 9.81085 5.02129 10.026 4.24755 9.99078L4.17035 11.689Z" fill="#4E37D3" mask="url(#path-11-outside-5)"/>
</svg>
