<svg width="24" height="25" viewBox="0 0 24 25" fill="none" xmlns="http://www.w3.org/2000/svg">
<rect x="2.55078" y="7.4508" width="13.25" height="14.8142" rx="1.625" transform="rotate(-7.09656 2.55078 7.4508)" stroke="#4E37D3" stroke-width="0.75"/>
<rect x="7.50732" y="2.77051" width="13.25" height="17.25" rx="1.625" fill="white" stroke="#4E37D3" stroke-width="0.75"/>
<path d="M17.8716 8.71427C17.4865 8.3291 16.974 8.1168 16.4294 8.1168C15.8848 8.1168 15.3722 8.3291 14.9871 8.71427L14.6536 9.04783L14.3199 8.71427C14.3199 8.71427 14.3199 8.71426 14.3199 8.71426C13.9348 8.32909 13.4223 8.1168 12.8777 8.1168C12.3331 8.1168 11.8206 8.32909 11.4355 8.71426C10.6401 9.50952 10.6401 10.8034 11.4355 11.5987L14.2002 14.3635C14.3253 14.4885 14.4896 14.5509 14.6535 14.5509C14.8174 14.5509 14.9817 14.4885 15.1068 14.3636L15.1068 14.3635L17.8716 11.5987C18.2567 11.2136 18.469 10.7011 18.469 10.1565C18.469 9.61184 18.2567 9.09938 17.8716 8.71427ZM17.8716 8.71427L17.8009 8.78497M17.8716 8.71427C17.8716 8.71427 17.8716 8.71427 17.8716 8.71426L17.8009 8.78497M17.8009 8.78497C18.1673 9.15133 18.369 9.63837 18.369 10.1565C18.369 10.6746 18.1673 11.1617 17.8009 11.528L15.0361 14.2928L15.0578 8.78497C15.4242 8.41856 15.9113 8.2168 16.4294 8.2168C16.9475 8.2168 17.4345 8.41856 17.8009 8.78497ZM14.0152 9.01884L14.0152 9.01884C13.7113 8.71486 13.3076 8.54765 12.8777 8.54765C12.4478 8.54765 12.0441 8.71486 11.7401 9.01889C11.1129 9.64607 11.1129 10.6668 11.7401 11.2941C11.7401 11.2941 11.7401 11.2941 11.7401 11.2941L14.5048 14.0588C14.5867 14.1407 14.7202 14.1407 14.8022 14.0588L14.0152 9.01884ZM14.0152 9.01884L14.5012 9.50472C14.5012 9.50472 14.5012 9.50472 14.5012 9.50472C14.5853 9.58884 14.7217 9.58884 14.8058 9.50472L15.2917 9.01884C15.5957 8.7148 15.9994 8.54759 16.4293 8.54759C16.8592 8.54759 17.2629 8.71481 17.5669 9.01883C17.8709 9.32287 18.0381 9.72653 18.0381 10.1564C18.0381 10.5864 17.8709 10.99 17.5669 11.2941C17.5669 11.2941 17.5669 11.2941 17.5669 11.2941L14.8022 14.0588L14.0152 9.01884Z" fill="#4E37D3" stroke="#4E37D3" stroke-width="0.2"/>
</svg>
