<svg width="96" height="97" viewBox="0 0 96 97" fill="none" xmlns="http://www.w3.org/2000/svg">
<path d="M68.4341 67.9485L63.894 67.9428L55.7731 67.9323C55.7809 67.8017 55.7728 67.6725 55.7731 67.5402V54.7446H41.7506V67.5223C41.7502 67.6549 41.7431 67.7841 41.7506 67.9143L33.6124 67.9038L29.0723 67.898C24.168 67.8916 20.1867 71.8626 20.1806 76.767L20.1572 95.0349H77.28L77.3034 76.8402C77.3095 71.9359 73.3388 67.9546 68.4341 67.9485Z" fill="white"/>
<path d="M41.084 55.4873H55.1065V68.9683C55.1065 72.8407 51.9673 75.9795 48.0953 75.9795C44.2229 75.9795 41.084 72.8403 41.084 68.9683V55.4873Z" fill="white"/>
<path d="M48.0958 76.6578C43.8558 76.6578 40.4062 73.2083 40.4062 68.9683V55.4873C40.4062 55.1129 40.7101 54.8091 41.0845 54.8091H55.107C55.4814 54.8091 55.7853 55.1129 55.7853 55.4873V68.9683C55.7853 73.2083 52.3357 76.6578 48.0958 76.6578ZM41.7627 56.1656V68.9683C41.7627 72.4602 44.6039 75.3013 48.0958 75.3013C51.5877 75.3013 54.4288 72.4605 54.4288 68.9683V56.1656H41.7627Z" fill="#2A2B2F"/>
<path d="M61.3405 23.2058V22.6567C61.3405 20.3555 59.9413 18.3808 57.9473 17.5374C55.6741 16.576 53.4658 15.4688 51.4477 14.0482L48.0864 11.6822V11.6768L48.0823 11.6798L48.0779 11.6768V11.6825L44.7165 14.0486C42.6985 15.4691 40.4898 16.5763 38.217 17.5377C36.223 18.3811 34.8238 20.3555 34.8238 22.6571V23.2061C31.5842 23.2061 29.0313 25.9669 29.285 29.197L30.2311 41.2492H48.0779H48.086H65.9328L66.8789 29.197C67.1326 25.9665 64.5801 23.2058 61.3405 23.2058Z" fill="#C4C4C4"/>
<path d="M61.3402 23.2054V22.6564C61.3402 20.3551 59.941 18.3804 57.947 17.537C55.6738 16.5756 53.4655 15.4684 51.4474 14.0478L48.0908 11.6855C49.4002 14.3707 52.6089 16.577 54.8789 17.537C56.873 18.3804 58.2722 20.3548 58.2722 22.6564C58.2722 22.9555 58.5011 23.202 58.7988 23.2298C61.7837 23.5096 64.0507 26.1432 63.811 29.1959L62.8648 41.2482H65.9325L66.8786 29.1959C67.1323 25.9662 64.5798 23.2054 61.3402 23.2054Z" fill="#C4C4C4"/>
<path d="M34.8235 23.2054V22.6564C34.8235 20.3551 36.2227 18.3804 38.2167 17.537C40.4898 16.5756 42.6981 15.4684 44.7162 14.0478L48.0728 11.6855C46.7635 14.3707 43.5547 16.577 41.2847 17.537C39.2907 18.3804 37.8915 20.3548 37.8915 22.6564C37.8915 22.9555 37.6626 23.202 37.3651 23.2298C34.3802 23.5096 32.1132 26.1432 32.353 29.1959L33.2991 41.2482H30.2311L29.285 29.1959C29.0313 25.9662 31.5839 23.2054 34.8235 23.2054Z" fill="#C4C4C4"/>
<path d="M67.7675 68.6916L64.6523 68.6875C69.557 68.6939 73.5277 72.6749 73.5213 77.5792L73.4982 95.778H76.6134L76.6368 77.5832C76.6429 72.6789 72.6722 68.6977 67.7675 68.6916Z" fill="white"/>
<path d="M28.4063 68.6411L31.5214 68.6452C26.6171 68.6387 22.6362 72.6098 22.6298 77.5141L22.6064 95.778H19.4912L19.5146 77.5101C19.5207 72.6058 23.5016 68.635 28.4063 68.6411Z" fill="white"/>
<path d="M76.6132 96.4562H19.4907C19.3107 96.4562 19.1381 96.3846 19.0109 96.2571C18.8837 96.13 18.8125 95.957 18.8125 95.7769L18.8359 77.509C18.839 74.9558 19.8363 72.5565 21.6441 70.7537C23.4489 68.9537 25.8455 67.9628 28.3939 67.9628H28.4065L40.4058 67.9781V55.4873C40.4058 55.1129 40.7097 54.8091 41.0841 54.8091H55.1066C55.481 54.8091 55.7849 55.1129 55.7849 55.4873V67.9977L67.7686 68.013C70.3218 68.0164 72.7211 69.0137 74.5238 70.8212C76.3269 72.6287 77.3182 75.0304 77.3148 77.5836L77.2914 95.7783C77.2911 96.153 76.9875 96.4562 76.6132 96.4562ZM20.17 95.0997H75.9359L75.9583 77.5822C75.961 75.3915 75.1105 73.3304 73.5635 71.7796C72.0164 70.2284 69.9576 69.3725 67.7669 69.3698L55.1059 69.3535C54.9191 69.3535 54.7407 69.2759 54.6129 69.1402C54.485 69.0046 54.4186 68.8214 54.4297 68.6349C54.4338 68.5671 54.4318 68.4996 54.4304 68.4315L54.4287 68.2826V56.1662H41.7623L41.7606 68.4077C41.7593 68.4786 41.7572 68.5488 41.7613 68.6193C41.7722 68.8058 41.7054 68.9883 41.5772 69.1239C41.449 69.2596 41.2709 69.3362 41.0844 69.3362C41.0841 69.3362 41.0841 69.3362 41.0837 69.3362L28.4055 69.3199C28.4021 69.3199 28.398 69.3199 28.3946 69.3199C26.2077 69.3199 24.1512 70.1701 22.6025 71.7148C21.0514 73.2619 20.1958 75.3206 20.1931 77.5113L20.17 95.0997Z" fill="#2A2B2F"/>
<path d="M65.9332 41.9269H30.2315C29.8774 41.9269 29.5831 41.6546 29.5553 41.3019L28.6088 29.2497C28.4732 27.5222 29.07 25.8018 30.2461 24.5295C31.2682 23.4243 32.6616 22.7281 34.1459 22.565C34.1819 20.0911 35.6682 17.8794 37.9529 16.9129C40.5434 15.8172 42.5686 14.7306 44.3263 13.4935L47.6445 11.158C47.6801 11.1282 47.7188 11.1021 47.7608 11.08C47.8809 11.0166 48.0155 10.9905 48.1447 11.0031C48.2312 11.0105 48.3163 11.0346 48.3957 11.0756C48.4418 11.0994 48.4842 11.1279 48.5228 11.1604L51.8381 13.4935C53.5957 14.7306 55.6209 15.8172 58.2115 16.9129C60.4958 17.879 61.9818 20.0907 62.0181 22.5646C63.5024 22.7281 64.8962 23.4239 65.9179 24.5295C67.094 25.8015 67.6912 27.5222 67.5552 29.2493L66.6087 41.3016C66.5816 41.6546 66.2872 41.9269 65.9332 41.9269ZM30.8585 40.5704H65.3061L66.2034 29.1432C66.311 27.7718 65.8562 26.4604 64.9223 25.4502C63.9883 24.4399 62.7163 23.8838 61.3405 23.8838C60.9661 23.8838 60.6623 23.5799 60.6623 23.2056V22.6565C60.6623 20.6917 59.493 18.9272 57.6831 18.1622C55.001 17.0278 52.8958 15.8969 51.0574 14.6028L48.082 12.5087L45.1069 14.6028C43.2685 15.8965 41.1633 17.0275 38.4812 18.1618C36.6713 18.9272 35.5017 20.6913 35.5017 22.6565V23.2056C35.5017 23.5799 35.1979 23.8838 34.8235 23.8838C33.4477 23.8838 32.176 24.4403 31.2421 25.4502C30.3085 26.4604 29.8534 27.7718 29.9609 29.1432L30.8585 40.5704Z" fill="#222222"/>
<path d="M32.937 38.8125H31.8559C29.0612 38.8125 26.7959 41.0778 26.7959 43.8725C26.7959 46.6672 29.0612 48.9325 31.8559 48.9325H32.937V38.8125Z" fill="white"/>
<path d="M64.2999 38.8125H63.2188V48.9321H64.2999C67.0942 48.9321 69.3595 46.6668 69.3595 43.8721C69.3595 41.0782 67.0945 38.8125 64.2999 38.8125Z" fill="white"/>
<path d="M48.0775 64.5341C39.7152 64.5341 32.9365 57.6673 32.9365 49.1965V38.5784C32.9365 30.1075 39.7152 23.2407 48.0775 23.2407C56.4398 23.2407 63.2184 30.1075 63.2184 38.5784V49.1965C63.2184 57.6673 56.4398 64.5341 48.0775 64.5341Z" fill="white"/>
<path d="M48.078 65.2124C39.3552 65.2124 32.2588 58.0278 32.2588 49.1965V38.5784C32.2588 29.7471 39.3552 22.5625 48.078 22.5625C56.8008 22.5625 63.8972 29.7474 63.8972 38.5784V49.1968C63.8972 58.0278 56.8008 65.2124 48.078 65.2124ZM48.078 23.919C40.1029 23.919 33.6153 30.4952 33.6153 38.5784V49.1968C33.6153 57.2801 40.1033 63.8562 48.078 63.8562C56.0527 63.8562 62.5407 57.2801 62.5407 49.1968V38.5784C62.5407 30.4952 56.053 23.919 48.078 23.919Z" fill="#222222"/>
<path d="M32.9372 49.6105H31.856C28.6921 49.6105 26.1182 47.0366 26.1182 43.8726C26.1182 40.7087 28.6921 38.1348 31.856 38.1348H32.9372C33.3115 38.1348 33.6154 38.4386 33.6154 38.813V48.9326C33.6154 49.307 33.3119 49.6105 32.9372 49.6105ZM31.8564 39.4912C29.4402 39.4912 27.475 41.4568 27.475 43.8726C27.475 46.2885 29.4405 48.2541 31.8564 48.2541H32.2593V39.4912H31.8564Z" fill="#222222"/>
<path d="M64.2994 49.6105H63.2183C62.8439 49.6105 62.54 49.3067 62.54 48.9323V38.813C62.54 38.4386 62.8439 38.1348 63.2183 38.1348H64.2994C67.4634 38.1348 70.0373 40.7087 70.0373 43.8726C70.0373 47.0366 67.4634 49.6105 64.2994 49.6105ZM63.8965 48.2541H64.2994C66.7153 48.2541 68.6808 46.2885 68.6808 43.8726C68.6808 41.4568 66.7153 39.4912 64.2994 39.4912H63.8965V48.2541Z" fill="#222222"/>
<path d="M64.4999 87.0974L61.7189 88.5594L62.2499 85.4626L60 83.2694L63.1094 82.8175L64.4999 80L65.8906 82.8175L69 83.2694L66.7501 85.4626L67.2811 88.5594L64.4999 87.0974Z" fill="#FCC24C"/>
<rect x="1" y="1" width="94" height="95" rx="20" stroke="#222222" stroke-width="1.5"/>
</svg>
