<svg width="24" height="25" viewBox="0 0 24 25" fill="none" xmlns="http://www.w3.org/2000/svg">
<rect x="2.55072" y="7.45126" width="13.25" height="14.8142" rx="1.625" transform="rotate(-7.09656 2.55072 7.45126)" stroke="#3A3847" stroke-width="0.75"/>
<rect x="7.50726" y="2.7709" width="13.25" height="17.25" rx="1.625" fill="white" stroke="#3A3847" stroke-width="0.75"/>
<path d="M17.8718 8.71549C17.4867 8.33032 16.9742 8.11802 16.4295 8.11802C15.8849 8.11802 15.3724 8.33032 14.9873 8.71549L14.6537 9.04905L14.3201 8.71549C14.3201 8.71549 14.3201 8.71548 14.3201 8.71548C13.935 8.33031 13.4225 8.11802 12.8779 8.11802C12.3333 8.11802 11.8207 8.33031 11.4356 8.71548C10.6403 9.51074 10.6403 10.8046 11.4356 11.5999L14.2004 14.3647C14.3255 14.4897 14.4898 14.5522 14.6537 14.5522C14.8175 14.5522 14.9819 14.4897 15.107 14.3648L15.107 14.3647L17.8718 11.6C18.2569 11.2149 18.4692 10.7023 18.4692 10.1577C18.4692 9.61306 18.2569 9.1006 17.8718 8.71549ZM17.8718 8.71549L17.8011 8.78619M17.8718 8.71549C17.8718 8.71549 17.8718 8.71549 17.8718 8.71548L17.8011 8.78619M17.8011 8.78619C18.1674 9.15255 18.3692 9.63959 18.3692 10.1577C18.3692 10.6758 18.1674 11.1629 17.8011 11.5293L15.0363 14.294L15.058 8.78619C15.4244 8.41978 15.9115 8.21802 16.4295 8.21802C16.9477 8.21802 17.4347 8.41978 17.8011 8.78619ZM14.0154 9.02006L14.0154 9.02006C13.7115 8.71608 13.3077 8.54887 12.8779 8.54887C12.448 8.54887 12.0443 8.71608 11.7403 9.02012C11.1131 9.64729 11.1131 10.668 11.7403 11.2953C11.7403 11.2953 11.7403 11.2953 11.7403 11.2953L14.505 14.06C14.5869 14.1419 14.7204 14.142 14.8023 14.06L14.0154 9.02006ZM14.0154 9.02006L14.5014 9.50594C14.5014 9.50594 14.5014 9.50594 14.5014 9.50594C14.5855 9.59006 14.7219 9.59006 14.806 9.50594L15.2919 9.02006C15.5959 8.71602 15.9996 8.54881 16.4295 8.54881C16.8594 8.54881 17.2631 8.71603 17.5671 9.02005C17.8711 9.32409 18.0383 9.72775 18.0383 10.1577C18.0383 10.5876 17.8711 10.9912 17.5671 11.2953C17.5671 11.2953 17.5671 11.2953 17.5671 11.2953L14.8024 14.06L14.0154 9.02006Z" fill="#3A3847" stroke="#3A3847" stroke-width="0.2"/>
</svg>
