<svg width="13" height="13" viewBox="0 0 13 13" fill="none" xmlns="http://www.w3.org/2000/svg">
<rect x="0.325" y="0.325" width="12.35" height="12.35" rx="2.675" stroke="black" stroke-width="0.65"/>
<rect x="2.26086" y="2.82608" width="1.13043" height="2.26087" rx="0.565217" fill="black"/>
<rect x="9.6087" y="2.82608" width="1.13043" height="2.26087" rx="0.565217" fill="black"/>
<mask id="path-4-inside-1" fill="white">
<path d="M9.0435 7.91303C9.0435 8.51265 8.77553 9.08771 8.29853 9.51171C7.82154 9.9357 7.17459 10.1739 6.50002 10.1739C5.82545 10.1739 5.17851 9.9357 4.70151 9.51171C4.22452 9.08771 3.95654 8.51265 3.95654 7.91303L6.50002 7.91303H9.0435Z"/>
</mask>
<path d="M9.0435 7.91303C9.0435 8.51265 8.77553 9.08771 8.29853 9.51171C7.82154 9.9357 7.17459 10.1739 6.50002 10.1739C5.82545 10.1739 5.17851 9.9357 4.70151 9.51171C4.22452 9.08771 3.95654 8.51265 3.95654 7.91303L6.50002 7.91303H9.0435Z" stroke="black" stroke-width="1.3" mask="url(#path-4-inside-1)"/>
</svg>
