<svg width="20" height="26" viewBox="0 0 20 26" fill="none" xmlns="http://www.w3.org/2000/svg">
<path d="M13.922 10.0756C13.922 12.3027 12.1399 14.0977 9.9543 14.0977C7.76871 14.0977 5.98663 12.3027 5.98663 10.0756C5.98663 7.84854 7.76871 6.0535 9.9543 6.0535C12.1399 6.0535 13.922 7.84853 13.922 10.0756Z" stroke="black" stroke-miterlimit="10"/>
<path d="M9.87788 25.2845C9.68828 25.0872 9.42947 24.8151 9.11882 24.4814C8.43587 23.7478 7.5035 22.7181 6.50587 21.5337C4.49879 19.1509 2.27035 16.1915 1.24423 13.768L1.11507 13.463H1.0454C1.00299 13.3659 0.968085 13.2542 0.927259 13.1236C0.916015 13.0877 0.904323 13.0503 0.891901 13.0114V13.011V13.0105V13.01V13.0096V13.0091V13.0087V13.0082V13.0077V13.0073V13.0068V13.0064V13.006V13.0055V13.0051V13.0046V13.0042V13.0038V13.0033V13.0029V13.0025V13.002V13.0016V13.0012V13.0007V13.0003V12.9999V12.9995V12.9991V12.9986V12.9982V12.9978V12.9974V12.997V12.9966V12.9962V12.9958V12.9954V12.995V12.9946V12.9942V12.9938V12.9934V12.993V12.9926V12.9922V12.9918V12.9914V12.9911V12.9907V12.9903V12.9899V12.9895V12.9892V12.9888V12.9884V12.988V12.9877V12.9873V12.9869V12.9866V12.9862V12.9858V12.9855V12.9851V12.9848V12.9844V12.9841V12.9837V12.9834V12.983V12.9827V12.9823V12.982V12.9816V12.9813V12.981V12.9806V12.9803V12.9799V12.9796V12.9793V12.9789V12.9786V12.9783V12.978V12.9776V12.9773V12.977V12.9767V12.9764V12.976V12.9757V12.9754V12.9751V12.9748V12.9745V12.9742V12.9739V12.9736V12.9733V12.973V12.9727V12.9724V12.9721V12.9718V12.9715V12.9712V12.9709V12.9706V12.9703V12.97V12.9697V12.9695V12.9692V12.9689V12.9686V12.9683V12.9681V12.9678V12.9675V12.9672V12.967V12.9667V12.9664V12.9662V12.9659V12.9656V12.9654V12.9651V12.9648V12.9646V12.9643V12.9641V12.9638V12.9635V12.9633V12.963V12.9628V12.9625V12.9623V12.9621V12.9618V12.9616V12.9613V12.9611V12.9608V12.9606V12.9604V12.9601V12.9599V12.9597V12.9594V12.9592V12.959V12.9587V12.9585V12.9583V12.9581V12.9578V12.9576V12.9574V12.9572V12.957V12.9568V12.9565V12.9563V12.9561V12.9559V12.9557V12.9555V12.9553V12.9551V12.9549V12.9547V12.9544V12.9542V12.954V12.9538V12.9536V12.9535V12.9533V12.9531V12.9529V12.9527V12.9525V12.9523V12.9521V12.9519V12.9517V12.9515V12.9514V12.9512V12.951V12.9508V12.9506V12.9505V12.9503V12.9501V12.9499V12.9497V12.9496V12.9494V12.9492V12.9491V12.9489V12.9487V12.9486V12.9484V12.9482V12.9481V12.9479V12.9477V12.9476V12.9474V12.9473V12.9471V12.947V12.9468V12.9466V12.9465V12.9463V12.9462V12.946V12.9459V12.9457V12.9456V12.9455V12.9453V12.9452V12.945V12.9449V12.9447V12.9446V12.9445V12.9443V12.9442V12.9441V12.9439V12.9438V12.9437V12.9435V12.9434V12.9433V12.9431V12.943V12.9429V12.9427V12.9426V12.9425V12.9424V12.9423V12.9421V12.942V12.9419V12.9418V12.9417V12.9415V12.9414V12.9413V12.9412V12.9411V12.941V12.9409V12.9408V12.9406V12.9405V12.9404V12.9403V12.9402V12.9401V12.94V12.9399V12.9398V12.9397V12.9396V12.9395V12.9394V12.9393V12.9392V12.9391V12.939V12.9389V12.9388V12.9387V12.9386V12.9385V12.9384V12.9384V12.9383V12.9382V12.9381V12.938V12.9379V12.9378V12.9377V12.9377V12.9376V12.9375V12.9374V12.9373V12.9373V12.9372V12.9371V12.937V12.9369V12.9369V12.9368V12.9367V12.9366V12.9366V12.9365V12.9364V12.9364V12.9363V12.9362V12.9361V12.9361V12.936V12.9359V12.9359V12.9358V12.9357V12.9357V12.9356V12.9356V12.9355V12.9354V12.9354V12.9353V12.9352V12.9352V12.9351V12.9351V12.935V12.935V12.9349V12.9348V12.9348V12.9347V12.9347V12.9346V12.9346V12.9345V12.9345V12.9344V12.9344V12.9343V12.9343V12.9342V12.9342V12.9341V12.9341V12.934V12.934V12.934V12.9339V12.9339V12.9338V12.9338V12.9337V12.9337V12.9337V12.9336V12.9336V12.9335V12.9335V12.9335V12.9334V12.9334V12.9334V12.9333V12.9333V12.9332V12.9332V12.9332V12.9331V12.9331V12.9331V12.933V12.933V12.933V12.933V12.9329V12.9329V12.9329V12.9328V12.9328V12.9328V12.9328V12.9327V12.9327V12.9327V12.9326V12.9326V12.9326V12.9326V12.9325V12.9325V12.9325V12.9325V12.9325V12.9324V12.9324V12.9324V12.9324V12.9323V12.9323V12.9323V12.9323V12.9323V12.9323V12.9322V12.9322V12.9322V12.9322V12.9322V12.9321V12.9321V12.9321V12.9321V12.9321V12.9321V12.9321V12.932V12.932V12.932V12.932V12.932V12.932V12.932V12.932V12.9319V12.9319V12.9319V12.9319V12.9319V12.9319V12.9319V12.9319V12.9319V12.9318V12.9318V12.9318V12.9318V12.9318V12.9318V12.9318V12.9318V12.9318V12.9318V12.9318V12.9317V12.9317V12.9317V12.9317V12.9317V12.9317V12.9317V12.9317V12.9317V12.9317V12.9316V12.9316V12.9316H0.391901L0.877314 12.8117C0.648538 11.8855 0.5 10.9753 0.5 9.99621C0.5 4.78987 4.67369 0.499939 9.8759 0.499939C15.0049 0.499939 19.2518 4.71574 19.2518 9.99621C19.2518 11.0037 19.1747 11.8955 18.885 12.7752L18.8599 12.8514V12.9316V12.9321V12.9326V12.933V12.9335V12.9339V12.9344V12.9348V12.9353V12.9357V12.9362V12.9366V12.9371V12.9375V12.938V12.9384V12.9388V12.9393V12.9397V12.9401V12.9406V12.941V12.9414V12.9418V12.9423V12.9427V12.9431V12.9435V12.9439V12.9444V12.9448V12.9452V12.9456V12.946V12.9464V12.9468V12.9472V12.9476V12.948V12.9484V12.9488V12.9492V12.9496V12.95V12.9504V12.9508V12.9511V12.9515V12.9519V12.9523V12.9527V12.953V12.9534V12.9538V12.9542V12.9545V12.9549V12.9553V12.9556V12.956V12.9564V12.9567V12.9571V12.9575V12.9578V12.9582V12.9585V12.9589V12.9592V12.9596V12.9599V12.9603V12.9606V12.961V12.9613V12.9616V12.962V12.9623V12.9626V12.963V12.9633V12.9636V12.964V12.9643V12.9646V12.9649V12.9653V12.9656V12.9659V12.9662V12.9665V12.9669V12.9672V12.9675V12.9678V12.9681V12.9684V12.9687V12.969V12.9693V12.9696V12.9699V12.9702V12.9705V12.9708V12.9711V12.9714V12.9717V12.972V12.9723V12.9726V12.9728V12.9731V12.9734V12.9737V12.974V12.9743V12.9745V12.9748V12.9751V12.9754V12.9756V12.9759V12.9762V12.9764V12.9767V12.977V12.9772V12.9775V12.9778V12.978V12.9783V12.9785V12.9788V12.979V12.9793V12.9795V12.9798V12.98V12.9803V12.9805V12.9808V12.981V12.9813V12.9815V12.9817V12.982V12.9822V12.9825V12.9827V12.9829V12.9832V12.9834V12.9836V12.9838V12.9841V12.9843V12.9845V12.9847V12.985V12.9852V12.9854V12.9856V12.9858V12.986V12.9863V12.9865V12.9867V12.9869V12.9871V12.9873V12.9875V12.9877V12.9879V12.9881V12.9883V12.9885V12.9887V12.9889V12.9891V12.9893V12.9895V12.9897V12.9899V12.9901V12.9903V12.9905V12.9907V12.9909V12.991V12.9912V12.9914V12.9916V12.9918V12.992V12.9921V12.9923V12.9925V12.9927V12.9928V12.993V12.9932V12.9934V12.9935V12.9937V12.9939V12.994V12.9942V12.9944V12.9945V12.9947V12.9948V12.995V12.9952V12.9953V12.9955V12.9956V12.9958V12.9959V12.9961V12.9962V12.9964V12.9965V12.9967V12.9968V12.997V12.9971V12.9973V12.9974V12.9976V12.9977V12.9978V12.998V12.9981V12.9983V12.9984V12.9985V12.9987V12.9988V12.9989V12.9991V12.9992V12.9993V12.9995V12.9996V12.9997V12.9998V13V13.0001V13.0002V13.0003V13.0005V13.0006V13.0007V13.0008V13.0009V13.001V13.0012V13.0013V13.0014V13.0015V13.0016V13.0017V13.0018V13.0019V13.0021V13.0022V13.0023V13.0024V13.0025V13.0026V13.0027V13.0028V13.0029V13.003V13.0031V13.0032V13.0033V13.0034V13.0035V13.0036V13.0037V13.0038V13.0039V13.004V13.004V13.0041V13.0042V13.0043V13.0044V13.0045V13.0046V13.0047V13.0048V13.0048V13.0049V13.005V13.0051V13.0052V13.0052V13.0053V13.0054V13.0055V13.0056V13.0056V13.0057V13.0058V13.0059V13.0059V13.006V13.0061V13.0062V13.0062V13.0063V13.0064V13.0064V13.0065V13.0066V13.0066V13.0067V13.0068V13.0068V13.0069V13.007V13.007V13.0071V13.0072V13.0072V13.0073V13.0073V13.0074V13.0075V13.0075V13.0076V13.0076V13.0077V13.0077V13.0078V13.0078V13.0079V13.008V13.008V13.0081V13.0081V13.0082V13.0082V13.0083V13.0083V13.0084V13.0084V13.0084V13.0085V13.0085V13.0086V13.0086V13.0087V13.0087V13.0088V13.0088V13.0088V13.0089V13.0089V13.009V13.009V13.009V13.0091V13.0091V13.0092V13.0092V13.0092V13.0093V13.0093V13.0093V13.0094V13.0094V13.0094V13.0095V13.0095V13.0095V13.0096V13.0096V13.0096V13.0097V13.0097V13.0097V13.0097V13.0098V13.0098V13.0098V13.0099V13.0099V13.0099V13.0099V13.01V13.01C18.8015 13.1866 18.7396 13.3692 18.6407 13.6269C18.5884 13.6785 18.553 13.7337 18.5295 13.7812C18.5084 13.8239 18.4951 13.8641 18.4865 13.898C17.4908 16.2695 15.2811 19.1837 13.2768 21.5419C12.2744 22.7212 11.3348 23.7484 10.6458 24.4807C10.3315 24.8148 10.0695 25.0873 9.87788 25.2845Z" stroke="black" stroke-miterlimit="10"/>
</svg>
