<svg width="68" height="57" viewBox="0 0 68 57" fill="none" xmlns="http://www.w3.org/2000/svg">
<path d="M56.0156 21C51.9766 21 48.2025 23 46.0175 26.2903L44.9581 27.8387C42.9718 23.7097 38.7342 21 33.9669 21C29.2658 21 25.0282 23.7097 23.0419 27.8387L21.9825 26.2903C19.7975 23 16.0234 21 11.9844 21C5.36319 21 0 26.2258 0 32.6774C0 35.5806 1.12561 38.3548 3.04576 40.4839C6.35638 44.2258 13.1762 52.0968 13.6397 52.6129C15.9572 55.3871 19.334 56.9355 22.9757 56.9355C26.8822 56.9355 30.5239 55.0645 32.7751 52.0323L32.8413 51.9032L33.9669 50.2903L34.9601 51.6452L35.0925 51.9032C35.0925 51.9677 35.1587 51.9677 35.1587 52.0323L35.2911 52.1613C37.5424 55.1936 41.1178 56.9355 44.9581 56.9355C48.5998 56.9355 51.9766 55.3226 54.2941 52.6129C54.7575 52.0968 61.5774 44.2258 64.888 40.4839C65.815 39.5161 66.4771 38.4194 67.0068 37.2581V37.1936C67.073 37.0645 67.1392 36.9355 67.2055 36.7419C67.2055 36.6774 67.2717 36.6774 67.2717 36.6129C67.3379 36.4839 67.3379 36.3548 67.4041 36.2258C67.4041 36.1613 67.4703 36.0968 67.4703 36.0323C67.5365 35.9032 67.5365 35.8387 67.5365 35.7097C67.5365 35.6452 67.6027 35.5806 67.6027 35.4516C67.6027 35.3226 67.6689 35.2581 67.6689 35.129C67.6689 35.0645 67.7352 34.9355 67.7352 34.871C67.7352 34.7419 67.8014 34.6774 67.8014 34.5484C67.8014 34.4839 67.8014 34.3548 67.8676 34.2903C67.8676 34.1613 67.8676 34.0968 67.9338 33.9677C67.9338 33.9032 67.9338 33.7742 67.9338 33.7097C67.9338 33.5806 67.9338 33.4516 67.9338 33.3226C67.9338 33.2581 67.9338 33.1935 67.9338 33.129C67.9338 32.9355 67.9338 32.7419 67.9338 32.5484C68 26.2258 62.6368 21 56.0156 21ZM6.02532 37.9677C4.70107 36.5484 3.90652 34.6129 3.90652 32.6774C3.90652 28.3548 7.5482 24.8065 11.9844 24.8065C14.5667 24.8065 17.0166 26.0323 18.5394 28.0968L19.0029 28.8065L21.1879 31.9677L19.5988 35.3226L19.4002 35.7742V35.8387C18.1422 38.7419 15.2288 40.6129 11.9844 40.6129C9.7332 40.5484 7.5482 39.5806 6.02532 37.9677ZM22.9757 53.1936C20.5258 53.1936 18.2746 52.1613 16.7517 50.2903L16.4869 50.0323C15.8909 49.3226 13.8384 47 11.5871 44.3548C11.7196 44.3548 11.852 44.3548 11.9844 44.3548C16.8179 44.3548 21.1217 41.5806 22.9757 37.2581L23.7702 35.5806L31.6495 46.871L29.6631 49.7097C28.1402 51.9032 25.6241 53.1936 22.9757 53.1936ZM25.6904 31.5161L26.5511 29.7097V29.6452C27.8092 26.6774 30.7225 24.8065 34.0331 24.8065C37.3437 24.8065 40.2571 26.7419 41.5151 29.6452V29.7097L42.3759 31.5161L33.9669 43.5161L25.6904 31.5161ZM51.3145 50.2258C49.7254 52.0968 47.4742 53.1936 45.0243 53.1936C42.3759 53.1936 39.8598 51.9032 38.3369 49.7742L36.3505 46.9355L44.2298 35.6452L45.0243 37.3226C46.9445 41.6452 51.2483 44.4194 56.0156 44.4194C56.0818 44.4194 56.148 44.4194 56.2142 44.4194C56.2804 44.4194 56.3466 44.4194 56.4129 44.4194C53.7644 47.3871 51.3807 50.1613 51.3145 50.2258ZM64.0273 33.4516C64.0273 33.5161 64.0273 33.6452 63.9611 33.7097C63.9611 33.9032 63.8948 34.0323 63.8948 34.1613C63.8948 34.2903 63.8286 34.3548 63.8286 34.4839C63.7624 34.6129 63.7624 34.8065 63.6962 34.9355C63.6962 35 63.63 35.129 63.63 35.1935C63.5638 35.3226 63.4976 35.5161 63.4976 35.6452C63.4314 35.7097 63.4314 35.8387 63.3651 35.9032C63.2989 36.0323 63.2327 36.2258 63.1665 36.3548C63.1003 36.4194 63.1003 36.4839 63.0341 36.5484C62.9679 36.6774 62.8354 36.871 62.7692 37C62.703 37.0645 62.703 37.129 62.6368 37.1936C62.5044 37.3226 62.4382 37.5161 62.3057 37.6452C62.2395 37.6452 62.2395 37.7097 62.1733 37.7742C61.7098 38.2903 61.1801 38.8065 60.518 39.1936C60.518 39.1936 60.518 39.1936 60.4518 39.1936C60.2532 39.3226 60.0545 39.4516 59.8559 39.5161C59.7897 39.5161 59.7897 39.5806 59.7235 39.5806C59.5248 39.7097 59.3262 39.7742 59.1276 39.8387C59.0613 39.8387 58.9951 39.9032 58.9951 39.9032C58.7965 39.9677 58.5979 40.0323 58.3992 40.0968C58.333 40.0968 58.2668 40.0968 58.2668 40.1613C58.0682 40.2258 57.8695 40.2903 57.6709 40.2903C57.6047 40.2903 57.6047 40.2903 57.5385 40.2903C57.3398 40.3548 57.075 40.3548 56.8101 40.4194H56.7439C56.4791 40.4194 56.2142 40.4839 55.9494 40.4839C52.705 40.4839 49.7916 38.6129 48.5336 35.7097V35.6452L46.7459 31.8387L48.9971 28.6129L49.1957 28.3548L49.2619 28.2903C50.7848 26.0968 53.3009 24.8065 55.9494 24.8065C60.3856 24.8065 64.0273 28.3548 64.0273 32.6774C64.0935 32.9355 64.0935 33.1935 64.0273 33.4516Z" fill="url(#paint0_linear)"/>
<g clip-path="url(#clip0)">
<path d="M27.4399 2.66667C28.1488 2.66667 28.7235 2.06971 28.7235 1.33333C28.7235 0.596954 28.1488 0 27.4399 0C26.7309 0 26.1562 0.596954 26.1562 1.33333C26.1562 2.06971 26.7309 2.66667 27.4399 2.66667Z" fill="#FFCB55"/>
<path d="M18.198 5.42248C18.8597 5.42248 19.3961 4.86533 19.3961 4.17804C19.3961 3.49075 18.8597 2.93359 18.198 2.93359C17.5364 2.93359 17 3.49075 17 4.17804C17 4.86533 17.5364 5.42248 18.198 5.42248Z" fill="#FFCB55"/>
<path d="M41.474 2.66667C42.183 2.66667 42.7577 2.06971 42.7577 1.33333C42.7577 0.596954 42.183 0 41.474 0C40.7651 0 40.1904 0.596954 40.1904 1.33333C40.1904 2.06971 40.7651 2.66667 41.474 2.66667Z" fill="#FFCB55"/>
<path d="M50.7166 5.42248C51.3783 5.42248 51.9146 4.86533 51.9146 4.17804C51.9146 3.49075 51.3783 2.93359 50.7166 2.93359C50.0549 2.93359 49.5186 3.49075 49.5186 4.17804C49.5186 4.86533 50.0549 5.42248 50.7166 5.42248Z" fill="#FFCB55"/>
<path d="M34.4576 14.3998C39.5065 14.3998 44.2987 14.8443 48.663 15.8221C48.663 12.8887 49.0053 8.97761 50.2889 5.42206C50.1178 5.33317 50.0322 5.33317 49.9466 5.15539C48.064 6.75539 47.5505 8.97761 46.1814 10.6665C44.4699 12.7109 42.4161 9.77762 41.3892 2.75539C41.3036 2.75539 41.218 2.75539 41.1325 2.6665C40.2767 4.44428 36.4258 11.5554 34.4576 11.5554C32.4894 11.5554 28.7241 4.44428 27.8684 2.6665C27.7828 2.6665 27.6972 2.6665 27.6117 2.75539C26.5848 9.77762 24.531 12.7109 22.8195 10.6665C21.4503 8.97761 20.8513 6.75539 19.0542 5.15539C18.9686 5.24428 18.7975 5.33317 18.7119 5.42206C19.9955 9.0665 20.3378 12.8887 20.3378 15.8221C24.7021 14.8443 29.4087 14.3998 34.4576 14.3998Z" fill="#FFCB55" stroke="#FFCB55" stroke-width="0.4279" stroke-miterlimit="10"/>
</g>
<defs>
<linearGradient id="paint0_linear" x1="3.5" y1="39" x2="68" y2="39" gradientUnits="userSpaceOnUse">
<stop stop-color="#00FFB9"/>
<stop offset="0.375" stop-color="#00FFB9"/>
<stop offset="0.520833" stop-color="#FFCB55"/>
</linearGradient>
<clipPath id="clip0">
<rect width="35" height="16" fill="white" transform="translate(17)"/>
</clipPath>
</defs>
</svg>
