<svg width="17" height="20" viewBox="0 0 17 20" fill="none" xmlns="http://www.w3.org/2000/svg">
<path d="M8.76277 12.1085C8.54235 12.1085 8.36603 12.2849 8.27786 12.4612C8.1897 12.6375 8.1456 12.8139 8.10152 12.9902C7.92519 13.7396 7.79294 14.5331 7.66069 15.2825C7.48436 16.2523 7.30804 17.2662 7.1317 18.2361C7.04354 18.7651 6.55863 19.0736 6.02963 18.9855C5.54472 18.8973 5.19205 18.4124 5.23613 17.8834C5.36838 17.0899 5.50064 16.2964 5.63289 15.5029C5.94147 13.7837 6.25005 12.1085 6.51455 10.3893C6.60271 9.77214 6.69087 9.11089 6.69087 8.49373C6.69087 7.74432 6.33821 7.39166 5.5888 7.39166C4.39856 7.39166 3.20832 7.39166 2.01808 7.39166C1.92991 7.39166 1.84174 7.39166 1.75358 7.39166C1.26867 7.25941 0.960094 6.81858 1.00418 6.33367C1.04826 5.84876 1.48908 5.49609 1.97399 5.49609C4.22222 5.49609 6.47046 5.49609 8.71869 5.49609C10.9669 5.49609 13.2151 5.49609 15.4634 5.49609C15.9483 5.49609 16.3891 5.84876 16.4332 6.33367C16.4773 6.81858 16.1687 7.30349 15.6838 7.39166C15.5956 7.39166 15.5075 7.39166 15.4193 7.39166C14.2291 7.39166 13.0388 7.39166 11.8486 7.39166C11.0992 7.39166 10.7024 7.74432 10.7465 8.49373C10.7465 9.11089 10.8347 9.77214 10.9228 10.3893C11.1873 12.1085 11.54 13.7837 11.8045 15.5029C11.9367 16.2964 12.069 17.0899 12.2012 17.8834C12.2894 18.4124 11.9367 18.8973 11.4077 18.9855C10.8787 19.0736 10.3938 18.7651 10.3057 18.2361C10.1293 17.2662 9.95301 16.2523 9.77668 15.2825C9.64443 14.5331 9.51218 13.7396 9.33585 12.9902C9.29177 12.8139 9.24769 12.6375 9.15952 12.4612C9.15952 12.2849 8.98318 12.1085 8.76277 12.1085Z" stroke="#4E37D3" stroke-width="0.85" stroke-miterlimit="10" stroke-linecap="round" stroke-linejoin="round"/>
<path d="M8.71823 1C9.77622 1 10.6579 1.83758 10.6579 2.89557C10.6579 3.99764 9.8203 4.83522 8.71823 4.83522C7.66023 4.83522 6.77856 3.99764 6.77856 2.93965C6.82265 1.83758 7.66023 1 8.71823 1Z" stroke="#4E37D3" stroke-width="0.85" stroke-miterlimit="10" stroke-linecap="round" stroke-linejoin="round"/>
</svg>
