<svg width="14" height="14" viewBox="0 0 14 14" fill="none" xmlns="http://www.w3.org/2000/svg">
<path fill-rule="evenodd" clip-rule="evenodd" d="M13.0917 0H8.48562C8.1693 0 7.79348 0.086627 7.57648 0.303632L0.25299 7.63499C-0.0843301 7.97319 -0.0843301 8.52357 0.25299 8.86221L5.1356 13.7466C5.4738 14.0835 6.01938 14.0848 6.3567 13.7483L13.6972 6.42353C13.9147 6.20652 14 5.79132 14 5.40675V0.910459C14 0.426573 13.5752 0 13.0917 0ZM10.4999 5.25012C9.53346 5.25012 8.74988 4.46654 8.74988 3.50008C8.74988 2.53362 9.53346 1.75004 10.4999 1.75004C11.4664 1.75004 12.25 2.53362 12.25 3.50008C12.25 4.46654 11.4664 5.25012 10.4999 5.25012Z" fill="#3A3847"/>
<path d="M6.10819 10.2778C5.83642 10.5496 5.53294 10.6719 5.19775 10.6447C4.90182 10.6206 4.60136 10.4862 4.29636 10.2416L3.96571 10.5722L3.62599 10.2325L3.95212 9.9064C3.59277 9.47458 3.41008 8.98991 3.40404 8.45241L3.88417 8.32558C3.89625 8.7725 4.04422 9.17412 4.32807 9.53044L5.45593 8.40258C5.29891 8.13685 5.19775 7.90584 5.15245 7.70956C5.04978 7.27472 5.16906 6.88668 5.51029 6.54546C6.0327 6.02305 6.62154 6.03513 7.27682 6.58169L7.60748 6.25103L7.9472 6.59075L7.61654 6.92141C7.89737 7.26264 8.06799 7.66879 8.12838 8.13987L7.67089 8.27122C7.56822 7.86658 7.42479 7.54196 7.24059 7.29737L6.11725 8.4207C6.232 8.61396 6.31655 8.77401 6.37091 8.90083C6.44942 9.08202 6.4917 9.24508 6.49774 9.39003C6.50679 9.71314 6.37695 10.0091 6.10819 10.2778ZM5.75036 7.60991C5.79263 7.75485 5.83642 7.87715 5.88171 7.9768L6.9054 6.95312C6.52793 6.66625 6.19576 6.66625 5.90889 6.95312C5.73375 7.12826 5.6809 7.34719 5.75036 7.60991ZM4.67232 9.86563C4.87162 10.0106 5.07092 10.077 5.27022 10.0649C5.43933 10.0529 5.58578 9.98491 5.70959 9.8611C5.80622 9.76447 5.86511 9.64217 5.88624 9.49421C5.90436 9.33718 5.84095 9.11976 5.696 8.84195L4.67232 9.86563Z" fill="white"/>
</svg>
