<svg width="18" height="17" viewBox="0 0 18 17" fill="none" xmlns="http://www.w3.org/2000/svg">
<path d="M14.4801 9.57439C13.8659 9.57439 13.3662 10.0741 13.3662 10.6882C13.3662 11.3023 13.8659 11.8021 14.4801 11.8021C15.0942 11.8021 15.5939 11.3023 15.5939 10.6882C15.5939 10.0741 15.0942 9.57439 14.4801 9.57439ZM14.4801 11.0595C14.2758 11.0595 14.1088 10.8932 14.1088 10.6882C14.1088 10.4833 14.2758 10.3169 14.4801 10.3169C14.6843 10.3169 14.8513 10.4833 14.8513 10.6882C14.8513 10.8932 14.6843 11.0595 14.4801 11.0595Z" fill="#4E37D3"/>
<path d="M17.4501 8.08925H14.4798C13.0467 8.08925 11.8809 9.25506 11.8809 10.6882C11.8809 12.1214 13.0467 13.2872 14.4798 13.2872H17.4501C17.655 13.2872 17.8214 13.1209 17.8214 12.9159V8.46054C17.8214 8.25559 17.655 8.08925 17.4501 8.08925ZM17.0788 12.5446H14.4798C13.4558 12.5446 12.6234 11.7115 12.6234 10.6882C12.6234 9.66499 13.4559 8.83183 14.4798 8.83183H17.0788V12.5446Z" fill="#4E37D3"/>
<path d="M13.6937 1.60221C13.5957 1.42104 13.3699 1.35421 13.1902 1.45073L7.67374 4.42097C7.4933 4.51826 7.42574 4.74325 7.52299 4.92369C7.58982 5.04844 7.71753 5.119 7.84973 5.119C7.90915 5.119 7.97003 5.1049 8.02645 5.07518L13.5429 2.10494C13.7234 2.00765 13.791 1.78266 13.6937 1.60221Z" fill="#4E37D3"/>
<path d="M6.68306 2.14879H4.08408C1.83266 2.14879 0 3.98068 0 6.23287V6.97542C0 7.18037 0.166346 7.34672 0.371293 7.34672C0.57624 7.34672 0.742586 7.18037 0.742586 6.97542V6.23287C0.742586 4.39057 2.24182 2.89134 4.08412 2.89134H6.68306C6.88801 2.89134 7.05436 2.72499 7.05436 2.52005C7.05436 2.3151 6.88801 2.14879 6.68306 2.14879Z" fill="#4E37D3"/>
<path d="M13.7375 2.14879C13.5326 2.14879 13.3662 2.31513 13.3662 2.52008C13.3662 2.72503 13.5326 2.89137 13.7375 2.89137C15.5798 2.89137 17.079 4.39061 17.079 6.23291V6.97546C17.079 7.18041 17.2454 7.34675 17.4503 7.34675C17.6553 7.34675 17.8216 7.18041 17.8216 6.97546V6.23291C17.8216 3.98068 15.9889 2.14879 13.7375 2.14879Z" fill="#4E37D3"/>
<path d="M15.183 4.58141L13.611 1.43738C13.2939 0.803216 12.7466 0.336167 12.0709 0.122309C11.3952 -0.0908182 10.6793 -0.0239875 10.0541 0.311662L2.42277 4.42102C2.24232 4.51754 2.17476 4.7433 2.27202 4.92374C2.3693 5.10419 2.59503 5.17175 2.77474 5.0745L10.4075 0.966603C10.8531 0.726013 11.3662 0.677734 11.8474 0.830714C12.33 0.982928 12.7206 1.31708 12.9471 1.77007L14.5191 4.91407C14.5845 5.044 14.7152 5.11902 14.851 5.11902C14.9067 5.11902 14.9632 5.10638 15.0166 5.07965C15.2 4.98758 15.2743 4.76481 15.183 4.58141Z" fill="#4E37D3"/>
<path d="M15.2225 4.37646H2.59898C1.16581 4.37646 0 5.54228 0 6.97541V14.401C0 15.8342 1.16581 17 2.59898 17H15.2226C16.6557 17 17.8215 15.8342 17.8215 14.401V6.97541C17.8215 5.54228 16.6557 4.37646 15.2225 4.37646ZM17.079 14.4011C17.079 15.4243 16.2465 16.2575 15.2226 16.2575H2.59898C1.57498 16.2575 0.742586 15.4243 0.742586 14.4011V6.97541C0.742586 5.95217 1.57501 5.11902 2.59898 5.11902H15.2226C16.2466 5.11902 17.079 5.95217 17.079 6.97541V14.4011Z" fill="#4E37D3"/>
</svg>
