<svg width="22" height="22" viewBox="0 0 22 22" fill="none" xmlns="http://www.w3.org/2000/svg">
<path d="M18.1544 11.4081C17.9776 11.4081 17.8342 11.5515 17.8342 11.7283C17.8342 11.9524 17.6519 12.1348 17.4277 12.1348C17.2036 12.1348 17.0212 11.9524 17.0212 11.7283C17.0212 11.5514 16.8778 11.4081 16.701 11.4081C16.5242 11.4081 16.3809 11.5515 16.3809 11.7283C16.3809 12.3055 16.8505 12.7751 17.4277 12.7751C18.0049 12.7751 18.4746 12.3055 18.4746 11.7283C18.4746 11.5514 18.3312 11.4081 18.1544 11.4081Z" fill="#4E37D3"/>
<path d="M21.1597 11.4604L20.2586 11.1717C20.1431 11.1347 20.0522 11.0426 20.0153 10.9253C19.8253 10.3214 19.5387 9.75455 19.1634 9.2403C18.9924 9.00591 18.8021 8.78208 18.5943 8.569C18.7273 7.98578 18.7996 7.32574 18.7902 6.7555C18.7768 5.93974 18.6138 5.46128 18.2918 5.29268C18.1185 5.20175 17.5908 4.92555 14.7348 6.23292C14.6672 6.26385 14.604 6.30197 14.5455 6.34562C14.353 6.29389 14.1562 6.24602 13.9582 6.20305C13.9343 6.19785 13.9098 6.19326 13.8857 6.18819C14.1172 5.68262 14.2523 5.13352 14.2777 4.56668C14.2856 4.38999 14.1488 4.24037 13.9721 4.23251C13.7959 4.22374 13.6458 4.36133 13.638 4.53801C13.5963 5.47005 13.2096 6.347 12.5494 7.0073C12.1549 7.4018 11.693 7.68835 11.2007 7.86882C10.3469 7.74903 9.47732 7.74903 8.62357 7.86882C8.13123 7.68835 7.66936 7.4018 7.27487 7.0073C6.57044 6.30287 6.18247 5.36628 6.18247 4.37005C6.18247 3.37378 6.57044 2.43723 7.27487 1.7328C7.9793 1.02833 8.91593 0.640363 9.91212 0.640363C10.9083 0.640363 11.8449 1.02833 12.5494 1.7328C12.8324 2.01588 13.0664 2.33892 13.2446 2.69285C13.3242 2.8508 13.5167 2.9144 13.6746 2.83482C13.8326 2.75533 13.8961 2.56279 13.8166 2.40488C13.6076 1.98984 13.3336 1.61141 13.0022 1.27995C12.1768 0.454566 11.0794 0 9.91216 0C8.74491 0 7.64749 0.454566 6.8221 1.27995C5.99672 2.10538 5.54215 3.20276 5.54215 4.37001C5.54215 5.53725 5.99672 6.63467 6.8221 7.46006C7.06019 7.69815 7.31921 7.9029 7.59318 8.07443C7.39411 8.12616 7.19679 8.18421 7.00141 8.24953C6.83371 8.3056 6.74322 8.48697 6.79929 8.65472C6.85532 8.82243 7.03678 8.91292 7.20444 8.85689C8.95052 8.27316 10.8738 8.27316 12.6199 8.85689C12.6536 8.86815 12.6878 8.87348 12.7214 8.87348C12.8553 8.87348 12.9802 8.78874 13.025 8.65472C13.0811 8.48701 12.9906 8.3056 12.8229 8.24953C12.6275 8.18421 12.43 8.12608 12.2309 8.07439C12.5049 7.90285 12.7641 7.69815 13.0022 7.46006C13.2128 7.24943 13.3988 7.01942 13.5602 6.77497C13.6485 6.79211 13.7361 6.81007 13.8224 6.82881C13.9374 6.85377 14.0519 6.88058 14.1653 6.90873C14.1617 6.92265 14.1581 6.93653 14.1551 6.95067C13.999 7.69166 14.0091 8.34702 14.1852 8.89844C14.3435 9.39408 14.6292 9.79563 15.0343 10.092C15.5117 10.4412 16.0881 10.5921 16.6102 10.5921C17.0032 10.5921 17.3654 10.5066 17.6315 10.3559C17.9324 10.1854 18.1846 9.82626 18.3842 9.28701C18.4764 9.39469 18.5639 9.50499 18.6463 9.61791C18.9805 10.0757 19.2356 10.5802 19.4045 11.1174C19.5037 11.433 19.75 11.6812 20.0633 11.7816L20.9645 12.0703C21.2009 12.1461 21.3598 12.3637 21.3598 12.612V14.1062C21.3598 14.3545 21.2009 14.5721 20.9645 14.6479L19.5126 15.1129C19.2803 15.1874 19.0837 15.347 18.9591 15.5625C18.3886 16.5483 17.4918 17.364 16.2934 17.9871C16.155 18.0592 16.0591 18.188 16.0302 18.3407L15.5652 20.803C15.5523 20.8708 15.4929 20.92 15.4238 20.92H13.9119C13.8429 20.92 13.7834 20.8708 13.7706 20.803L13.513 19.4422C13.4623 19.1745 13.2112 18.9966 12.9409 19.0376C12.2897 19.136 11.6186 19.1859 10.9464 19.1859C10.4463 19.1859 9.95268 19.158 9.47904 19.103C9.21714 19.0729 8.97316 19.2514 8.92422 19.51L8.67947 20.803C8.66662 20.8708 8.6072 20.92 8.53815 20.92H7.02621C6.95716 20.92 6.89773 20.8708 6.88471 20.8019L6.43698 18.4764C6.40814 18.3266 6.31404 18.1992 6.17865 18.1268C4.13574 17.0362 3.05594 15.2142 3.05594 12.8578C3.05594 11.6672 3.31641 10.6144 3.83011 9.7286C4.30946 8.90192 5.0096 8.21842 5.91104 7.69699C6.06409 7.60843 6.11639 7.41258 6.02787 7.25948C5.93936 7.10643 5.7435 7.05422 5.59041 7.14265C3.84248 8.15379 2.78824 9.71373 2.49799 11.695C2.46718 11.6922 2.43633 11.6895 2.40561 11.6863C2.41119 11.4726 2.37252 11.2569 2.2883 11.0475C2.10255 10.5858 1.72098 10.2525 1.31618 10.1985C0.997176 10.1558 0.693602 10.2912 0.482926 10.5696C0.177461 10.9732 0.227262 11.2927 0.322781 11.4895C0.484043 11.8218 0.898562 12.0569 1.58645 12.2046C1.56754 12.2329 1.54675 12.2614 1.52397 12.29C1.11753 12.7997 0.638687 12.9124 0.327766 12.923C0.14575 12.9292 0 13.0753 0 13.2574V13.259C0 13.4386 0.141754 13.5852 0.321234 13.5934C0.344223 13.5945 0.368242 13.595 0.39325 13.595C0.786672 13.595 1.4181 13.4499 2.02473 12.6892C2.12051 12.5692 2.19854 12.4425 2.25852 12.3116C2.31894 12.3185 2.37699 12.3243 2.43259 12.3295C2.42168 12.503 2.41566 12.6787 2.41566 12.8578C2.41566 14.191 2.7335 15.3798 3.36029 16.3911C3.93822 17.3235 4.76566 18.087 5.82046 18.6612L6.25573 20.922C6.32573 21.2919 6.64976 21.5603 7.02621 21.5603H8.53815C8.9146 21.5603 9.23862 21.2919 9.30862 20.922L9.52991 19.7529C9.9895 19.8016 10.4653 19.8263 10.9464 19.8263C11.6064 19.8263 12.2656 19.7803 12.9081 19.6895L13.1413 20.9221C13.2114 21.292 13.5354 21.5604 13.9118 21.5604H15.4238C15.8002 21.5604 16.1242 21.2919 16.1943 20.9219L16.647 18.5246C17.9261 17.8483 18.8903 16.9598 19.5132 15.8831C19.5581 15.8055 19.6273 15.7486 19.7079 15.7228L21.1597 15.2577C21.6623 15.0966 22 14.6339 22 14.1061V12.6119C22 12.0841 21.6623 11.6214 21.1597 11.4604ZM18.1018 7.65523C17.9786 8.70908 17.648 9.61056 17.3158 9.79868C16.9383 10.0125 16.0667 10.0538 15.4123 9.57511C14.7571 9.09584 14.539 8.23397 14.7816 7.08267C14.806 6.96704 14.8881 6.86696 15.0013 6.81514C16.6042 6.08141 17.5284 5.84143 17.8717 5.84143C17.9235 5.84143 17.9621 5.84689 17.9878 5.85694C18.0909 5.96685 18.2262 6.59166 18.1018 7.65523ZM0.898949 11.2099C0.86582 11.1416 0.944023 11.0215 0.993609 10.956C1.0722 10.8521 1.1446 10.8309 1.1993 10.8309C1.21086 10.8309 1.22164 10.8319 1.23153 10.8332C1.37874 10.8528 1.58499 11.0148 1.69426 11.2864C1.72 11.3504 1.75343 11.4563 1.76125 11.5884C1.31802 11.4965 0.973672 11.3642 0.898949 11.2099Z" fill="#4E37D3"/>
<path d="M10.2229 4.00306V2.85734C10.618 2.88557 10.7647 3.06617 10.9002 3.06617C11.0695 3.06617 11.1485 2.85171 11.1485 2.74446C11.1485 2.46787 10.6067 2.34936 10.2229 2.33806V2.18561C10.2229 2.11789 10.1382 2.0558 10.0535 2.0558C9.95753 2.0558 9.88981 2.11789 9.88981 2.18561V2.34928C9.35361 2.40574 8.8174 2.68796 8.8174 3.39913C8.8174 4.12161 9.38184 4.32481 9.88981 4.50541V5.83181C9.31407 5.78665 9.16171 5.39155 8.97544 5.39155C8.83433 5.39155 8.71582 5.57782 8.71582 5.7133C8.71582 5.98985 9.18994 6.36802 9.88981 6.37932V6.55429C9.88981 6.622 9.95757 6.68409 10.0535 6.68409C10.1382 6.68409 10.2229 6.622 10.2229 6.55429V6.36239C10.8325 6.2777 11.2501 5.8939 11.2501 5.19965C11.2501 4.43206 10.7139 4.18366 10.2229 4.00306ZM9.92367 3.89585C9.62452 3.78297 9.38184 3.66447 9.38184 3.34276C9.38184 3.04924 9.60759 2.90813 9.92367 2.86864V3.89585ZM10.189 5.82051V4.62959C10.4655 4.74809 10.6856 4.90613 10.6856 5.2617C10.6856 5.58349 10.4937 5.76409 10.189 5.82051Z" fill="#4E37D3"/>
</svg>
