<svg width="17" height="17" viewBox="0 0 17 17" fill="none" xmlns="http://www.w3.org/2000/svg">
<path d="M16.5949 16.4566L11.8257 11.4968C13.0422 10.2768 13.7958 8.595 13.7958 6.74017C13.7958 3.02345 10.7723 0 7.0556 0C3.33888 0 0.31543 3.02345 0.31543 6.74017C0.31543 10.4569 3.33888 13.4803 7.0556 13.4803C8.68704 13.4803 10.1843 12.8972 11.3513 11.9295L16.132 16.9015C16.195 16.9673 16.279 17 16.3635 17C16.4437 17 16.5236 16.9701 16.5859 16.9105C16.7136 16.7875 16.7175 16.5844 16.5949 16.4566ZM7.0556 12.8384C3.6929 12.8384 0.957351 10.1029 0.957351 6.74017C0.957351 3.37747 3.6929 0.641921 7.0556 0.641921C10.4183 0.641921 13.1539 3.37747 13.1539 6.74017C13.1539 10.1029 10.418 12.8384 7.0556 12.8384Z" fill="#828282"/>
</svg>
