<svg width="21" height="16" viewBox="0 0 21 16" fill="none" xmlns="http://www.w3.org/2000/svg">
<path d="M19.9004 15.3522H1.47916C1.21296 15.3522 1 15.1361 1 14.866V1.63167C1 1.36158 1.21296 1.14551 1.47916 1.14551H19.9536C20.2198 1.14551 20.4328 1.36158 20.4328 1.63167V14.866C20.3796 15.1361 20.1666 15.3522 19.9004 15.3522Z" stroke="#4E37D3" stroke-width="0.85" stroke-miterlimit="10" stroke-linecap="round" stroke-linejoin="round"/>
<path d="M20 4H1V5H20V4Z" fill="#4E37D3"/>
<path d="M17.5044 13.0289H16.0136C15.641 13.0289 15.3748 12.7048 15.3748 12.3807V10.8682C15.3748 10.4901 15.6942 10.22 16.0136 10.22H17.5044C17.8771 10.22 18.1433 10.5441 18.1433 10.8682V12.3807C18.1433 12.7588 17.8771 13.0289 17.5044 13.0289Z" stroke="#4E37D3" stroke-width="0.85" stroke-miterlimit="10" stroke-linecap="round" stroke-linejoin="round"/>
</svg>
