<svg width="124" height="124" viewBox="0 0 124 124" fill="none" xmlns="http://www.w3.org/2000/svg">
<circle cx="62" cy="62" r="62" fill="#4E37D3"/>
<path d="M67.2367 76.515L27.1743 97.2943C26.068 97.8681 25.064 96.8644 25.6381 95.7581L46.4174 55.6957L67.2367 76.515Z" fill="#CC1E1E"/>
<path d="M29.7724 87.7876L48.5534 86.206L36.0658 92.683L26.8301 93.4609L29.7724 87.7876Z" fill="#E0EBFC"/>
<path d="M66.8185 76.7319L59.6123 80.4695L32.3784 82.7632L35.3208 77.0902L62.1476 74.831C64.2499 76.2246 65.9333 76.9382 66.8185 76.7319Z" fill="#E0EBFC"/>
<path d="M54.5204 68.4124C54.9525 68.8445 55.3842 69.2631 55.8138 69.6702L38.4092 71.136L41.3519 65.4627L51.0421 64.6468C52.0775 65.8677 53.2465 67.1385 54.5204 68.4124Z" fill="#E0EBFC"/>
<path d="M62.3754 60.7945L63.5073 61.9264C63.6953 62.1144 64.0006 62.1144 64.1886 61.9264L67.134 58.981C67.322 58.793 67.322 58.4877 67.134 58.2997L66.0021 57.1678C65.8141 56.9798 65.5088 56.9798 65.3208 57.1678L62.3754 60.1132C62.1874 60.3015 62.1874 60.6065 62.3754 60.7945Z" fill="#F9CFCF"/>
<path d="M64.7516 35.3331L65.8835 36.465C66.0715 36.653 66.3768 36.653 66.5648 36.465L69.5102 33.5196C69.6982 33.3316 69.6982 33.0263 69.5102 32.8383L68.3783 31.7064C68.1903 31.5184 67.885 31.5184 67.697 31.7064L64.7516 34.6518C64.5633 34.8398 64.5633 35.1448 64.7516 35.3331Z" fill="#F9CFCF"/>
<path d="M88.9106 56.7637L90.5324 58.3855C90.7329 58.586 91.058 58.586 91.2585 58.3855L94.1591 55.4849C94.3596 55.2844 94.3596 54.9593 94.1591 54.7591L92.5373 53.1373C92.3368 52.9368 92.0117 52.9368 91.8115 53.1373L88.9109 56.0379C88.7101 56.2384 88.7101 56.5632 88.9106 56.7637Z" fill="#FCE06A"/>
<path d="M65.8667 50.2197L67.4417 51.7946C67.6409 51.9939 67.9636 51.9939 68.1629 51.7946L71.0684 48.8891C71.2676 48.6899 71.2676 48.3672 71.0684 48.168L69.4934 46.593C69.2942 46.3938 68.9715 46.3938 68.7722 46.593L65.8667 49.4985C65.6675 49.6975 65.6675 50.0204 65.8667 50.2197Z" fill="#00FFB9"/>
<path d="M78.5215 54.9617C78.2875 54.9617 78.0538 54.8724 77.8752 54.6939C77.5181 54.3371 77.5181 53.7582 77.8752 53.4014C78.8064 52.47 79.6452 52.3158 80.3191 52.1915C80.8932 52.0857 81.2722 52.016 81.8011 51.487C82.3298 50.9581 82.3999 50.5791 82.5056 50.005C82.6296 49.3311 82.7841 48.4923 83.7155 47.5611C84.6466 46.63 85.4851 46.4755 86.1591 46.3515C86.7331 46.2458 87.1122 46.1763 87.6411 45.6471C88.1697 45.1185 88.2395 44.7394 88.3452 44.1654C88.4692 43.4914 88.6237 42.6529 89.5548 41.7218C89.9119 41.3647 90.4902 41.3647 90.8473 41.7218C91.2044 42.0786 91.2044 42.6575 90.8473 43.0143C90.3187 43.5429 90.2489 43.9219 90.1432 44.496C90.0192 45.1699 89.8647 46.0084 88.9336 46.9396C88.0025 47.871 87.1637 48.0252 86.4897 48.1495C85.9157 48.2552 85.5366 48.3247 85.008 48.8536C84.4794 49.3826 84.4093 49.7616 84.3035 50.3359C84.1795 51.0099 84.0251 51.8484 83.0936 52.7795C82.1625 53.7109 81.324 53.8651 80.65 53.9894C80.0757 54.0952 79.6967 54.1649 79.1677 54.6939C78.9892 54.8724 78.7552 54.9617 78.5215 54.9617Z" fill="#F9CFCF"/>
<path d="M69.978 42.4534C69.744 42.4534 69.5103 42.3641 69.3318 42.1855C68.9747 41.8287 68.9747 41.2498 69.3318 40.8931C70.2407 39.9842 71.0246 39.788 71.6544 39.6304C72.1901 39.4967 72.5767 39.3998 73.1279 38.8489C73.6788 38.2977 73.7753 37.9111 73.9091 37.3754C74.0666 36.7456 74.2622 35.9617 75.1717 35.0528C76.0806 34.1439 76.8646 33.948 77.4944 33.7905C78.0297 33.6567 78.4167 33.5598 78.9675 33.0093C79.5184 32.4584 79.615 32.0717 79.7484 31.5361C79.906 30.9066 80.1016 30.1227 81.0108 29.2138C81.3679 28.8567 81.9462 28.8567 82.3032 29.2138C82.6603 29.5706 82.6603 30.1495 82.3032 30.5063C81.7524 31.0571 81.6558 31.4438 81.5223 31.9794C81.3648 32.6089 81.1692 33.3929 80.26 34.3018C79.3508 35.2106 78.5672 35.4065 77.9374 35.5641C77.402 35.6978 77.0151 35.7947 76.4642 36.3453C75.9133 36.8965 75.8168 37.2831 75.683 37.8188C75.5255 38.4485 75.3299 39.2325 74.4204 40.1414C73.5115 41.0503 72.7275 41.2465 72.0977 41.404C71.5621 41.5378 71.1754 41.6347 70.6243 42.1855C70.4457 42.3641 70.2117 42.4534 69.978 42.4534Z" fill="#00FFB9"/>
<path d="M88.6127 35.3331L89.7446 36.465C89.9326 36.653 90.2379 36.653 90.4259 36.465L93.3713 33.5196C93.5593 33.3316 93.5593 33.0263 93.3713 32.8383L92.2394 31.7064C92.0514 31.5184 91.7461 31.5184 91.5581 31.7064L88.6127 34.6518C88.4247 34.8398 88.4247 35.1448 88.6127 35.3331Z" fill="#00FFB9"/>
<path d="M38.4294 34.7189C37.7146 36.2814 36.5285 37.583 35.0526 38.4431C34.7878 38.5973 34.7878 38.9718 35.0526 39.1263C36.5288 39.9864 37.7146 41.288 38.4294 42.8504C38.5684 43.1539 39.001 43.1539 39.14 42.8504C39.8548 41.288 41.0409 39.9864 42.5168 39.1263C42.7816 38.9721 42.7816 38.5976 42.5168 38.4431C41.0406 37.583 39.8548 36.2814 39.14 34.7189C39.001 34.4152 38.5684 34.4152 38.4294 34.7189Z" fill="#FFEA92"/>
<path d="M38.79 33.0832C38.7494 33.0832 38.7086 33.0804 38.6678 33.0749C37.8777 32.9686 37.8716 32.1971 37.8692 31.8675C37.8677 31.6703 37.8668 31.3882 37.8662 31.05C37.8652 30.3775 37.8658 29.4818 37.8674 28.5854C37.8701 26.7947 37.8759 25.0041 37.8759 25.0041C37.8774 24.5004 38.2863 24.093 38.79 24.093H38.7927C39.2976 24.0946 39.7056 24.5053 39.704 25.0102C39.6958 27.6308 39.6882 31.6024 39.6998 32.078C39.7104 32.1855 39.7022 32.2965 39.6723 32.4064C39.5633 32.8095 39.1976 33.0832 38.79 33.0832Z" fill="#E18152"/>
<path d="M38.7898 64.9817C38.7739 64.9817 38.7578 64.9814 38.7416 64.9805C38.0683 64.9454 37.9165 64.4439 37.8812 63.9695H37.8809C37.8809 63.9689 37.8809 63.968 37.8812 63.9674C37.8711 63.8327 37.8705 63.7002 37.8702 63.581C37.869 63.2648 37.8678 62.8074 37.8672 62.2432C37.8666 61.7383 38.2752 61.3285 38.78 61.3279H38.7813C39.2855 61.3279 39.6947 61.7365 39.6953 62.2407C39.6968 63.5143 39.6996 63.8906 39.7014 63.9942C39.7057 64.0494 39.7051 64.1051 39.699 64.1621C39.649 64.6295 39.2544 64.9817 38.7898 64.9817Z" fill="#E18152"/>
<path d="M38.7798 60.2059C38.2749 60.2059 37.8657 59.7967 37.8657 59.2918L37.8663 56.3397C37.8663 55.8352 38.2758 55.426 38.7804 55.426H38.7807C39.2856 55.4263 39.6945 55.8358 39.6945 56.3403L39.6938 59.2921C39.6938 59.797 39.2843 60.2059 38.7798 60.2059ZM38.7822 54.3017C38.7819 54.3017 38.7819 54.3017 38.7816 54.3017C38.2767 54.3014 37.8679 53.8916 37.8682 53.387L37.8706 50.4352C37.8709 49.9306 38.2801 49.5217 38.7847 49.5217H38.7853C39.2901 49.522 39.699 49.9318 39.6987 50.4364L39.6963 53.3882C39.696 53.8931 39.2868 54.3017 38.7822 54.3017Z" fill="#E18152"/>
<path d="M38.7876 48.4C38.7873 48.4 38.787 48.4 38.7867 48.4C38.2818 48.3994 37.8729 47.9895 37.8735 47.4847L37.8757 45.6572C37.8763 45.1526 38.2855 44.744 38.7897 44.744H38.7906C39.2955 44.7446 39.7044 45.1544 39.7038 45.659L39.7017 47.4871C39.7011 47.9914 39.2919 48.4 38.7876 48.4Z" fill="#E18152"/>
<path d="M45.3111 39.8278C45.2319 39.8278 45.1517 39.8174 45.0716 39.7958C44.6286 39.6757 44.3425 39.2458 44.4037 38.7912C44.5101 38.0012 45.2815 37.9954 45.6112 37.9927C45.8087 37.9911 46.0905 37.9902 46.4287 37.9896C47.1014 37.9893 47.9975 37.9896 48.893 37.9908C50.6837 37.9939 52.474 37.9994 52.474 37.9994C52.9789 38.0009 53.3868 38.4116 53.3853 38.9165C53.3838 39.4201 52.9749 39.8275 52.4713 39.8275C52.4703 39.8275 52.4694 39.8275 52.4685 39.8275C49.8479 39.819 45.876 39.8107 45.4004 39.8232C45.3708 39.8266 45.341 39.8278 45.3111 39.8278Z" fill="#E18152"/>
<path d="M25.7108 39.8384C25.6307 39.8384 25.5493 39.8277 25.4686 39.8058C25.0268 39.6845 24.7422 39.2543 24.8038 38.8003C24.9113 38.0118 25.6819 38.006 26.0109 38.0032C26.2084 38.0017 26.4902 38.0008 26.8284 38.0002C27.5002 37.9993 28.3966 37.9999 29.293 38.0014C31.0837 38.0045 32.874 38.0099 32.874 38.0099C33.3789 38.0115 33.7869 38.4222 33.785 38.927C33.7835 39.4307 33.3743 39.8381 32.871 39.8381C32.8701 39.8381 32.8691 39.8381 32.8679 39.8381C30.2485 39.8298 26.2775 39.8219 25.8007 39.8338C25.7711 39.8368 25.741 39.8384 25.7108 39.8384Z" fill="#E18152"/>
<path d="M46.7761 47.5132C46.5412 47.5132 46.306 47.423 46.1274 47.2429C44.6735 45.7777 42.317 43.4102 42.0005 43.1098C41.9039 43.0312 41.8216 42.9316 41.7619 42.8134C41.5587 42.4121 41.6772 41.9215 42.0419 41.6583C42.6778 41.1985 43.0318 41.551 43.8859 42.4023C44.281 42.796 44.8063 43.3225 45.331 43.849C46.3791 44.9011 47.4251 45.955 47.4251 45.955C47.7807 46.3133 47.7785 46.8919 47.4202 47.2478C47.242 47.4248 47.0089 47.5132 46.7761 47.5132Z" fill="#E18152"/>
<path d="M35.5969 36.349C35.362 36.349 35.1268 36.2589 34.9482 36.0788C33.4943 34.6135 31.1378 32.2458 30.8213 31.9454C30.7247 31.8668 30.6424 31.7672 30.5827 31.6489C30.3795 31.2477 30.498 30.7571 30.8627 30.4939C31.4989 30.0341 31.8526 30.3866 32.7067 31.2379C33.1018 31.6319 33.6271 32.1581 34.1518 32.6849C35.1999 33.737 36.2459 34.7909 36.2459 34.7909C36.6015 35.1492 36.5993 35.7281 36.241 36.0837C36.0628 36.2604 35.8297 36.349 35.5969 36.349Z" fill="#E18152"/>
<path d="M31.4047 47.5133C31.1698 47.5133 30.9345 47.4231 30.756 47.243C30.4004 46.8847 30.4026 46.3061 30.7609 45.9502C32.2264 44.4963 34.5948 42.1389 34.8946 41.8233C34.9726 41.7273 35.0713 41.6456 35.1883 41.5862C35.5893 41.3812 36.0807 41.4991 36.3446 41.8641C36.8053 42.5006 36.4527 42.8543 35.6011 43.7093C35.2075 44.1045 34.681 44.6297 34.1545 45.1541C33.1021 46.2022 32.0485 47.2482 32.0485 47.2482C31.8702 47.4249 31.6375 47.5133 31.4047 47.5133Z" fill="#E18152"/>
<path d="M42.5692 36.3346C42.3343 36.3346 42.0991 36.2444 41.9205 36.0643C41.565 35.706 41.5671 35.1274 41.9254 34.7715C43.391 33.3175 45.7593 30.9602 46.0591 30.6445C46.1371 30.5485 46.2358 30.4669 46.3528 30.4075C46.7538 30.2024 47.2453 30.3203 47.5091 30.6853C47.9698 31.3218 47.6173 31.6756 46.7657 32.5305C46.372 32.9257 45.8455 33.451 45.319 33.9754C44.2666 35.0235 43.213 36.0695 43.213 36.0695C43.0348 36.2462 42.802 36.3346 42.5692 36.3346Z" fill="#E18152"/>
<path d="M35.0013 27.52C34.6883 28.204 34.1689 28.774 33.5226 29.1509C33.4065 29.2186 33.4065 29.3825 33.5226 29.4501C34.1689 29.8267 34.6883 30.3968 35.0013 31.0808C35.0622 31.2137 35.2514 31.2137 35.3123 31.0808C35.6253 30.3965 36.1448 29.8267 36.791 29.4501C36.9071 29.3825 36.9071 29.2186 36.791 29.1509C36.1444 28.7743 35.6253 28.2043 35.3123 27.52C35.2517 27.3871 35.0622 27.3871 35.0013 27.52Z" fill="#FFEA92"/>
<path d="M42.2464 27.52C41.9335 28.204 41.414 28.774 40.7677 29.1509C40.6516 29.2186 40.6516 29.3825 40.7677 29.4501C41.414 29.8267 41.9335 30.3968 42.2464 31.0808C42.3073 31.2137 42.4965 31.2137 42.5575 31.0808C42.8704 30.3965 43.3899 29.8267 44.0361 29.4501C44.1522 29.3825 44.1522 29.2186 44.0361 29.1509C43.3896 28.7743 42.8704 28.2043 42.5575 27.52C42.4968 27.3871 42.3073 27.3871 42.2464 27.52Z" fill="#FFEA92"/>
<path d="M35.0013 47.4588C34.6883 48.1428 34.1689 48.7129 33.5226 49.0898C33.4065 49.1574 33.4065 49.3214 33.5226 49.389C34.1689 49.7656 34.6883 50.3357 35.0013 51.0197C35.0622 51.1525 35.2514 51.1525 35.3123 51.0197C35.6253 50.3354 36.1448 49.7656 36.791 49.389C36.9071 49.3214 36.9071 49.1574 36.791 49.0898C36.1444 48.7132 35.6253 48.1431 35.3123 47.4588C35.2517 47.3257 35.0622 47.3257 35.0013 47.4588Z" fill="#FFEA92"/>
<path d="M42.2464 47.4588C41.9335 48.1428 41.414 48.7129 40.7677 49.0898C40.6516 49.1574 40.6516 49.3214 40.7677 49.389C41.414 49.7656 41.9335 50.3357 42.2464 51.0197C42.3073 51.1525 42.4965 51.1525 42.5575 51.0197C42.8704 50.3354 43.3899 49.7656 44.0361 49.389C44.1522 49.3214 44.1522 49.1574 44.0361 49.0898C43.3896 48.7132 42.8704 48.1431 42.5575 47.4588C42.4968 47.3257 42.3073 47.3257 42.2464 47.4588Z" fill="#FFEA92"/>
<path d="M48.7351 40.7657C48.4222 41.4497 47.9027 42.0198 47.2565 42.3967C47.1404 42.4643 47.1404 42.6283 47.2565 42.6959C47.9027 43.0725 48.4222 43.6426 48.7351 44.3266C48.7961 44.4594 48.9853 44.4594 49.0462 44.3266C49.3591 43.6423 49.8786 43.0725 50.5249 42.6959C50.641 42.6283 50.641 42.4643 50.5249 42.3967C49.8783 42.0201 49.3591 41.45 49.0462 40.7657C48.9856 40.6329 48.7961 40.6329 48.7351 40.7657Z" fill="#FFEA92"/>
<path d="M48.7351 33.5209C48.4222 34.205 47.9027 34.775 47.2565 35.1519C47.1404 35.2196 47.1404 35.3835 47.2565 35.4511C47.9027 35.8277 48.4222 36.3978 48.7351 37.0818C48.7961 37.2147 48.9853 37.2147 49.0462 37.0818C49.3591 36.3975 49.8786 35.8277 50.5249 35.4511C50.641 35.3835 50.641 35.2196 50.5249 35.1519C49.8783 34.7753 49.3591 34.2053 49.0462 33.5209C48.9856 33.3878 48.7961 33.3878 48.7351 33.5209Z" fill="#FFEA92"/>
<path d="M29.135 40.7657C28.8221 41.4497 28.3026 42.0198 27.6564 42.3967C27.5403 42.4643 27.5403 42.6283 27.6564 42.6959C28.3026 43.0725 28.8221 43.6426 29.135 44.3266C29.196 44.4594 29.3852 44.4594 29.4461 44.3266C29.759 43.6423 30.2785 43.0725 30.9248 42.6959C31.0409 42.6283 31.0409 42.4643 30.9248 42.3967C30.2782 42.0201 29.759 41.45 29.4461 40.7657C29.3852 40.6329 29.1957 40.6329 29.135 40.7657Z" fill="#FFEA92"/>
<path d="M29.135 33.5209C28.8221 34.205 28.3026 34.775 27.6564 35.1519C27.5403 35.2196 27.5403 35.3835 27.6564 35.4511C28.3026 35.8277 28.8221 36.3978 29.135 37.0818C29.196 37.2147 29.3852 37.2147 29.4461 37.0818C29.759 36.3975 30.2785 35.8277 30.9248 35.4511C31.0409 35.3835 31.0409 35.2196 30.9248 35.1519C30.2782 34.7753 29.759 34.2053 29.4461 33.5209C29.3852 33.3878 29.1957 33.3878 29.135 33.5209Z" fill="#FFEA92"/>
<path d="M84.5563 75.2737C83.9128 76.6798 82.8455 77.8513 81.5171 78.6256C81.2788 78.7645 81.2788 79.1015 81.5171 79.2404C82.8455 80.0143 83.9128 81.1858 84.5563 82.5923C84.6813 82.8656 85.0706 82.8656 85.1956 82.5923C85.8391 81.1862 86.9064 80.0146 88.2348 79.2404C88.4731 79.1015 88.4731 78.7645 88.2348 78.6256C86.9064 77.8513 85.8391 76.6798 85.1956 75.2737C85.0706 75.0007 84.6813 75.0007 84.5563 75.2737Z" fill="#FFEA92"/>
<path d="M84.8814 73.3838C84.8342 73.3838 84.786 73.3804 84.7382 73.374C83.8174 73.25 83.8104 72.3539 83.8077 72.0169C83.8062 71.8195 83.8052 71.537 83.8046 71.1985C83.8037 70.5261 83.8043 69.6297 83.8058 68.7333C83.8089 66.9424 83.8144 65.152 83.8144 65.152C83.8162 64.564 84.2933 64.089 84.8808 64.089H84.8841C85.4734 64.0908 85.949 64.5698 85.9472 65.1587C85.939 67.7653 85.931 71.7189 85.9426 72.2168C85.9542 72.3405 85.9445 72.4685 85.91 72.5955C85.783 73.0654 85.3564 73.3838 84.8814 73.3838Z" fill="#E18152"/>
<path d="M84.8813 99.3435C84.8539 99.3435 84.8265 99.3426 84.7988 99.3405C83.8149 99.2646 83.8107 98.3362 83.8082 97.7814C83.8067 97.4615 83.8055 97.0035 83.8052 96.4514C83.8046 95.8622 84.2817 95.3847 84.8707 95.3841H84.8716C85.4602 95.3841 85.9374 95.8609 85.938 96.4496C85.9389 97.7369 85.9426 98.0919 85.9444 98.1891C85.9508 98.2713 85.9483 98.3551 85.9349 98.4401C85.8533 98.9627 85.4024 99.3435 84.8813 99.3435Z" fill="#E18152"/>
<path d="M84.8711 94.5776C84.8708 94.5776 84.8708 94.5776 84.8705 94.5776C84.2812 94.5773 83.8044 94.0996 83.8047 93.5106L83.8077 90.5707C83.8083 89.982 84.2858 89.5055 84.8741 89.5055H84.8754C85.4646 89.5061 85.9412 89.9842 85.9406 90.5731L85.9375 93.5121C85.9372 94.1005 85.4598 94.5776 84.8711 94.5776Z" fill="#E18152"/>
<path d="M84.8784 88.7013C84.8778 88.7013 84.8772 88.7013 84.8766 88.7013C84.2876 88.7004 83.8111 88.2223 83.812 87.6331L83.8151 85.8049C83.816 85.2166 84.2931 84.7404 84.8815 84.7404H84.8833C85.4723 84.7413 85.9488 85.2193 85.9479 85.8086L85.9448 87.6367C85.9439 88.2248 85.4668 88.7013 84.8784 88.7013Z" fill="#E18152"/>
<path d="M91.4018 80.1285C91.3095 80.1285 91.2156 80.1163 91.1221 80.0911C90.6057 79.9509 90.272 79.4497 90.3436 78.9189C90.4676 77.9982 91.3637 77.9911 91.7007 77.9884C91.8981 77.9869 92.1806 77.986 92.5191 77.9854C93.1922 77.9844 94.0879 77.9854 94.9843 77.9866C96.7753 77.9896 98.5656 77.9951 98.5656 77.9951C99.1549 77.9969 99.6305 78.4759 99.6287 79.0649C99.6269 79.6529 99.1497 80.1279 98.5623 80.1279C98.5611 80.1279 98.5601 80.1279 98.5589 80.1279C95.9523 80.1197 91.9981 80.1118 91.5008 80.1233C91.4682 80.127 91.435 80.1285 91.4018 80.1285Z" fill="#E18152"/>
<path d="M71.8024 80.1386C71.7103 80.1386 71.6168 80.1267 71.5236 80.1014C71.0068 79.9619 70.6729 79.4604 70.7439 78.9296C70.8676 78.0082 71.764 78.0012 72.1012 77.9985C72.2987 77.997 72.5808 77.996 72.9196 77.9954C73.5927 77.9948 74.4885 77.9957 75.3846 77.9967C77.1755 77.9997 78.9659 78.0052 78.9659 78.0052C79.5551 78.007 80.0308 78.486 80.0289 79.0749C80.0271 79.663 79.55 80.138 78.9625 80.138C78.9613 80.138 78.9604 80.138 78.9592 80.138C76.3526 80.1295 72.3986 80.1219 71.9014 80.1334C71.8688 80.1371 71.8356 80.1386 71.8024 80.1386Z" fill="#E18152"/>
<path d="M92.8674 87.814C92.5932 87.814 92.319 87.7089 92.1106 87.4989C90.6654 86.0428 88.3212 83.6873 87.9912 83.3725C87.8809 83.282 87.7871 83.1678 87.7182 83.0325C87.4799 82.5645 87.618 81.9917 88.0433 81.684C88.7852 81.1471 89.2462 81.6075 90.0847 82.4429C90.4802 82.8369 91.0052 83.3634 91.5301 83.8902C92.5783 84.9423 93.6243 85.9962 93.6243 85.9962C94.0389 86.4142 94.0368 87.0897 93.6185 87.5044C93.4107 87.711 93.1389 87.814 92.8674 87.814Z" fill="#E18152"/>
<path d="M81.6881 76.6494C81.4138 76.6494 81.1396 76.5443 80.9312 76.3344C79.4867 74.8786 77.1427 72.5236 76.8118 72.2086C76.7003 72.1169 76.6056 72.0014 76.5367 71.8643C76.3006 71.396 76.4398 70.8247 76.8652 70.5182C77.6056 69.985 78.0669 70.4435 78.9054 71.2784C79.3005 71.6723 79.8258 72.1988 80.3508 72.7256C81.3989 73.7777 82.4449 74.8316 82.4449 74.8316C82.8596 75.2497 82.8574 75.9252 82.4391 76.3398C82.2313 76.5464 81.9598 76.6494 81.6881 76.6494Z" fill="#E18152"/>
<path d="M77.4955 87.814C77.2213 87.814 76.9471 87.7089 76.7387 87.499C76.324 87.081 76.3261 86.4055 76.7445 85.9908C78.2015 84.545 80.5576 82.2002 80.8715 81.8711C80.9617 81.7614 81.0753 81.6682 81.2094 81.5993C81.6777 81.3595 82.2508 81.4976 82.5591 81.9229C83.0966 82.6645 82.6362 83.1264 81.8005 83.9652C81.4065 84.3607 80.88 84.8857 80.3535 85.4107C79.3011 86.4588 78.2472 87.5048 78.2472 87.5048C78.0391 87.7111 77.7673 87.814 77.4955 87.814Z" fill="#E18152"/>
<path d="M88.6606 76.6352C88.3864 76.6352 88.1121 76.53 87.9037 76.3201C87.4891 75.9021 87.4912 75.2266 87.9095 74.8119C89.3653 73.3671 91.7206 71.0231 92.0356 70.6925C92.127 70.581 92.2425 70.4863 92.3796 70.4174C92.8473 70.181 93.4189 70.3205 93.7257 70.7459C94.2598 71.4872 93.8 71.9482 92.9655 72.7857C92.5715 73.1812 92.045 73.7065 91.5182 74.2315C90.4662 75.2796 89.4122 76.3256 89.4122 76.3256C89.2038 76.5322 88.9324 76.6352 88.6606 76.6352Z" fill="#E18152"/>
<path d="M81.0926 67.6686C80.7797 68.3527 80.2602 68.9227 79.6139 69.2996C79.4978 69.3673 79.4978 69.5312 79.6139 69.5988C80.2605 69.9754 80.7797 70.5455 81.0926 71.2295C81.1535 71.3624 81.3427 71.3624 81.4037 71.2295C81.7166 70.5452 82.2361 69.9754 82.8823 69.5988C82.9984 69.5312 82.9984 69.3673 82.8823 69.2996C82.2358 68.923 81.7166 68.353 81.4037 67.6686C81.343 67.5355 81.1535 67.5355 81.0926 67.6686Z" fill="#FFEA92"/>
<path d="M88.3377 67.6686C88.0248 68.3527 87.5053 68.9227 86.859 69.2996C86.743 69.3673 86.743 69.5312 86.859 69.5988C87.5056 69.9754 88.0248 70.5455 88.3377 71.2295C88.3986 71.3624 88.5878 71.3624 88.6488 71.2295C88.9617 70.5452 89.4812 69.9754 90.1274 69.5988C90.2435 69.5312 90.2435 69.3673 90.1274 69.2996C89.4809 68.923 88.9617 68.353 88.6488 67.6686C88.5878 67.5355 88.3986 67.5355 88.3377 67.6686Z" fill="#FFEA92"/>
<path d="M81.0926 87.6071C80.7797 88.2911 80.2602 88.8612 79.6139 89.2381C79.4978 89.3057 79.4978 89.4697 79.6139 89.5373C80.2605 89.9139 80.7797 90.484 81.0926 91.168C81.1535 91.3008 81.3427 91.3008 81.4037 91.168C81.7166 90.4837 82.2361 89.9139 82.8823 89.5373C82.9984 89.4697 82.9984 89.3057 82.8823 89.2381C82.2358 88.8615 81.7166 88.2914 81.4037 87.6071C81.343 87.4743 81.1535 87.4743 81.0926 87.6071Z" fill="#FFEA92"/>
<path d="M88.3377 87.6071C88.0248 88.2911 87.5053 88.8612 86.859 89.2381C86.743 89.3057 86.743 89.4697 86.859 89.5373C87.5056 89.9139 88.0248 90.484 88.3377 91.168C88.3986 91.3008 88.5878 91.3008 88.6488 91.168C88.9617 90.4837 89.4812 89.9139 90.1274 89.5373C90.2435 89.4697 90.2435 89.3057 90.1274 89.2381C89.4809 88.8615 88.9617 88.2914 88.6488 87.6071C88.5878 87.4743 88.3986 87.4743 88.3377 87.6071Z" fill="#FFEA92"/>
<path d="M94.826 80.9146C94.5131 81.5986 93.9936 82.1686 93.3473 82.5455C93.2312 82.6132 93.2312 82.7771 93.3473 82.8447C93.9939 83.2213 94.5131 83.7914 94.826 84.4754C94.8869 84.6083 95.0761 84.6083 95.1371 84.4754C95.45 83.7911 95.9695 83.2213 96.6157 82.8447C96.7318 82.7771 96.7318 82.6132 96.6157 82.5455C95.9692 82.169 95.45 81.5989 95.1371 80.9146C95.0761 80.7814 94.8869 80.7814 94.826 80.9146Z" fill="#FFEA92"/>
<path d="M94.826 73.6694C94.5131 74.3534 93.9936 74.9235 93.3473 75.3004C93.2312 75.368 93.2312 75.5319 93.3473 75.5996C93.9939 75.9762 94.5131 76.5462 94.826 77.2303C94.8869 77.3631 95.0761 77.3631 95.1371 77.2303C95.45 76.5459 95.9695 75.9762 96.6157 75.5996C96.7318 75.5319 96.7318 75.368 96.6157 75.3004C95.9692 74.9238 95.45 74.3537 95.1371 73.6694C95.0761 73.5366 94.8869 73.5366 94.826 73.6694Z" fill="#FFEA92"/>
<path d="M75.2259 80.9146C74.913 81.5986 74.3935 82.1686 73.7472 82.5455C73.6311 82.6132 73.6311 82.7771 73.7472 82.8447C74.3935 83.2213 74.913 83.7914 75.2259 84.4754C75.2868 84.6083 75.476 84.6083 75.537 84.4754C75.8499 83.7911 76.3694 83.2213 77.0156 82.8447C77.1317 82.7771 77.1317 82.6132 77.0156 82.5455C76.3691 82.169 75.8499 81.5989 75.537 80.9146C75.4763 80.7814 75.2868 80.7814 75.2259 80.9146Z" fill="#FFEA92"/>
<path d="M75.2259 73.6694C74.913 74.3534 74.3935 74.9235 73.7472 75.3004C73.6311 75.368 73.6311 75.5319 73.7472 75.5996C74.3935 75.9762 74.913 76.5462 75.2259 77.2303C75.2868 77.3631 75.476 77.3631 75.537 77.2303C75.8499 76.5459 76.3694 75.9762 77.0156 75.5996C77.1317 75.5319 77.1317 75.368 77.0156 75.3004C76.3691 74.9238 75.8499 74.3537 75.537 73.6694C75.4763 73.5366 75.2868 73.5366 75.2259 73.6694Z" fill="#FFEA92"/>
<path d="M26.5297 98.0695C26.0846 98.0695 25.6638 97.9059 25.3451 97.5872C24.8082 97.0503 24.7107 96.2225 25.0971 95.4775L45.8765 55.4151C45.9657 55.2426 46.1321 55.1232 46.3243 55.0933C46.5169 55.0641 46.711 55.1275 46.8484 55.2649L67.668 76.0842C67.8054 76.2216 67.8691 76.4163 67.8396 76.6082C67.81 76.8002 67.6906 76.9665 67.5178 77.0561L27.455 97.8352C27.1522 97.9924 26.8353 98.0695 26.5297 98.0695ZM46.5751 56.7149L26.179 96.0388C26.0383 96.3106 26.0486 96.5671 26.207 96.7255C26.3655 96.884 26.622 96.8946 26.8938 96.7536L66.2177 76.3575L46.5751 56.7149Z" fill="#4E37D3"/>
<path d="M67.2275 76.5126C68.5014 75.2387 64.8742 69.5461 59.126 63.7978C53.3777 58.0495 47.6851 54.4224 46.4111 55.6963C45.1372 56.9702 48.7644 62.6629 54.5127 68.4111C60.2609 74.1594 65.9535 77.7866 67.2275 76.5126Z" fill="#F9CFCF"/>
<path d="M68.0188 71.0464C66.9987 71.0464 66.0621 70.6388 65.2562 70.2884C64.0433 69.761 63.2566 69.4578 62.4077 69.8749C61.954 70.0976 61.4068 69.9097 61.1844 69.4569C60.9623 69.0038 61.149 68.456 61.6024 68.2336C63.2529 67.424 64.7681 68.0827 65.9854 68.612C67.1983 69.1397 67.9847 69.4426 68.8339 69.0254C69.6066 68.6464 69.6952 68.0276 69.7961 66.8753C69.8988 65.7013 70.0395 64.0941 71.7738 63.2434C73.4249 62.4338 74.9395 63.0926 76.1567 63.6221C77.3694 64.1495 78.1558 64.4524 79.0046 64.0359C79.7767 63.6572 79.8654 63.0383 79.9662 61.8857C80.0689 60.7121 80.2094 59.1045 81.9437 58.2538C82.3967 58.0314 82.9443 58.2188 83.167 58.6719C83.3891 59.1249 83.202 59.6728 82.749 59.8952C81.9769 60.2739 81.8882 60.8927 81.7874 62.0454C81.6847 63.219 81.5442 64.8266 79.8099 65.6772C78.1594 66.4874 76.6442 65.8284 75.4273 65.2985C74.2143 64.7711 73.4276 64.4689 72.5791 64.8847C71.8067 65.2635 71.718 65.8823 71.6172 67.0349C71.5145 68.2086 71.3737 69.8161 69.6392 70.6668C69.0813 70.9407 68.5392 71.0464 68.0188 71.0464Z" fill="#00FFB9"/>
<path d="M54.0306 62.6041C53.8957 62.6041 53.7583 62.5739 53.6288 62.5102C53.1757 62.2881 52.9883 61.7403 53.2107 61.2869C53.6272 60.438 53.325 59.6516 52.7973 58.4381C52.2677 57.2211 51.6087 55.7062 52.4185 54.0551C53.2692 52.3209 54.8768 52.1801 56.0504 52.0771C57.2027 51.9763 57.8216 51.8876 58.2006 51.1152C58.6168 50.2667 58.3145 49.4803 57.7868 48.267C57.2573 47.0501 56.5982 45.5352 57.4081 43.8844C58.2588 42.1501 59.8663 42.0096 61.04 41.9069C62.192 41.8061 62.8111 41.7177 63.1899 40.9457C63.4123 40.4923 63.961 40.3055 64.4132 40.5276C64.8662 40.7497 65.0536 41.2976 64.8312 41.7509C63.9802 43.4849 62.3733 43.6257 61.1993 43.7281C60.0473 43.8289 59.4282 43.9176 59.0495 44.6897C58.6333 45.5382 58.9355 46.3246 59.4632 47.5379C59.9928 48.7548 60.6518 50.2697 59.8419 51.9205C58.9913 53.6548 57.3837 53.7955 56.2101 53.8985C55.0577 53.9994 54.4389 54.088 54.0599 54.8604C53.6434 55.7093 53.9456 56.4957 54.4737 57.7093C55.0032 58.9262 55.6619 60.4411 54.8521 62.0922C54.6933 62.4161 54.3685 62.6041 54.0306 62.6041Z" fill="#FCE06A"/>
</svg>
