<svg width="15" height="15" viewBox="0 0 15 15" fill="none" xmlns="http://www.w3.org/2000/svg">
<path d="M7.5 15C11.6421 15 15 11.6421 15 7.5C15 3.35786 11.6421 0 7.5 0C3.35786 0 0 3.35786 0 7.5C0 11.6421 3.35786 15 7.5 15Z" fill="#3A3847"/>
<path d="M7.29183 9.58256C8.09724 9.58256 8.75016 8.92964 8.75016 8.12423C8.75016 7.31881 8.09724 6.66589 7.29183 6.66589C6.48641 6.66589 5.8335 7.31881 5.8335 8.12423C5.8335 8.92964 6.48641 9.58256 7.29183 9.58256Z" fill="white"/>
<path d="M7.01953 4.03784V6.95451" stroke="white" stroke-width="0.75" stroke-miterlimit="10" stroke-linecap="round"/>
<path d="M11.3464 8.68506H8.42969" stroke="white" stroke-width="0.75" stroke-miterlimit="10" stroke-linecap="round"/>
</svg>
