<svg width="16" height="16" viewBox="0 0 16 16" fill="none" xmlns="http://www.w3.org/2000/svg">
<g clip-path="url(#clip0)">
<path d="M15.6225 5.883L10.44 5.40234L8.38141 0.622071C8.23728 0.287353 7.76269 0.287353 7.61857 0.622071L5.55997 5.40238L0.377509 5.883C0.0146338 5.91666 -0.132022 6.368 0.141759 6.6085L4.05194 10.0436L2.90763 15.1209C2.82751 15.4764 3.21144 15.7554 3.52479 15.5693L8 12.912L12.4752 15.5693C12.7886 15.7554 13.1725 15.4764 13.0924 15.1209L11.9481 10.0436L15.8582 6.6085C16.132 6.368 15.9854 5.91666 15.6225 5.883Z" fill="#FFDC64"/>
<path d="M8.3814 0.622071C8.23727 0.287353 7.76268 0.287353 7.61856 0.622071L5.55997 5.40238L0.377508 5.883C0.0146338 5.91666 -0.132022 6.368 0.141759 6.6085L4.05194 10.0436L2.90763 15.1209C2.8275 15.4764 3.21144 15.7554 3.52478 15.5693L4.52363 14.9762C4.66188 9.28556 7.30593 5.27816 9.3993 2.98569L8.3814 0.622071Z" fill="#FFC850"/>
</g>
<defs>
<clipPath id="clip0">
<rect width="16" height="16" fill="white"/>
</clipPath>
</defs>
</svg>
