<svg width="13" height="18" viewBox="0 0 13 18" fill="none" xmlns="http://www.w3.org/2000/svg">
<path d="M12.3583 8.54286V8.49714C12.3583 8.49714 12.3583 8.49714 12.3583 8.45143C12.5422 7.90286 12.5882 7.35429 12.5882 6.76C12.5882 3.56 9.96707 1 6.79411 1C3.57516 1 1 3.60571 1 6.76C1 7.35429 1.09197 7.90286 1.22992 8.45143C1.22992 8.45143 1.22992 8.45143 1.22992 8.49714V8.54286C1.27591 8.68 1.32189 8.86286 1.41386 9C1.41386 9 1.41386 9.04571 1.45985 9.04571C2.70144 11.9257 6.79411 17 6.79411 17C6.79411 17 10.9328 11.9257 12.1284 9.09143C12.1284 9.09143 12.1284 9.04571 12.1743 9.04571C12.2663 8.81714 12.3123 8.68 12.3583 8.54286Z" fill="#3A3847" stroke="white" stroke-width="0.7" stroke-miterlimit="10"/>
<path d="M6.83989 9.41162C8.28751 9.41162 9.46104 8.24501 9.46104 6.80591C9.46104 5.36681 8.28751 4.2002 6.83989 4.2002C5.39228 4.2002 4.21875 5.36681 4.21875 6.80591C4.21875 8.24501 5.39228 9.41162 6.83989 9.41162Z" fill="white"/>
</svg>
