<svg width="22" height="19" viewBox="0 0 22 19" fill="none" xmlns="http://www.w3.org/2000/svg">
<path d="M14.6871 8.87305H7.81738" stroke="#4E37D3" stroke-width="0.85" stroke-miterlimit="10" stroke-linecap="round" stroke-linejoin="round"/>
<path d="M4.85763 8.87255H1.63413C1.31707 8.87255 1 8.60833 1 8.23842V3.64097C1 3.3239 1.26422 3.00684 1.63413 3.00684H20.8694C21.1865 3.00684 21.5036 3.27106 21.5036 3.64097V8.23842C21.5036 8.55548 21.2393 8.87255 20.8694 8.87255H17.6459" stroke="#4E37D3" stroke-width="0.85" stroke-miterlimit="10" stroke-linecap="round" stroke-linejoin="round"/>
<path d="M14.6871 8.87305H7.81738" stroke="#4E37D3" stroke-width="0.85" stroke-miterlimit="10" stroke-linecap="round" stroke-linejoin="round"/>
<path d="M4.85902 8.87305H1.74121V16.9582C1.74121 17.381 2.05828 17.698 2.48103 17.698H19.9725C20.3952 17.698 20.7123 17.381 20.7123 16.9582V8.87305H17.5945" stroke="#4E37D3" stroke-width="0.85" stroke-miterlimit="10" stroke-linecap="round" stroke-linejoin="round"/>
<path d="M7.23639 10.9323H5.43969C5.12262 10.9323 4.8584 10.6681 4.8584 10.351V7.44457C4.8584 7.1275 5.12262 6.86328 5.43969 6.86328H7.23639C7.55345 6.86328 7.81768 7.1275 7.81768 7.44457V10.351C7.81768 10.7209 7.55345 10.9323 7.23639 10.9323Z" stroke="#4E37D3" stroke-width="0.85" stroke-miterlimit="10" stroke-linecap="round" stroke-linejoin="round"/>
<path d="M17.5945 8.87516V10.4076C17.5945 10.7247 17.3303 10.9889 17.0132 10.9889H15.2165C14.8995 10.9889 14.6353 10.7247 14.6353 10.4076V7.50121C14.6353 7.18414 14.8995 6.91992 15.2165 6.91992H17.0132C17.3303 6.91992 17.5945 7.18414 17.5945 7.50121V8.87516Z" stroke="#4E37D3" stroke-width="0.85" stroke-miterlimit="10" stroke-linecap="round" stroke-linejoin="round"/>
<path d="M14.5283 3.06093V2.42679C14.5283 1.63413 13.8941 1 13.1015 1H9.40238C8.60972 1 7.97559 1.63413 7.97559 2.42679V3.00808H14.5283V3.06093Z" stroke="#4E37D3" stroke-width="0.85" stroke-miterlimit="10" stroke-linecap="round" stroke-linejoin="round"/>
</svg>
