<svg width="24" height="19" viewBox="0 0 24 19" fill="none" xmlns="http://www.w3.org/2000/svg">
<path d="M5.3972 16.4771C6.0777 16.4771 6.62935 16.1893 6.62935 15.8343C6.62935 15.4792 6.0777 15.1914 5.3972 15.1914C4.71669 15.1914 4.16504 15.4792 4.16504 15.8343C4.16504 16.1893 4.71669 16.4771 5.3972 16.4771Z" stroke="#4E37D3" stroke-width="0.85" stroke-miterlimit="10"/>
<path d="M7.84383 17.977C8.34681 17.977 8.75456 17.7611 8.75456 17.4948C8.75456 17.2286 8.34681 17.0127 7.84383 17.0127C7.34085 17.0127 6.93311 17.2286 6.93311 17.4948C6.93311 17.7611 7.34085 17.977 7.84383 17.977Z" stroke="#4E37D3" stroke-width="0.85" stroke-miterlimit="10"/>
<path d="M19.3796 5.24471C19.4867 5.03042 19.5403 4.8697 19.5403 4.65541C19.6474 2.78039 17.3974 1.17323 14.5045 1.01251C12.5759 0.905369 10.808 1.49466 9.84375 2.45896" stroke="#4E37D3" stroke-width="0.85" stroke-miterlimit="10" stroke-linecap="round"/>
<path d="M9.84392 2.40521C9.25463 2.19092 8.55819 2.08378 7.86175 2.03021C4.96886 1.86949 2.50455 3.26237 2.3974 5.08382C2.34383 5.78025 2.66526 6.42312 3.20098 7.01241" stroke="#4E37D3" stroke-width="0.85" stroke-miterlimit="10" stroke-linecap="round"/>
<path d="M8.12988 12.5304C9.30847 13.6019 11.0763 14.3519 13.1121 14.459C15.9514 14.6197 18.4157 13.4947 19.4872 11.834" stroke="#4E37D3" stroke-width="0.85" stroke-miterlimit="10" stroke-linecap="round"/>
<path d="M19.487 11.8345C21.7371 11.5666 23.4514 10.388 23.5585 8.83445C23.6656 7.17371 21.8442 5.67369 19.3799 5.24512" stroke="#4E37D3" stroke-width="0.85" stroke-miterlimit="10" stroke-linecap="round"/>
<path d="M3.20095 7.0127C1.96879 7.54842 1.11164 8.56628 1.0045 9.74487C0.897352 11.6199 2.7188 13.2271 5.0224 13.3342C6.20099 13.3878 7.326 13.0663 8.12958 12.477" stroke="#4E37D3" stroke-width="0.85" stroke-miterlimit="10" stroke-linecap="round"/>
</svg>
